<?xml version="1.0" encoding="UTF-8" standalone="no"?>
<!-- Created with Inkscape (http://www.inkscape.org/) -->

<svg
   xmlns:dc="http://purl.org/dc/elements/1.1/"
   xmlns:cc="http://creativecommons.org/ns#"
   xmlns:rdf="http://www.w3.org/1999/02/22-rdf-syntax-ns#"
   xmlns:svg="http://www.w3.org/2000/svg"
   xmlns="http://www.w3.org/2000/svg"
   xmlns:xlink="http://www.w3.org/1999/xlink"
   xmlns:sodipodi="http://sodipodi.sourceforge.net/DTD/sodipodi-0.dtd"
   xmlns:inkscape="http://www.inkscape.org/namespaces/inkscape"
   width="48px"
   height="48px"
   id="svg3721"
   version="1.1"
   inkscape:version="0.48.0 r9654"
   sodipodi:docname="choqok.svg">
  <defs
     id="defs3723">
    <linearGradient
       id="linearGradient3836"
       inkscape:collect="always">
      <stop
         id="stop3838"
         offset="0"
         style="stop-color:#d4aa00;stop-opacity:1" />
      <stop
         id="stop3840"
         offset="1"
         style="stop-color:#ffcc00;stop-opacity:1" />
    </linearGradient>
    <linearGradient
       id="linearGradient3820"
       inkscape:collect="always">
      <stop
         id="stop3822"
         offset="0"
         style="stop-color:#d4aa00;stop-opacity:0.5" />
      <stop
         id="stop3824"
         offset="1"
         style="stop-color:#806600;stop-opacity:1" />
    </linearGradient>
    <linearGradient
       id="linearGradient3814"
       inkscape:collect="always">
      <stop
         id="stop3816"
         offset="0"
         style="stop-color:#d4aa00;stop-opacity:1" />
      <stop
         id="stop3818"
         offset="1"
         style="stop-color:#ffcc00;stop-opacity:1" />
    </linearGradient>
    <linearGradient
       inkscape:collect="always"
       id="linearGradient3040">
      <stop
         style="stop-color:#d4aa00;stop-opacity:1"
         offset="0"
         id="stop3042" />
      <stop
         style="stop-color:#806600;stop-opacity:1"
         offset="1"
         id="stop3044" />
    </linearGradient>
    <linearGradient
       inkscape:collect="always"
       id="linearGradient3049">
      <stop
         style="stop-color:#d4aa00;stop-opacity:1"
         offset="0"
         id="stop3051" />
      <stop
         style="stop-color:#ffdd55;stop-opacity:1"
         offset="1"
         id="stop3053" />
    </linearGradient>
    <linearGradient
       id="linearGradient3020"
       inkscape:collect="always">
      <stop
         id="stop3022"
         offset="0"
         style="stop-color:#a3df01;stop-opacity:1" />
      <stop
         id="stop3024"
         offset="1"
         style="stop-color:#077d03;stop-opacity:1" />
    </linearGradient>
    <filter
       color-interpolation-filters="sRGB"
       inkscape:collect="always"
       id="filter3794">
      <feGaussianBlur
         inkscape:collect="always"
         stdDeviation="1.223301"
         id="feGaussianBlur3796" />
    </filter>
    <linearGradient
       inkscape:collect="always"
       xlink:href="#linearGradient9555"
       id="linearGradient9561"
       x1="10"
       y1="-24"
       x2="38"
       y2="-46"
       gradientUnits="userSpaceOnUse" />
    <linearGradient
       inkscape:collect="always"
       id="linearGradient9555">
      <stop
         style="stop-color:#514641;stop-opacity:1;"
         offset="0"
         id="stop9557" />
      <stop
         style="stop-color:#302925;stop-opacity:1"
         offset="1"
         id="stop9559" />
    </linearGradient>
    <radialGradient
       inkscape:collect="always"
       xlink:href="#linearGradient9353"
       id="radialGradient9359"
       cx="20"
       cy="14.571428"
       fx="20"
       fy="14.571428"
       r="18"
       gradientTransform="matrix(-1.0868165,0.45576174,-0.72222219,-1.7222222,52.26014,26.980003)"
       gradientUnits="userSpaceOnUse" />
    <linearGradient
       inkscape:collect="always"
       id="linearGradient9353">
      <stop
         style="stop-color:#ac9d93;stop-opacity:1"
         offset="0"
         id="stop9355" />
      <stop
         style="stop-color:#917c6f;stop-opacity:1"
         offset="1"
         id="stop9357" />
    </linearGradient>
    <clipPath
       clipPathUnits="userSpaceOnUse"
       id="clipPath9366">
      <path
         style="fill:#f2f2f2;fill-opacity:1;stroke:none"
         d="M 33,28 33,45 8,45 C 5.23,45 3,42.77 3,40 L 3,8 C 3,5.23 5.23,3 8,3 l 31,0 0,15 c 0,4 -6,6 -6,10 z"
         id="path9368"
         inkscape:connector-curvature="0"
         sodipodi:nodetypes="cccsssccc" />
    </clipPath>
    <filter
       id="filter9392"
       inkscape:label="Invert"
       x="0"
       y="0"
       width="1"
       height="1"
       inkscape:menu="Color"
       inkscape:menu-tooltip="Invert colors"
       color-interpolation-filters="sRGB">
      <feColorMatrix
         id="feColorMatrix9394"
         type="saturate"
         values="1"
         result="fbSourceGraphic" />
      <feColorMatrix
         id="feColorMatrix9396"
         in="fbSourceGraphic"
         values="-1 0 0 0 1 0 -1 0 0 1 0 0 -1 0 1 0 0 0 1 0 " />
    </filter>
    <linearGradient
       inkscape:collect="always"
       xlink:href="#linearGradient9555"
       id="linearGradient3840"
       gradientUnits="userSpaceOnUse"
       x1="10"
       y1="-24"
       x2="38"
       y2="-46" />
    <radialGradient
       inkscape:collect="always"
       xlink:href="#linearGradient9353"
       id="radialGradient3842"
       gradientUnits="userSpaceOnUse"
       gradientTransform="matrix(-1.0868165,0.45576174,-0.72222219,-1.7222222,52.26014,26.980003)"
       cx="20"
       cy="14.571428"
       fx="20"
       fy="14.571428"
       r="18" />
    <radialGradient
       inkscape:collect="always"
       xlink:href="#linearGradient9353"
       id="radialGradient3849"
       gradientUnits="userSpaceOnUse"
       gradientTransform="matrix(-1.0868165,0.45576174,-0.72222219,-1.7222222,52.26014,26.980003)"
       cx="20"
       cy="14.571428"
       fx="20"
       fy="14.571428"
       r="18" />
    <linearGradient
       inkscape:collect="always"
       xlink:href="#linearGradient3020"
       id="linearGradient3853"
       gradientUnits="userSpaceOnUse"
       x1="10"
       y1="-24"
       x2="38"
       y2="-46" />
    <linearGradient
       inkscape:collect="always"
       xlink:href="#linearGradient3814"
       id="linearGradient3055"
       x1="13"
       y1="31"
       x2="24"
       y2="28"
       gradientUnits="userSpaceOnUse"
       spreadMethod="reflect"
       gradientTransform="matrix(0.65340911,0,0,0.65340911,8.3135995,8.2727999)" />
    <linearGradient
       inkscape:collect="always"
       xlink:href="#linearGradient3836"
       id="linearGradient3835"
       x1="32"
       y1="32"
       x2="24"
       y2="33"
       gradientUnits="userSpaceOnUse"
       spreadMethod="reflect"
       gradientTransform="matrix(0.65340911,0,0,0.65340911,8.3135995,8.9262091)" />
    <linearGradient
       inkscape:collect="always"
       xlink:href="#linearGradient3049"
       id="linearGradient3868"
       gradientUnits="userSpaceOnUse"
       spreadMethod="reflect"
       x1="14"
       y1="30"
       x2="24"
       y2="28" />
    <linearGradient
       inkscape:collect="always"
       xlink:href="#linearGradient3049"
       id="linearGradient3872"
       gradientUnits="userSpaceOnUse"
       spreadMethod="reflect"
       x1="12"
       y1="31"
       x2="24"
       y2="28" />
    <linearGradient
       inkscape:collect="always"
       xlink:href="#linearGradient3040"
       id="linearGradient3881"
       gradientUnits="userSpaceOnUse"
       spreadMethod="reflect"
       x1="26"
       y1="29"
       x2="29"
       y2="27"
       gradientTransform="matrix(0.65340911,0,0,0.65340911,8.3135995,8.2727999)" />
    <linearGradient
       inkscape:collect="always"
       xlink:href="#linearGradient3820"
       id="linearGradient3891"
       gradientUnits="userSpaceOnUse"
       spreadMethod="reflect"
       x1="26"
       y1="30"
       x2="29"
       y2="28"
       gradientTransform="matrix(-0.65340911,0,0,0.65340911,39.677237,8.2727999)" />
    <filter
       inkscape:collect="always"
       id="filter3961">
      <feGaussianBlur
         inkscape:collect="always"
         stdDeviation="0.25420328"
         id="feGaussianBlur3963" />
    </filter>
  </defs>
  <sodipodi:namedview
     id="base"
     pagecolor="#ffffff"
     bordercolor="#666666"
     borderopacity="1.0"
     inkscape:pageopacity="0.0"
     inkscape:pageshadow="2"
     inkscape:zoom="4.1510417"
     inkscape:cx="-40.357365"
     inkscape:cy="11.521344"
     inkscape:current-layer="layer1"
     showgrid="true"
     inkscape:grid-bbox="true"
     inkscape:document-units="px"
     inkscape:window-width="1280"
     inkscape:window-height="984"
     inkscape:window-x="-2"
     inkscape:window-y="19"
     inkscape:window-maximized="1"
     inkscape:snap-global="true">
    <inkscape:grid
       type="xygrid"
       id="grid3828" />
  </sodipodi:namedview>
  <metadata
     id="metadata3726">
    <rdf:RDF>
      <cc:Work
         rdf:about="">
        <dc:format>image/svg+xml</dc:format>
        <dc:type
           rdf:resource="http://purl.org/dc/dcmitype/StillImage" />
        <dc:title />
      </cc:Work>
    </rdf:RDF>
  </metadata>
  <g
     id="layer1"
     inkscape:label="Layer 1"
     inkscape:groupmode="layer">
    <rect
       style="opacity:0.48936169;fill:none;stroke:none"
       id="border"
       width="48"
       height="48"
       x="0"
       y="0" />
    <rect
       ry="5"
       rx="5"
       y="3"
       x="3"
       height="42"
       width="42"
       id="rect3000"
       style="fill:#445500;fill-opacity:1;stroke:none;filter:url(#filter3794)"
       transform="matrix(0,1,-1,0,48,0)" />
    <rect
       style="fill:url(#linearGradient3853);fill-opacity:1;stroke:none"
       id="rect2995"
       width="42"
       height="42"
       x="1"
       y="-45"
       rx="5"
       ry="5"
       transform="matrix(0,1,-1,0,0,0)" />
    <path
       style="opacity:0.98514847;fill:#222b00;fill-opacity:1;stroke:none;filter:url(#filter3961)"
       d="m 20.132965,22.636363 -6.181819,6.181818 c -1.499183,1.499183 0.69255,2.553232 0.772727,2.553232 l 0.772727,0 -0.772727,-0.23505 c 0,0.725718 0.772727,1.451434 2.318182,1.451434 L 24,35.271855 30.951146,32.587797 c 1.545454,0 2.318181,-0.725716 2.318181,-1.451434 l -0.772727,0.23505 0.772727,0 c 0,0 2.230128,-1.013401 0.772728,-2.553232 L 27.860236,22.286727 C 27.435408,21.83787 25.542055,18 23.9966,18 c -1.545454,0 -3.090909,3.863637 -3.863635,4.636363 z"
       id="path3861"
       inkscape:connector-curvature="0"
       sodipodi:nodetypes="cssccccccccsscc"
       transform="matrix(0.89843752,0,0,0.89843752,2.4374994,2.3104418)" />
    <path
       style="fill:#554400;fill-opacity:1;stroke:none"
       d="m 20.728373,25.914846 -4.573865,3.920455 C 16.154508,30.488709 16.693182,31 18,31 L 23.995418,33.102346 30,31 c 1.306818,0 1.836328,-0.511291 1.836328,-1.164699 l -4.573864,-3.920455 z"
       id="path3837"
       inkscape:connector-curvature="0"
       sodipodi:nodetypes="cccccccc" />
    <path
       sodipodi:nodetypes="cccccccc"
       inkscape:connector-curvature="0"
       id="path3047"
       d="m 21.381781,26.568255 -4.573863,3.267046 c 0,0.653408 0.653409,0.653408 1.306818,0.653408 l 5.880682,1.960228 5.880682,-1.960228 c 0.653409,0 1.306818,0 1.306818,-0.653408 l -4.573864,-3.267046 z"
       style="fill:url(#linearGradient3835);fill-opacity:1;stroke:none" />
    <path
       style="fill:#d4aa00;fill-opacity:1;stroke:none"
       d="m 21.381781,26.568255 -4.573863,3.267046 c 0,0.653408 0.653409,0.653408 1.306818,0.653408 l 5.880682,1.960228 5.880682,-1.960228 c 0.653409,0 1.306818,0 1.306818,-0.653408 l -4.573864,-3.267046 z m 0,0.653409 5.227273,0 3.920455,2.613637 c -0.653409,0 0,0 -0.653409,0 l -5.880682,1.960227 -5.227273,-1.960227 c -0.653409,0 -0.653409,0 -1.306818,0 z"
       id="path3830"
       inkscape:connector-curvature="0"
       sodipodi:nodetypes="cccccccccccccccc" />
    <path
       sodipodi:nodetypes="cccccccccccccccc"
       inkscape:connector-curvature="0"
       id="path3081"
       d="m 21.381781,26.568255 -4.573863,3.267046 c 0,0.653408 0.653409,0.653408 1.306818,0.653408 L 24,31.141489 l 5.8761,-0.65278 c 0.653409,0 1.306818,0 1.306818,-0.653408 l -4.573864,-3.267046 z m 0,0.653409 5.227273,0 3.920455,2.613637 c -0.653409,0 0,0 -0.653409,0 L 24,30 18.768145,29.835301 c -0.653409,0 -0.653409,0 -1.306818,0 z"
       style="fill:#222b00;fill-opacity:1;stroke:none" />
    <path
       sodipodi:nodetypes="cccccccsc"
       inkscape:connector-curvature="0"
       id="path3825"
       d="m 21.381781,22.647801 -5.227273,5.880681 c -1.306817,1.306819 0.585614,1.306819 0.65341,1.306819 L 24,30 31.182918,29.835301 c 0,0 1.960227,0 0.65341,-1.306819 l -5.227274,-5.880681 c -0.654102,-0.654103 -1.960227,-2.613637 -2.613636,-2.613637 -0.653409,0 -1.960921,1.960921 -2.613637,2.613637 z"
       style="fill:#aa8800;fill-opacity:1;stroke:none" />
    <path
       style="fill:url(#linearGradient3055);fill-opacity:1;stroke:none"
       d="m 21.381781,23.301209 -4.573863,5.227273 c -0.65341,0.653409 0.653409,0.653409 0.721205,0.653409 l 13.000386,0 c 0,0 1.306819,0 0.653409,-0.653409 l -4.573864,-5.227273 c -0.654103,-0.654104 -1.306817,-2.613636 -2.613636,-2.613636 -1.306818,0 -1.960923,1.960922 -2.613637,2.613636 z"
       id="path3045"
       inkscape:connector-curvature="0"
       sodipodi:nodetypes="ccccccsc" />
    <path
       style="fill:#d4aa00;fill-opacity:1;stroke:none"
       d="m 21.381781,23.301209 -4.573863,5.227273 c -0.608498,0.695426 0.647213,0.6466 0.714666,0.653409 L 24,30 30.529509,29.181891 c 0,0 1.261907,0.04201 0.653409,-0.653409 l -4.573864,-5.227273 c -0.609145,-0.696166 -1.306817,-2.613636 -2.613636,-2.613636 -1.306818,0 -1.960227,1.960228 -2.613637,2.613636 z m 2.613637,-1.960227 c 1.306819,0 2.021439,1.902998 2.613636,2.613636 l 3.267046,3.920455 c 0.591568,0.709883 0,0.653409 0,0.653409 L 24,29 18.114736,28.528482 c -0.06758,-0.0054 -0.591569,0.05648 0,-0.653409 l 3.267045,-3.920455 c 0.65341,-0.653409 1.306819,-2.613636 2.613637,-2.613636 z"
       id="path3870"
       inkscape:connector-curvature="0"
       sodipodi:nodetypes="cssccsscccssccsscc" />
    <path
       sodipodi:type="arc"
       style="fill:#554400;fill-opacity:1;stroke:none"
       id="path3875"
       sodipodi:cx="21.5"
       sodipodi:cy="25"
       sodipodi:rx="1.5"
       sodipodi:ry="1"
       d="m 23,25 a 1.5,1 0 1 1 -3,0 1.5,1 0 1 1 3,0 z"
       transform="matrix(0.65340911,0,0,0.65340911,8.3135995,8.2727999)" />
    <path
       d="m 23,25 a 1.5,1 0 1 1 -3,0 1.5,1 0 1 1 3,0 z"
       sodipodi:ry="1"
       sodipodi:rx="1.5"
       sodipodi:cy="25"
       sodipodi:cx="21.5"
       id="path3877"
       style="fill:#554400;fill-opacity:1;stroke:none"
       sodipodi:type="arc"
       transform="matrix(0.65340911,0,0,0.65340911,11.580645,8.2727999)" />
    <path
       sodipodi:nodetypes="ccccc"
       inkscape:connector-curvature="0"
       id="path3879"
       d="m 27.262464,29.181891 3.267045,0 c 0,0 1.306819,0 0.653409,-0.653409 l -4.573864,-5.227273 c -2.613636,0.653409 -1.960227,4.573864 0.65341,5.880682 z"
       style="opacity:0.5;fill:url(#linearGradient3881);fill-opacity:1;stroke:none" />
    <path
       style="opacity:0.5;fill:url(#linearGradient3891);fill-opacity:1;stroke:none"
       d="m 20.728373,29.181891 -3.267046,0 c 0,0 -1.306819,0 -0.653409,-0.653409 l 4.573863,-5.227273 c 2.613637,0.653409 1.960228,4.573864 -0.653408,5.880682 z"
       id="path3889"
       inkscape:connector-curvature="0"
       sodipodi:nodetypes="ccccc" />
    <path
       style="opacity:0.75;fill:#e5ff80;fill-opacity:1;stroke:none"
       d="m 20,16 c -1.796875,6.289063 -5.882813,6.076067 -12.1718754,5.17763 2.6953124,0.299481 4.8699174,2.649856 7.1875004,1.796875 C 17.697265,21.987534 19.101562,20.492188 20,16 z"
       id="path3931"
       inkscape:connector-curvature="0"
       sodipodi:nodetypes="ccac" />
    <g
       id="g3077">
      <path
         sodipodi:nodetypes="cccccccccccc"
         inkscape:connector-curvature="0"
         id="path3933"
         d="m 34.132915,34.447469 2.352694,1.315122 4.013671,0.185034 -2.606033,-4.544563 2.883584,-1.475945 -3.575298,-0.969264 0.09252,-2.006837 -1.315122,2.352694 2.791067,0.53089 -2.883584,1.475945 2.260176,3.321958 z"
         style="fill:#445500;fill-opacity:1;stroke:none" />
      <path
         style="opacity:0.75;fill:#e5ff80;fill-opacity:1;stroke:none"
         d="m 31.780223,33.132348 2.352692,1.315121 4.797904,0.623408 -2.260177,-3.321958 2.099353,-1.914319 -2.791067,-0.53089 1.315122,-2.352694 -3.321959,2.260176 3.575299,0.969265 -2.883583,1.475945 1.914318,2.099353 z"
         id="path3951"
         inkscape:connector-curvature="0"
         sodipodi:nodetypes="cccccccccccc" />
    </g>
    <path
       style="opacity:0.98514847;fill:#e5ff80;fill-opacity:1;stroke:none"
       d="m 23.101562,21.17763 c 0,8.959213 0.898438,7.1875 0.898438,7.1875 0,0 0.898438,1.796875 0.898438,-7.1875 -0.704703,-0.845956 -1.271617,-0.589596 -1.796876,0 z"
       id="path3965"
       inkscape:connector-curvature="0"
       sodipodi:nodetypes="cccc" />
    <g
       id="g3081">
      <path
         style="fill:#445500;fill-opacity:1;stroke:none"
         d="M 13.956363,34.499845 11.60367,35.814967 7.5899982,36 10.196031,31.455437 7.3124475,29.979492 l 3.5752975,-0.969264 -0.09252,-2.006836 1.315122,2.352693 -2.7910672,0.53089 2.8835842,1.475945 -2.2601764,3.321958 z"
         id="path3971"
         inkscape:connector-curvature="0"
         sodipodi:nodetypes="cccccccccccc" />
      <path
         sodipodi:nodetypes="cccccccccccc"
         inkscape:connector-curvature="0"
         id="path3973"
         d="m 16.309056,33.184724 -2.352693,1.315121 -4.7979031,0.623408 3.1618521,-4.06281 -3.0010282,-1.173468 2.7910672,-0.53089 -1.315122,-2.352693 3.321958,2.260176 -3.575299,0.969264 3.78526,0.735094 -2.815995,2.840204 z"
         style="opacity:0.75;fill:#e5ff80;fill-opacity:1;stroke:none" />
    </g>
    <path
       d="m 18,16 a 4,4 0 1 1 -8,0 4,4 0 1 1 8,0 z"
       sodipodi:ry="4"
       sodipodi:rx="4"
       sodipodi:cy="16"
       sodipodi:cx="14"
       id="path3857"
       style="fill:#445500;fill-opacity:1;stroke:none"
       sodipodi:type="arc"
       transform="matrix(0.89843752,0,0,1.1230469,20.40625,-1.2833083)" />
    <path
       transform="matrix(0.89843752,0,0,0.89843752,20.40625,3.2088793)"
       sodipodi:type="arc"
       style="fill:#222b00;fill-opacity:1;stroke:none"
       id="path3845"
       sodipodi:cx="14"
       sodipodi:cy="16"
       sodipodi:rx="4"
       sodipodi:ry="4"
       d="m 18,16 a 4,4 0 1 1 -8,0 4,4 0 1 1 8,0 z" />
    <path
       d="m 18,16 a 4,4 0 1 1 -8,0 4,4 0 1 1 8,0 z"
       sodipodi:ry="4"
       sodipodi:rx="4"
       sodipodi:cy="16"
       sodipodi:cx="14"
       id="path3841"
       style="fill:#f6ffd5;fill-opacity:1;stroke:none"
       sodipodi:type="arc"
       transform="matrix(0.67382805,0,0,0.67382805,23.550783,6.8026308)" />
    <g
       id="g3073"
       transform="translate(-18.489335,13.91217)">
      <path
         sodipodi:nodetypes="ccccccccccccccccccccccccccc"
         inkscape:connector-curvature="0"
         id="path3920"
         d="m 13.21875,21.17763 -1.796875,0 0,-0.898438 -2.6953129,0 1.7968749,-1.796875 -2.6953124,-0.898437 1.796875,-0.898438 0.8984374,-0.898437 -0.8984374,-0.898438 -1.796875,-1.796875 1.796875,0 0,-1.796875 3.5937504,1.796875 2.695312,-0.898437 -8.0859374,-2.695313 0.8984375,2.695313 -2.6953126,0 1.7968751,2.695312 0.8984375,0.898438 -0.8984375,0.898437 -1.7968751,0.898438 2.6953126,0.898437 -1.7968751,2.695313 3.59375,0 0,2.695312 4.492188,-2.695312 z"
         style="fill:#222b00;fill-opacity:1;stroke:none" />
      <path
         style="opacity:0.75;fill:#e5ff80;fill-opacity:1;stroke:none"
         d="M 14.117187,20.279192 C 12.320312,21.17763 11.421875,13.99013 13.21875,13.99013 l 0.898437,-0.898438 -0.898437,0 -3.5937504,-1.796875 0,1.796875 -1.796875,0 1.796875,1.796875 c 1.0297604,0.891739 0.9017554,0.895121 0,1.796875 l -1.796875,0.898438 2.6953124,0.898437 -1.7968749,1.796875 2.6953129,0 0,0.898438 3.59375,0 z"
         id="path3923"
         inkscape:connector-curvature="0"
         sodipodi:nodetypes="cccccccccccccccc" />
    </g>
    <path
       transform="matrix(0.89843752,0,0,1.1230469,2.4374994,-1.2833083)"
       sodipodi:type="arc"
       style="fill:#445500;fill-opacity:1;stroke:none"
       id="path3859"
       sodipodi:cx="14"
       sodipodi:cy="16"
       sodipodi:rx="4"
       sodipodi:ry="4"
       d="m 18,16 a 4,4 0 1 1 -8,0 4,4 0 1 1 8,0 z" />
    <path
       d="m 18,16 a 4,4 0 1 1 -8,0 4,4 0 1 1 8,0 z"
       sodipodi:ry="4"
       sodipodi:rx="4"
       sodipodi:cy="16"
       sodipodi:cx="14"
       id="path3849"
       style="fill:#222b00;fill-opacity:1;stroke:none"
       sodipodi:type="arc"
       transform="matrix(0.89843752,0,0,0.89843752,2.4374994,3.2088793)" />
    <path
       transform="matrix(0.67382805,0,0,0.67382805,5.582032,6.8026308)"
       sodipodi:type="arc"
       style="fill:#f6ffd5;fill-opacity:1;stroke:none"
       id="path3851"
       sodipodi:cx="14"
       sodipodi:cy="16"
       sodipodi:rx="4"
       sodipodi:ry="4"
       d="m 18,16 a 4,4 0 1 1 -8,0 4,4 0 1 1 8,0 z" />
    <path
       sodipodi:nodetypes="ccac"
       inkscape:connector-curvature="0"
       id="path3855"
       d="m 20,16 c -3,6 -4.984375,5.17763 -12.1718754,5.17763 2.6953124,0.299481 6.3699304,1.460635 8.9843754,0 C 18.581813,20.189152 19.101562,20.492188 20,16 z"
       style="fill:#222b00;fill-opacity:1;stroke:none" />
    <path
       d="m 16.666667,16 a 2.666667,2.666667 0 1 1 -5.333334,0 L 14,16 z"
       sodipodi:ry="2.666667"
       sodipodi:rx="2.666667"
       sodipodi:cy="16"
       sodipodi:cx="14"
       id="path3977"
       style="fill:#eeffaa;fill-opacity:1;stroke:none"
       sodipodi:type="arc"
       transform="matrix(1.0107422,0,0,1.0107422,18.833983,1.4120041)"
       sodipodi:start="0"
       sodipodi:end="3.1415927" />
    <path
       transform="matrix(0.67382805,0,0,-0.67382805,23.541041,27.588838)"
       sodipodi:type="arc"
       style="fill:#222b00;fill-opacity:1;stroke:none"
       id="path3975"
       sodipodi:cx="14"
       sodipodi:cy="16"
       sodipodi:rx="2.3505695"
       sodipodi:ry="2.3505695"
       d="m 16.350569,16 a 2.3505695,2.3505695 0 1 1 -4.701138,0 2.3505695,2.3505695 0 1 1 4.701138,0 z" />
    <path
       sodipodi:end="3.1415927"
       sodipodi:start="0"
       transform="matrix(1.0107422,0,0,1.0107422,0.86523319,1.4120041)"
       sodipodi:type="arc"
       style="fill:#eeffaa;fill-opacity:1;stroke:none"
       id="path3979"
       sodipodi:cx="14"
       sodipodi:cy="16"
       sodipodi:rx="2.666667"
       sodipodi:ry="2.666667"
       d="m 16.666667,16 a 2.666667,2.666667 0 1 1 -5.333334,0 L 14,16 z" />
    <path
       style="fill:#aad400;fill-opacity:1;stroke:none"
       d="M 8,2 C 5,2 4,4 4,7 l 0,31 c 0,3 2,4 5,4 l 30,0 c 3,0 5,-1 5,-4 L 44,7 C 44,4 43,2 40,2 z m 2,1 28,0 c 3.53125,0 5,1.46875 5,5 l 0,28 c 0,3 -1,5 -5,5 L 10,41 C 6,41 5,40 5,36 L 5,8 C 5,4.46875 6.46875,3 10,3 z"
       id="rect3072"
       inkscape:connector-curvature="0"
       sodipodi:nodetypes="ssssssssssssssssss" />
    <path
       id="path3811"
       d="M 8,1 C 5.23,1 3,3.23 3,6 l 0,32 c 0,2.77 2.23,5 5,5 l 32,0 c 3,0 5,-2.443132 5,-5 L 45,6 C 45,3.5076062 43.089526,1 40,1 z m 0,1 32,0 c 2,0 4,2 4,4 l 0,32 c 0,2 -2,4 -4,4 L 8,42 C 5.23,42 4,40 4,38 L 4,6 C 4,4 5.2314401,2.0893084 8,2 z"
       style="fill:#445500;fill-opacity:1;stroke:none"
       inkscape:connector-curvature="0"
       sodipodi:nodetypes="ssssccccscccccsssc" />
    <path
       d="m 16.350569,16 a 2.3505695,2.3505695 0 1 1 -4.701138,0 2.3505695,2.3505695 0 1 1 4.701138,0 z"
       sodipodi:ry="2.3505695"
       sodipodi:rx="2.3505695"
       sodipodi:cy="16"
       sodipodi:cx="14"
       id="path3083"
       style="fill:#222b00;fill-opacity:1;stroke:none"
       sodipodi:type="arc"
       transform="matrix(0.67382805,0,0,-0.67382805,5.5566666,27.588838)" />
    <g
       transform="translate(-44.567126,-4.0351315)"
       id="g3085">
      <path
         style="opacity:0.75;fill:#e5ff80;fill-opacity:1;stroke:none"
         d="m 32.984375,21.17763 0.898438,0 0.898437,-0.898438 0.898438,-0.898437 0.898437,-0.898438 0,-0.898437 -0.898437,-0.898438 0.898437,0 -0.898437,-0.898437 0.898437,-0.898438 -0.898437,0 0,-0.898437 -1.796875,-0.898438 -0.898438,0 1.796875,0 3.59375,-1.796875 -0.898437,1.796875 2.695312,0.898438 -1.796875,0.898437 0,0.898438 0.898438,1.796875 -1.796875,0.898437 1.796875,1.796875 -3.59375,0 0,1.796875 -3.59375,-0.898437 z"
         id="path3087"
         inkscape:connector-curvature="0"
         sodipodi:nodetypes="ccccccccccccccccccccccccccc" />
      <path
         sodipodi:nodetypes="cccccccccccccccccccccccc"
         inkscape:connector-curvature="0"
         id="path3089"
         d="m 33.882813,21.17763 1.796875,0 0,-0.898438 3.59375,0 -1.796875,-1.796875 1.796875,-0.898437 -0.898438,-1.796875 0,-0.898438 1.796875,-0.898437 -2.695312,-0.898438 0.898437,-1.796875 -3.59375,1.796875 -2.695312,-0.898437 8.085937,-2.695313 -0.898437,2.695313 2.695312,1.796875 -2.695312,1.796875 1.796875,1.796875 -1.796875,0.898437 1.796875,2.695313 -4.492188,0 0.898438,2.695312 -5.390625,-2.695312 z"
         style="fill:#222b00;fill-opacity:1;stroke:none" />
    </g>
    <g
       id="g3069"
       transform="translate(-12.375,-13.787005)">
      <path
         sodipodi:nodetypes="ccccccccccccccccc"
         inkscape:connector-curvature="0"
         id="path3927"
         d="m 32.984375,21.17763 0.898438,0 0.898437,-0.898438 0.898438,-0.898437 0.898437,-0.898438 0,-0.898437 -0.898437,-0.898438 0.898437,0 -0.898437,-0.898437 2.695312,0 0.898438,1.796875 -1.796875,0.898437 1.796875,1.796875 -3.59375,0 0,1.796875 -3.59375,-0.898437 z"
         style="opacity:0.75;fill:#e5ff80;fill-opacity:1;stroke:none" />
      <path
         style="fill:#445500;fill-opacity:1;stroke:none"
         d="m 33.882813,21.17763 1.796875,0 0,-0.898438 3.59375,0 -1.796875,-1.796875 1.796875,-0.898437 -0.943607,-1.826988 0.898438,0 1.842044,1.826988 -1.796875,0.898437 1.796875,2.695313 -4.492188,0 0.898438,2.695312 -5.390625,-2.695312 z"
         id="path3925"
         inkscape:connector-curvature="0"
         sodipodi:nodetypes="ccccccccccccccc" />
    </g>
    <path
       d="m 16.350569,16 a 2.3505695,2.3505695 0 1 1 -4.701138,0 2.3505695,2.3505695 0 1 1 4.701138,0 z"
       sodipodi:ry="2.3505695"
       sodipodi:rx="2.3505695"
       sodipodi:cy="16"
       sodipodi:cx="14"
       id="path3091"
       style="fill:#eef4d7;fill-opacity:1;stroke:none"
       sodipodi:type="arc"
       transform="matrix(0.21546279,0,0,-0.21546279,29.958155,19.495897)" />
    <path
       transform="matrix(0.21546279,0,0,-0.21546279,12.010853,19.495897)"
       sodipodi:type="arc"
       style="fill:#eef4d7;fill-opacity:1;stroke:none"
       id="path3093"
       sodipodi:cx="14"
       sodipodi:cy="16"
       sodipodi:rx="2.3505695"
       sodipodi:ry="2.3505695"
       d="m 16.350569,16 a 2.3505695,2.3505695 0 1 1 -4.701138,0 2.3505695,2.3505695 0 1 1 4.701138,0 z" />
    <path
       sodipodi:nodetypes="ccac"
       inkscape:connector-curvature="0"
       id="path3095"
       d="m 28,16 c 1.796875,6.289063 5.882813,6.076067 12.171875,5.17763 -2.695312,0.299481 -4.869917,2.649856 -7.1875,1.796875 C 30.302735,21.987534 28.898438,20.492188 28,16 z"
       style="opacity:0.75;fill:#e5ff80;fill-opacity:1;stroke:none" />
    <path
       style="fill:#222b00;fill-opacity:1;stroke:none"
       d="m 28,16 c 3,6 4.984375,5.17763 12.171875,5.17763 -2.695312,0.299481 -6.36993,1.460635 -8.984375,0 C 29.418187,20.189152 28.898438,20.492188 28,16 z"
       id="path3097"
       inkscape:connector-curvature="0"
       sodipodi:nodetypes="ccac" />
  </g>
</svg>
