<?xml version="1.0" encoding="UTF-8" standalone="no"?>
<!-- Created with Inkscape (http://www.inkscape.org/) -->

<svg
   xmlns:dc="http://purl.org/dc/elements/1.1/"
   xmlns:cc="http://creativecommons.org/ns#"
   xmlns:rdf="http://www.w3.org/1999/02/22-rdf-syntax-ns#"
   xmlns:svg="http://www.w3.org/2000/svg"
   xmlns="http://www.w3.org/2000/svg"
   xmlns:xlink="http://www.w3.org/1999/xlink"
   xmlns:sodipodi="http://sodipodi.sourceforge.net/DTD/sodipodi-0.dtd"
   xmlns:inkscape="http://www.inkscape.org/namespaces/inkscape"
   width="48px"
   height="48px"
   id="svg3721"
   version="1.1"
   inkscape:version="0.48.0 r9654"
   sodipodi:docname="drive-removable-media-usb.svg">
  <defs
     id="defs3723">
    <linearGradient
       inkscape:collect="always"
       id="linearGradient3017">
      <stop
         style="stop-color:#f2f2f2;stop-opacity:1"
         offset="0"
         id="stop3019" />
      <stop
         style="stop-color:#e6e6e6;stop-opacity:1"
         offset="1"
         id="stop3021" />
    </linearGradient>
    <linearGradient
       id="linearGradient3007"
       inkscape:collect="always">
      <stop
         id="stop3009"
         offset="0"
         style="stop-color:#b3b3b3;stop-opacity:1" />
      <stop
         id="stop3011"
         offset="1"
         style="stop-color:#999999;stop-opacity:1" />
    </linearGradient>
    <filter
       color-interpolation-filters="sRGB"
       inkscape:collect="always"
       id="filter3794">
      <feGaussianBlur
         inkscape:collect="always"
         stdDeviation="1.223301"
         id="feGaussianBlur3796" />
    </filter>
    <linearGradient
       inkscape:collect="always"
       xlink:href="#linearGradient3007"
       id="linearGradient3853"
       gradientUnits="userSpaceOnUse"
       x1="38.799999"
       y1="-24"
       x2="38.799999"
       y2="-45"
       gradientTransform="matrix(0.95238095,0,0,0.95238095,1.047619,-1.1428571)"
       spreadMethod="reflect" />
    <linearGradient
       inkscape:collect="always"
       xlink:href="#linearGradient3017"
       id="linearGradient3015"
       gradientUnits="userSpaceOnUse"
       gradientTransform="matrix(0,0.95238095,-0.95238095,0,1.1428571,1.047619)"
       x1="7.3000002"
       y1="-24"
       x2="34.599998"
       y2="-24" />
    <filter
       inkscape:collect="always"
       id="filter4270"
       x="-0.36564852"
       width="1.731297"
       y="-0.73129704"
       height="2.4625941">
      <feGaussianBlur
         inkscape:collect="always"
         stdDeviation="0.3047071"
         id="feGaussianBlur4272" />
    </filter>
  </defs>
  <sodipodi:namedview
     id="base"
     pagecolor="#ffffff"
     bordercolor="#666666"
     borderopacity="1.0"
     inkscape:pageopacity="0.0"
     inkscape:pageshadow="2"
     inkscape:zoom="16.645833"
     inkscape:cx="24"
     inkscape:cy="24"
     inkscape:current-layer="layer1"
     showgrid="true"
     inkscape:grid-bbox="true"
     inkscape:document-units="px"
     inkscape:window-width="1280"
     inkscape:window-height="987"
     inkscape:window-x="-2"
     inkscape:window-y="16"
     inkscape:window-maximized="1"
     showguides="true"
     inkscape:guide-bbox="true"
     inkscape:snap-global="true">
    <inkscape:grid
       type="xygrid"
       id="grid3828" />
  </sodipodi:namedview>
  <metadata
     id="metadata3726">
    <rdf:RDF>
      <cc:Work
         rdf:about="">
        <dc:format>image/svg+xml</dc:format>
        <dc:type
           rdf:resource="http://purl.org/dc/dcmitype/StillImage" />
        <dc:title />
      </cc:Work>
    </rdf:RDF>
  </metadata>
  <g
     id="layer1"
     inkscape:label="Layer 1"
     inkscape:groupmode="layer">
    <rect
       style="opacity:0.48936169;fill:none;stroke:none"
       id="border"
       width="48"
       height="48"
       x="0"
       y="0" />
    <rect
       ry="5"
       rx="5"
       y="3"
       x="3"
       height="42"
       width="42"
       id="rect3000"
       style="fill:#333333;fill-opacity:1;stroke:none;filter:url(#filter3794)"
       transform="matrix(0,1,-1,0,48,0)" />
    <path
       transform="matrix(0,1,-1,0,0,0)"
       style="fill:url(#linearGradient3853);fill-opacity:1.0;stroke:none"
       d="m 6,-44 32,0 c 2,0 4,2 4,4 l 0,32 c 0,2 -2,4 -4,4 L 6,-4 C 4,-4 2,-6 2,-8 l 0,-32 c 0,-2 2,-4 4,-4 z"
       id="rect2995"
       inkscape:connector-curvature="0"
       sodipodi:nodetypes="sssssssss" />
    <path
       id="path3811"
       d="M 8,1 C 5,1 3,3 3,6 l 0,32 c 0,3 2,5 5,5 l 32,0 c 3,0 5,-2 5,-5 L 45,6 C 45,3 43,1 40,1 z m 0,1 32,0 c 2,0 4,2 4,4 l 0,32 c 0,2 -2,4 -4,4 L 8,42 C 6,42 4,40 4,38 L 4,6 C 4,4 6,2 8,2 z"
       style="fill:#333333;fill-opacity:1;stroke:none"
       inkscape:connector-curvature="0"
       sodipodi:nodetypes="ssssccccscccccsssc" />
    <path
       id="path3062"
       d="m 43,32 0,6 c 0,2 -2,3 -3,3 L 8,41 C 7,41 5,40 5,38 l 0,-6 -1,0 0,6 c 0,2 2,4 4,4 l 32,0 c 2,0 4,-2 4,-4 l 0,-6 z"
       style="fill:#cccccc;fill-opacity:1;stroke:none"
       inkscape:connector-curvature="0"
       sodipodi:nodetypes="cccssccsscccc" />
    <path
       sodipodi:nodetypes="sssssssss"
       inkscape:connector-curvature="0"
       id="path3013"
       d="m 44,6 0,28 c 0,2 -2,4 -4,4 L 8,38 C 6,38 4,36 4,34 L 4,6 C 4,4 6,2 8,2 l 32,0 c 2,0 4,2 4,4 z"
       style="fill:url(#linearGradient3015);fill-opacity:1;stroke:none" />
    <path
       sodipodi:nodetypes="csssscccccccccccsssccc"
       inkscape:connector-curvature="0"
       style="opacity:0.75;fill:#ffffff;fill-opacity:1;stroke:none"
       d="M 14,2 8,2 C 6,2 4,4 4,6 l 0,28 c 0,2 2,4 4,4 l 32,0 c 2,0 4,-2 4,-4 L 44,6 C 44,4 42,2 40,2 l -6,0 z m 20,1 6,0 c 1,0 3,1 3,3 l 0,28 c 0,2 -2,3 -3,3 L 8,37 C 7,37 5,36 5,34 L 5,6 C 5,4 7,3 8,3 l 6,0 z"
       id="path3023" />
    <path
       id="path3039"
       d="m 38,37 2,0 c 1,0 3,-1 3,-3 L 43,6 C 43,4 41,3 40,3 L 35,3 13,3 8,3 C 7,3 5,4 5,6 l 0,28 c 0,2 2,3 3,3 l 25,0 0,-1 -24,0 C 7,36 6,35 6,33 L 6,7 C 6,5 7,4 9,4 l 4,0 22,0 4,0 c 2,0 3,1 3,3 l 0,26 c 0,2 -1,3 -3,3 l -1,0 z"
       style="opacity:0.5;fill:#cccccc;fill-opacity:1;stroke:none"
       inkscape:connector-curvature="0"
       sodipodi:nodetypes="cccccccssssccsssccccccccc" />
    <rect
       y="38"
       x="-13"
       height="3"
       width="1"
       id="rect4230"
       style="opacity:0.4;fill:#ffffff;fill-opacity:1;stroke:none"
       transform="scale(-1,1)" />
    <rect
       y="38"
       x="-12"
       height="3"
       width="1"
       id="rect4232"
       style="opacity:0.5;fill:#000000;fill-opacity:1;stroke:none"
       transform="scale(-1,1)" />
    <rect
       style="opacity:0.4;fill:#ffffff;fill-opacity:1;stroke:none"
       id="rect4234"
       width="1"
       height="3"
       x="-11"
       y="38"
       transform="scale(-1,1)" />
    <rect
       style="opacity:0.5;fill:#000000;fill-opacity:1;stroke:none"
       id="rect4236"
       width="1"
       height="3"
       x="-10"
       y="38"
       transform="scale(-1,1)" />
    <rect
       y="38"
       x="-9"
       height="3"
       width="1"
       id="rect4238"
       style="opacity:0.4;fill:#ffffff;fill-opacity:1;stroke:none"
       transform="scale(-1,1)" />
    <rect
       y="38"
       x="-8"
       height="3"
       width="1"
       id="rect4240"
       style="opacity:0.5;fill:#000000;fill-opacity:1;stroke:none"
       transform="scale(-1,1)" />
    <rect
       y="-37.843525"
       x="37.151733"
       height="5"
       width="5"
       id="rect4274"
       style="fill:#cccccc;fill-opacity:1;stroke:none"
       transform="matrix(0.00410955,0.99999156,-0.99999156,0.00410955,0,0)" />
    <rect
       style="fill:#445500;fill-opacity:1;stroke:none"
       id="rect4244"
       width="4"
       height="3"
       x="38.151733"
       y="-36.843525"
       transform="matrix(0.00410955,0.99999156,-0.99999156,0.00410955,0,0)" />
    <rect
       style="opacity:0.97021275;fill:#ccff00;fill-opacity:1;stroke:none;filter:url(#filter4270)"
       id="rect4248"
       width="2"
       height="1"
       x="31"
       y="39"
       transform="matrix(0.00410955,0.99999156,-0.99999156,0.00410955,74.876391,7.8440905)" />
    <rect
       y="-35.843525"
       x="39.151733"
       height="1"
       width="2"
       id="rect4246"
       style="fill:#ccff00;fill-opacity:1;stroke:none"
       transform="matrix(0.00410955,0.99999156,-0.99999156,0.00410955,0,0)" />
    <rect
       y="36"
       x="33.045277"
       height="1"
       width="4.9547219"
       id="rect4288"
       style="opacity:0.75;fill:#ffffff;fill-opacity:1;stroke:none" />
    <rect
       style="opacity:0.5;fill:#cccccc;fill-opacity:1;stroke:none"
       id="rect4290"
       width="5.0000024"
       height="0.99999356"
       x="33"
       y="35" />
    <path
       id="path4300"
       d="m 32.701806,11.020307 -1.232335,4.064269 -1.013051,-1.071205 -13.557458,13.098257 5.22547,0.183733 c 0.391606,-0.04052 0.802662,-0.20066 1.111517,-0.485926 1.223207,-1.181776 1.949896,-1.883258 2.217722,-2.141113 -0.297492,-0.681319 -0.156197,-1.517053 0.422568,-2.076214 0.732173,-0.707375 1.877193,-0.698987 2.556246,0.01905 0.679348,0.718344 0.635845,1.8746 -0.09639,2.582025 -0.578764,0.55916 -1.410956,0.66434 -2.070536,0.333639 l -2.190666,2.11716 c -0.593818,0.573706 -1.518101,0.855472 -2.268238,0.863669 0.02134,6.73e-4 0.04376,0.0017 -8.34e-4,4.06e-4 -0.01715,-0.0011 -5.543772,-0.194646 -5.543772,-0.194646 -0.390883,0.04031 -0.801042,0.201084 -1.109883,0.485938 l -1.533685,1.481741 c 0.73609,1.189712 0.549092,2.802443 -0.524147,3.83933 -1.223629,1.182185 -3.1350743,1.168097 -4.2691708,-0.03111 -1.1344406,-1.199557 -1.062194,-3.130247 0.1614363,-4.312431 1.0734525,-1.037092 2.6764495,-1.152538 3.8198605,-0.35486 l 1.506812,-1.45577 c 0.0039,-0.0037 0.0076,-0.0077 0.01166,-0.01126 l 3.332796,-3.219911 c 0.294398,-0.298945 0.471334,-0.705579 0.528399,-1.098443 0,0 0.05761,-5.58821 0.0574,-5.605913 4.03e-4,-0.04484 7.17e-4,-0.02199 1.7e-5,-4.14e-4 0.042,-0.756995 0.362627,-1.677591 0.956552,-2.251398 l 2.111935,-2.039508 -0.824525,-0.871859 2.653148,-2.563283 2.45952,2.600709 -2.653147,2.563285 -0.823443,-0.870715 c 0,0 -0.555281,0.53819 -2.136515,2.065866 -0.295941,0.299032 -0.473274,0.706961 -0.530874,1.10044 l -0.0542,5.285571 10.242009,-9.895099 -1.014673,-1.072918 4.072393,-1.061178 z"
       inkscape:connector-curvature="0"
       style="opacity:0.5;fill:#ffffff;fill-opacity:1"
       inkscape:transform-center-x="-12.407152"
       inkscape:transform-center-y="-12.280046" />
    <path
       inkscape:transform-center-y="-12.280046"
       inkscape:transform-center-x="-12.407152"
       style="opacity:1;fill:#333333"
       inkscape:connector-curvature="0"
       d="m 32.701806,10.050061 -1.232335,4.064269 -1.013051,-1.071205 -13.557458,13.098257 5.22547,0.183733 c 0.391606,-0.04052 0.802662,-0.20066 1.111517,-0.485926 1.223207,-1.181776 1.949896,-1.883258 2.217722,-2.141113 -0.297492,-0.681319 -0.156197,-1.517053 0.422568,-2.076214 0.732173,-0.707375 1.877193,-0.698987 2.556246,0.01905 0.679348,0.718344 0.635845,1.8746 -0.09639,2.582025 -0.578764,0.55916 -1.410956,0.66434 -2.070536,0.333639 l -2.190666,2.11716 c -0.593818,0.573706 -1.518101,0.855472 -2.268238,0.863669 0.02134,6.73e-4 0.04376,0.0017 -8.34e-4,4.06e-4 -0.01715,-0.0011 -5.543772,-0.194646 -5.543772,-0.194646 -0.390883,0.04031 -0.801042,0.201084 -1.109883,0.485938 l -1.533685,1.481741 c 0.73609,1.189712 0.549092,2.802443 -0.524147,3.83933 -1.223629,1.182185 -3.1350741,1.168097 -4.2691708,-0.03111 -1.1344406,-1.199557 -1.062194,-3.130247 0.1614363,-4.312431 1.0734525,-1.037092 2.6764495,-1.152538 3.8198605,-0.35486 l 1.506812,-1.45577 c 0.0039,-0.0037 0.0076,-0.0077 0.01166,-0.01126 l 3.332796,-3.219911 c 0.294398,-0.298945 0.471334,-0.705579 0.528399,-1.098443 0,0 0.05761,-5.58821 0.0574,-5.605913 4.03e-4,-0.04484 7.17e-4,-0.02199 1.7e-5,-4.14e-4 0.042,-0.756995 0.362627,-1.677591 0.956552,-2.251398 l 2.111935,-2.039508 -0.824525,-0.871859 2.653148,-2.5632831 2.45952,2.6007091 -2.653147,2.563285 -0.823443,-0.870715 c 0,0 -0.555281,0.53819 -2.136515,2.065866 -0.295941,0.299032 -0.473274,0.706961 -0.530874,1.10044 l -0.0542,5.285571 10.242009,-9.895099 -1.014673,-1.072918 4.072393,-1.061178 z"
       id="path4294" />
  </g>
</svg>
