<?xml version="1.0" encoding="UTF-8" standalone="no"?>
<!-- Created with Inkscape (http://www.inkscape.org/) -->

<svg
   xmlns:dc="http://purl.org/dc/elements/1.1/"
   xmlns:cc="http://creativecommons.org/ns#"
   xmlns:rdf="http://www.w3.org/1999/02/22-rdf-syntax-ns#"
   xmlns:svg="http://www.w3.org/2000/svg"
   xmlns="http://www.w3.org/2000/svg"
   xmlns:xlink="http://www.w3.org/1999/xlink"
   xmlns:sodipodi="http://sodipodi.sourceforge.net/DTD/sodipodi-0.dtd"
   xmlns:inkscape="http://www.inkscape.org/namespaces/inkscape"
   width="48px"
   height="48px"
   id="svg3721"
   version="1.1"
   inkscape:version="0.48.0 r9654"
   sodipodi:docname="drive-removable-media.svg">
  <defs
     id="defs3723">
    <linearGradient
       inkscape:collect="always"
       id="linearGradient3017">
      <stop
         style="stop-color:#f2f2f2;stop-opacity:1"
         offset="0"
         id="stop3019" />
      <stop
         style="stop-color:#e6e6e6;stop-opacity:1"
         offset="1"
         id="stop3021" />
    </linearGradient>
    <linearGradient
       id="linearGradient3007"
       inkscape:collect="always">
      <stop
         id="stop3009"
         offset="0"
         style="stop-color:#b3b3b3;stop-opacity:1" />
      <stop
         id="stop3011"
         offset="1"
         style="stop-color:#999999;stop-opacity:1" />
    </linearGradient>
    <filter
       color-interpolation-filters="sRGB"
       inkscape:collect="always"
       id="filter3794">
      <feGaussianBlur
         inkscape:collect="always"
         stdDeviation="1.223301"
         id="feGaussianBlur3796" />
    </filter>
    <linearGradient
       inkscape:collect="always"
       xlink:href="#linearGradient3007"
       id="linearGradient3853"
       gradientUnits="userSpaceOnUse"
       x1="38.799999"
       y1="-24"
       x2="38.799999"
       y2="-45"
       gradientTransform="matrix(0.95238095,0,0,0.95238095,1.047619,-1.1428571)"
       spreadMethod="reflect" />
    <linearGradient
       inkscape:collect="always"
       xlink:href="#linearGradient3017"
       id="linearGradient3015"
       gradientUnits="userSpaceOnUse"
       gradientTransform="matrix(0,0.95238095,-0.95238095,0,1.1428571,1.047619)"
       x1="7.3000002"
       y1="-24"
       x2="34.599998"
       y2="-24" />
    <filter
       inkscape:collect="always"
       id="filter4270"
       x="-0.36564852"
       width="1.731297"
       y="-0.73129704"
       height="2.4625941">
      <feGaussianBlur
         inkscape:collect="always"
         stdDeviation="0.3047071"
         id="feGaussianBlur4272" />
    </filter>
  </defs>
  <sodipodi:namedview
     id="base"
     pagecolor="#ffffff"
     bordercolor="#666666"
     borderopacity="1.0"
     inkscape:pageopacity="0.0"
     inkscape:pageshadow="2"
     inkscape:zoom="16.645833"
     inkscape:cx="24"
     inkscape:cy="24"
     inkscape:current-layer="layer1"
     showgrid="true"
     inkscape:grid-bbox="true"
     inkscape:document-units="px"
     inkscape:window-width="1280"
     inkscape:window-height="987"
     inkscape:window-x="-2"
     inkscape:window-y="16"
     inkscape:window-maximized="1"
     showguides="true"
     inkscape:guide-bbox="true"
     inkscape:snap-global="true">
    <inkscape:grid
       type="xygrid"
       id="grid3828" />
  </sodipodi:namedview>
  <metadata
     id="metadata3726">
    <rdf:RDF>
      <cc:Work
         rdf:about="">
        <dc:format>image/svg+xml</dc:format>
        <dc:type
           rdf:resource="http://purl.org/dc/dcmitype/StillImage" />
        <dc:title />
      </cc:Work>
    </rdf:RDF>
  </metadata>
  <g
     id="layer1"
     inkscape:label="Layer 1"
     inkscape:groupmode="layer">
    <rect
       style="opacity:0.48936169;fill:none;stroke:none"
       id="border"
       width="48"
       height="48"
       x="0"
       y="0" />
    <rect
       ry="5"
       rx="5"
       y="3"
       x="3"
       height="42"
       width="42"
       id="rect3000"
       style="fill:#333333;fill-opacity:1;stroke:none;filter:url(#filter3794)"
       transform="matrix(0,1,-1,0,48,0)" />
    <path
       transform="matrix(0,1,-1,0,0,0)"
       style="fill:url(#linearGradient3853);fill-opacity:1.0;stroke:none"
       d="m 6,-44 32,0 c 2,0 4,2 4,4 l 0,32 c 0,2 -2,4 -4,4 L 6,-4 C 4,-4 2,-6 2,-8 l 0,-32 c 0,-2 2,-4 4,-4 z"
       id="rect2995"
       inkscape:connector-curvature="0"
       sodipodi:nodetypes="sssssssss" />
    <path
       id="path3811"
       d="M 8,1 C 5,1 3,3 3,6 l 0,32 c 0,3 2,5 5,5 l 32,0 c 3,0 5,-2 5,-5 L 45,6 C 45,3 43,1 40,1 z m 0,1 32,0 c 2,0 4,2 4,4 l 0,32 c 0,2 -2,4 -4,4 L 8,42 C 6,42 4,40 4,38 L 4,6 C 4,4 6,2 8,2 z"
       style="fill:#333333;fill-opacity:1;stroke:none"
       inkscape:connector-curvature="0"
       sodipodi:nodetypes="ssssccccscccccsssc" />
    <path
       id="path3062"
       d="m 43,32 0,6 c 0,2 -2,3 -3,3 L 8,41 C 7,41 5,40 5,38 l 0,-6 -1,0 0,6 c 0,2 2,4 4,4 l 32,0 c 2,0 4,-2 4,-4 l 0,-6 z"
       style="fill:#cccccc;fill-opacity:1;stroke:none"
       inkscape:connector-curvature="0"
       sodipodi:nodetypes="cccssccsscccc" />
    <path
       sodipodi:nodetypes="sssssssss"
       inkscape:connector-curvature="0"
       id="path3013"
       d="m 44,6 0,28 c 0,2 -2,4 -4,4 L 8,38 C 6,38 4,36 4,34 L 4,6 C 4,4 6,2 8,2 l 32,0 c 2,0 4,2 4,4 z"
       style="fill:url(#linearGradient3015);fill-opacity:1;stroke:none" />
    <path
       sodipodi:nodetypes="csssscccccccccccsssccc"
       inkscape:connector-curvature="0"
       style="opacity:0.75;fill:#ffffff;fill-opacity:1;stroke:none"
       d="M 14,2 8,2 C 6,2 4,4 4,6 l 0,28 c 0,2 2,4 4,4 l 32,0 c 2,0 4,-2 4,-4 L 44,6 C 44,4 42,2 40,2 l -6,0 z m 20,1 6,0 c 1,0 3,1 3,3 l 0,28 c 0,2 -2,3 -3,3 L 8,37 C 7,37 5,36 5,34 L 5,6 C 5,4 7,3 8,3 l 6,0 z"
       id="path3023" />
    <path
       id="path3039"
       d="m 38,37 2,0 c 1,0 3,-1 3,-3 L 43,6 C 43,4 41,3 40,3 L 35,3 13,3 8,3 C 7,3 5,4 5,6 l 0,28 c 0,2 2,3 3,3 l 25,0 0,-1 -24,0 C 7,36 6,35 6,33 L 6,7 C 6,5 7,4 9,4 l 4,0 22,0 4,0 c 2,0 3,1 3,3 l 0,26 c 0,2 -1,3 -3,3 l -1,0 z"
       style="opacity:0.5;fill:#cccccc;fill-opacity:1;stroke:none"
       inkscape:connector-curvature="0"
       sodipodi:nodetypes="cccccccssssccsssccccccccc" />
    <rect
       y="38"
       x="-13"
       height="3"
       width="1"
       id="rect4230"
       style="opacity:0.4;fill:#ffffff;fill-opacity:1;stroke:none"
       transform="scale(-1,1)" />
    <rect
       y="38"
       x="-12"
       height="3"
       width="1"
       id="rect4232"
       style="opacity:0.5;fill:#000000;fill-opacity:1;stroke:none"
       transform="scale(-1,1)" />
    <rect
       style="opacity:0.4;fill:#ffffff;fill-opacity:1;stroke:none"
       id="rect4234"
       width="1"
       height="3"
       x="-11"
       y="38"
       transform="scale(-1,1)" />
    <rect
       style="opacity:0.5;fill:#000000;fill-opacity:1;stroke:none"
       id="rect4236"
       width="1"
       height="3"
       x="-10"
       y="38"
       transform="scale(-1,1)" />
    <rect
       y="38"
       x="-9"
       height="3"
       width="1"
       id="rect4238"
       style="opacity:0.4;fill:#ffffff;fill-opacity:1;stroke:none"
       transform="scale(-1,1)" />
    <rect
       y="38"
       x="-8"
       height="3"
       width="1"
       id="rect4240"
       style="opacity:0.5;fill:#000000;fill-opacity:1;stroke:none"
       transform="scale(-1,1)" />
    <rect
       y="-37.843525"
       x="37.151733"
       height="5"
       width="5"
       id="rect4274"
       style="fill:#cccccc;fill-opacity:1;stroke:none"
       transform="matrix(0.00410955,0.99999156,-0.99999156,0.00410955,0,0)" />
    <rect
       style="fill:#445500;fill-opacity:1;stroke:none"
       id="rect4244"
       width="4"
       height="3"
       x="38.151733"
       y="-36.843525"
       transform="matrix(0.00410955,0.99999156,-0.99999156,0.00410955,0,0)" />
    <rect
       style="opacity:0.97021275;fill:#ccff00;fill-opacity:1;stroke:none;filter:url(#filter4270)"
       id="rect4248"
       width="2"
       height="1"
       x="31"
       y="39"
       transform="matrix(0.00410955,0.99999156,-0.99999156,0.00410955,74.876391,7.8440905)" />
    <rect
       y="-35.843525"
       x="39.151733"
       height="1"
       width="2"
       id="rect4246"
       style="fill:#ccff00;fill-opacity:1;stroke:none"
       transform="matrix(0.00410955,0.99999156,-0.99999156,0.00410955,0,0)" />
    <rect
       y="36"
       x="33.045277"
       height="1"
       width="4.9547219"
       id="rect4288"
       style="opacity:0.75;fill:#ffffff;fill-opacity:1;stroke:none" />
    <rect
       style="opacity:0.5;fill:#cccccc;fill-opacity:1;stroke:none"
       id="rect4290"
       width="5.0000024"
       height="0.99999356"
       x="33"
       y="35" />
  </g>
</svg>
