<?xml version="1.0" encoding="UTF-8" standalone="no"?>
<!-- Created with Inkscape (http://www.inkscape.org/) -->

<svg
   xmlns:dc="http://purl.org/dc/elements/1.1/"
   xmlns:cc="http://creativecommons.org/ns#"
   xmlns:rdf="http://www.w3.org/1999/02/22-rdf-syntax-ns#"
   xmlns:svg="http://www.w3.org/2000/svg"
   xmlns="http://www.w3.org/2000/svg"
   xmlns:xlink="http://www.w3.org/1999/xlink"
   xmlns:sodipodi="http://sodipodi.sourceforge.net/DTD/sodipodi-0.dtd"
   xmlns:inkscape="http://www.inkscape.org/namespaces/inkscape"
   width="48px"
   height="48px"
   id="svg3721"
   version="1.1"
   inkscape:version="0.48.0 r9654"
   sodipodi:docname="drive-harddisk.svg">
  <defs
     id="defs3723">
    <linearGradient
       id="linearGradient3834"
       inkscape:collect="always">
      <stop
         id="stop3836"
         offset="0"
         style="stop-color:#000000;stop-opacity:1;" />
      <stop
         id="stop3838"
         offset="1"
         style="stop-color:#000000;stop-opacity:0.1" />
    </linearGradient>
    <linearGradient
       inkscape:collect="always"
       id="linearGradient3812">
      <stop
         style="stop-color:#ffffff;stop-opacity:1;"
         offset="0"
         id="stop3814" />
      <stop
         style="stop-color:#ffffff;stop-opacity:0;"
         offset="1"
         id="stop3816" />
    </linearGradient>
    <linearGradient
       inkscape:collect="always"
       id="linearGradient3017">
      <stop
         style="stop-color:#f2f2f2;stop-opacity:1"
         offset="0"
         id="stop3019" />
      <stop
         style="stop-color:#e6e6e6;stop-opacity:1"
         offset="1"
         id="stop3021" />
    </linearGradient>
    <linearGradient
       id="linearGradient3007"
       inkscape:collect="always">
      <stop
         id="stop3009"
         offset="0"
         style="stop-color:#b3b3b3;stop-opacity:1" />
      <stop
         id="stop3011"
         offset="1"
         style="stop-color:#999999;stop-opacity:1" />
    </linearGradient>
    <filter
       color-interpolation-filters="sRGB"
       inkscape:collect="always"
       id="filter3794">
      <feGaussianBlur
         inkscape:collect="always"
         stdDeviation="1.223301"
         id="feGaussianBlur3796" />
    </filter>
    <linearGradient
       inkscape:collect="always"
       xlink:href="#linearGradient3007"
       id="linearGradient3853"
       gradientUnits="userSpaceOnUse"
       x1="38.799999"
       y1="-24"
       x2="38.799999"
       y2="-45"
       gradientTransform="matrix(0.95238095,0,0,0.95238095,1.047619,-1.1428571)"
       spreadMethod="reflect" />
    <linearGradient
       inkscape:collect="always"
       xlink:href="#linearGradient3017"
       id="linearGradient3015"
       gradientUnits="userSpaceOnUse"
       gradientTransform="matrix(0,0.95238095,-0.95238095,0,1.1428571,1.047619)"
       x1="7.3000002"
       y1="-24"
       x2="34.599998"
       y2="-24" />
    <linearGradient
       inkscape:collect="always"
       xlink:href="#linearGradient3812"
       id="linearGradient3818"
       x1="9"
       y1="40.5"
       x2="25"
       y2="40.5"
       gradientUnits="userSpaceOnUse"
       gradientTransform="translate(0,-2)" />
    <radialGradient
       inkscape:collect="always"
       xlink:href="#linearGradient3834"
       id="radialGradient3832"
       cx="9"
       cy="44.333332"
       fx="9"
       fy="44.333332"
       r="8"
       gradientTransform="matrix(1.625,5.9604645e-8,-1.3754918e-8,0.375,-5.6249994,23.374999)"
       gradientUnits="userSpaceOnUse" />
  </defs>
  <sodipodi:namedview
     id="base"
     pagecolor="#ffffff"
     bordercolor="#666666"
     borderopacity="1.0"
     inkscape:pageopacity="0.0"
     inkscape:pageshadow="2"
     inkscape:zoom="16.645833"
     inkscape:cx="24"
     inkscape:cy="24"
     inkscape:current-layer="layer1"
     showgrid="true"
     inkscape:grid-bbox="true"
     inkscape:document-units="px"
     inkscape:window-width="1280"
     inkscape:window-height="987"
     inkscape:window-x="-2"
     inkscape:window-y="16"
     inkscape:window-maximized="1"
     showguides="true"
     inkscape:guide-bbox="true">
    <inkscape:grid
       type="xygrid"
       id="grid3828" />
  </sodipodi:namedview>
  <metadata
     id="metadata3726">
    <rdf:RDF>
      <cc:Work
         rdf:about="">
        <dc:format>image/svg+xml</dc:format>
        <dc:type
           rdf:resource="http://purl.org/dc/dcmitype/StillImage" />
        <dc:title />
      </cc:Work>
    </rdf:RDF>
  </metadata>
  <g
     id="layer1"
     inkscape:label="Layer 1"
     inkscape:groupmode="layer">
    <rect
       style="opacity:0.48936169;fill:none;stroke:none"
       id="border"
       width="48"
       height="48"
       x="0"
       y="0" />
    <rect
       ry="5"
       rx="5"
       y="3"
       x="3"
       height="42"
       width="42"
       id="rect3000"
       style="fill:#333333;fill-opacity:1;stroke:none;filter:url(#filter3794)"
       transform="matrix(0,1,-1,0,48,0)" />
    <path
       transform="matrix(0,1,-1,0,0,0)"
       style="fill:url(#linearGradient3853);fill-opacity:1.0;stroke:none"
       d="m 6,-44 32,0 c 2,0 4,2 4,4 l 0,32 c 0,2 -2,4 -4,4 L 6,-4 C 4,-4 2,-6 2,-8 l 0,-32 c 0,-2 2,-4 4,-4 z"
       id="rect2995"
       inkscape:connector-curvature="0"
       sodipodi:nodetypes="sssssssss" />
    <path
       id="path3811"
       d="M 8,1 C 5,1 3,3 3,6 l 0,32 c 0,3 2,5 5,5 l 32,0 c 3,0 5,-2 5,-5 L 45,6 C 45,3 43,1 40,1 z m 0,1 32,0 c 2,0 4,2 4,4 l 0,32 c 0,2 -2,4 -4,4 L 8,42 C 6,42 4,40 4,38 L 4,6 C 4,4 6,2 8,2 z"
       style="fill:#333333;fill-opacity:1;stroke:none"
       inkscape:connector-curvature="0"
       sodipodi:nodetypes="ssssccccscccccsssc" />
    <path
       id="path3062"
       d="m 43,32 0,6 c 0,2 -2,3 -3,3 L 8,41 C 7,41 5,40 5,38 l 0,-6 -1,0 0,6 c 0,2 2,4 4,4 l 32,0 c 2,0 4,-2 4,-4 l 0,-6 z"
       style="fill:#cccccc;fill-opacity:1;stroke:none"
       inkscape:connector-curvature="0"
       sodipodi:nodetypes="cccssccsscccc" />
    <path
       sodipodi:nodetypes="sssssssss"
       inkscape:connector-curvature="0"
       id="path3013"
       d="m 44,6 0,28 c 0,2 -2,4 -4,4 L 8,38 C 6,38 4,36 4,34 L 4,6 C 4,4 6,2 8,2 l 32,0 c 2,0 4,2 4,4 z"
       style="fill:url(#linearGradient3015);fill-opacity:1;stroke:none" />
    <path
       sodipodi:nodetypes="cccccssscccsssscccccc"
       inkscape:connector-curvature="0"
       style="fill:#ffffff;fill-opacity:1;stroke:none;opacity:0.75"
       d="m 34,3 6,0 c 1,0 3,1 3,3 l 0,28 c 0,2 -2,3 -3,3 L 8,37 C 7,37 5,36 5,34 L 5,6 C 5,4 7,3 8,3 L 14,3 14,2 8,2 C 6,2 4,4 4,6 l 0,28 c 0,2 2,4 4,4 l 32,0 c 2,0 4,-2 4,-4 L 44,6 C 44,4 42,2 40,2 l -6,0 z"
       id="path3023" />
    <path
       id="path3039"
       d="m 35,4 4,0 c 2,0 3,1 3,3 l 0,26 c 0,2 -1,3 -3,3 L 9,36 C 7,36 6,35 6,33 L 6,7 C 6,5 7,4 9,4 L 13,4 13,3 8,3 C 7,3 5,4 5,6 l 0,28 c 0,2 2,3 3,3 l 32,0 c 1,0 3,-1 3,-3 L 43,6 C 43,4 41,3 40,3 l -5,0 z"
       style="opacity:0.5;fill:#cccccc;fill-opacity:1;stroke:none"
       inkscape:connector-curvature="0"
       sodipodi:nodetypes="cccccssscccsssscccccc" />
    <g
       id="g3899">
      <path
         transform="matrix(2,0,0,2,-7,-4)"
         d="M 9,6 C 9,6.5522847 8.5522847,7 8,7 7.4477153,7 7,6.5522847 7,6 7,5.4477153 7.4477153,5 8,5 8.5522847,5 9,5.4477153 9,6 z"
         sodipodi:ry="1"
         sodipodi:rx="1"
         sodipodi:cy="6"
         sodipodi:cx="8"
         id="path3895"
         style="fill:#cccccc;fill-opacity:1;stroke:none"
         sodipodi:type="arc" />
      <path
         sodipodi:type="arc"
         style="fill:#999999;fill-opacity:1;stroke:none"
         id="path3891"
         sodipodi:cx="8"
         sodipodi:cy="6"
         sodipodi:rx="1"
         sodipodi:ry="1"
         d="M 9,6 C 9,6.5522847 8.5522847,7 8,7 7.4477153,7 7,6.5522847 7,6 7,5.4477153 7.4477153,5 8,5 8.5522847,5 9,5.4477153 9,6 z"
         transform="matrix(2,0,0,2,-7,-5)" />
      <path
         transform="matrix(1.5,0,0,1.5,-3,-2)"
         d="M 9,6 C 9,6.5522847 8.5522847,7 8,7 7.4477153,7 7,6.5522847 7,6 7,5.4477153 7.4477153,5 8,5 8.5522847,5 9,5.4477153 9,6 z"
         sodipodi:ry="1"
         sodipodi:rx="1"
         sodipodi:cy="6"
         sodipodi:cx="8"
         id="path3889"
         style="fill:#f9f9f9;fill-opacity:1;stroke:none"
         sodipodi:type="arc" />
      <path
         style="fill:none;stroke:#000000;stroke-width:0.25000000000000000;stroke-linecap:round;stroke-linejoin:round;stroke-miterlimit:4;stroke-opacity:1;stroke-dasharray:none;stroke-dashoffset:0"
         d="m 8,6 2,2"
         id="path3948"
         inkscape:connector-curvature="0"
         sodipodi:nodetypes="cc" />
    </g>
    <use
       x="0"
       y="0"
       xlink:href="#g3899"
       id="use3942"
       transform="translate(0,25)"
       width="48"
       height="48" />
    <use
       x="0"
       y="0"
       xlink:href="#g3899"
       id="use3944"
       transform="translate(30,0)"
       width="48"
       height="48" />
    <use
       x="0"
       y="0"
       xlink:href="#g3899"
       id="use3946"
       transform="translate(30,25)"
       width="48"
       height="48" />
    <rect
       ry="0"
       y="39"
       x="9"
       height="2"
       width="16"
       id="rect3036"
       style="fill:url(#radialGradient3832);fill-opacity:1;stroke:none" />
    <rect
       style="opacity:0.5;fill:url(#linearGradient3818);fill-opacity:1;stroke:none"
       id="rect3808"
       width="16"
       height="1"
       x="9"
       y="38" />
    <rect
       style="opacity:0.5;fill:#ffffff;fill-opacity:1;stroke:none"
       id="rect3810"
       width="1"
       height="3"
       x="8"
       y="38" />
    <rect
       style="opacity:0.4;fill:#ffffff;fill-opacity:1;stroke:none"
       id="rect3820"
       width="1"
       height="2"
       x="34"
       y="39" />
    <rect
       style="opacity:0.5;fill:#000000;fill-opacity:1;stroke:none"
       id="rect3822"
       width="1"
       height="2"
       x="35"
       y="39" />
    <rect
       y="39"
       x="36"
       height="2"
       width="1"
       id="rect3824"
       style="opacity:0.4;fill:#ffffff;fill-opacity:1;stroke:none" />
    <rect
       y="39"
       x="37"
       height="2"
       width="1"
       id="rect3826"
       style="opacity:0.5;fill:#000000;fill-opacity:1;stroke:none" />
    <rect
       style="opacity:0.4;fill:#ffffff;fill-opacity:1;stroke:none"
       id="rect3828"
       width="1"
       height="2"
       x="38"
       y="39" />
    <rect
       style="opacity:0.5;fill:#000000;fill-opacity:1;stroke:none"
       id="rect3830"
       width="1"
       height="2"
       x="39"
       y="39" />
    <path
       style="fill:#cccccc;fill-opacity:1;stroke:none;opacity:0.5"
       d="m 12,22 c 0,6 6,10 12,10 6,0 12,-4 12,-10 L 36,4 35,4 35,21 C 35,27 30,31 24,31 18,31 13,27 13,21 L 13,4 12,4 z"
       id="path3076"
       inkscape:connector-curvature="0"
       sodipodi:nodetypes="csccccscccc"
       inkscape:transform-center-y="-4" />
    <path
       style="opacity:0.25;fill:#000000;fill-opacity:1;stroke:none"
       d="m 14,20 c 0,6 4,10 10,10 6,0 10,-4 10,-10 l 0,-18 -1,0 0,18 c 0,5 -4.029437,9 -9,9 -4.970563,0 -9,-4 -9,-9 L 15,2 14,2 z"
       id="path3067"
       inkscape:connector-curvature="0"
       sodipodi:nodetypes="csccccscccc"
       inkscape:transform-center-y="-4" />
    <path
       sodipodi:nodetypes="ssssssssss"
       inkscape:connector-curvature="0"
       id="path3858"
       d="m 24,14 c -3,0 -5,2 -5,5 0,3 2,4.999996 5,4.999998 C 27,24 29,22 29,19 29,16 27,14 24,14 z m 0,1 c 2,0 4,2 4,4 0,2 -2,4 -4,4 -2,0 -4,-1.994904 -4,-4 0,-2 2,-4 4,-4 z"
       style="fill:#ffffff;fill-opacity:1;stroke:none" />
    <path
       style="opacity:0.25;fill:#000000;fill-opacity:1;stroke:none"
       d="m 24,15 c -2.209138,0 -3.999998,1.79086 -3.999998,3.999998 0,2.20914 1.79086,4 3.999998,4 2.20914,0 4,-1.79086 4,-4 C 28,16.79086 26.20914,15 24,15 z m 0,1.142857 c 1.577956,0 2.857143,1.279187 2.857143,2.857141 0,1.577956 -1.279187,2.857143 -2.857143,2.857143 -1.577954,0 -2.857141,-1.279187 -2.857141,-2.857143 0,-1.577954 1.279187,-2.857141 2.857141,-2.857141 z"
       id="path4017"
       inkscape:connector-curvature="0"
       sodipodi:nodetypes="ssssssssss" />
    <path
       inkscape:transform-center-y="-4"
       sodipodi:nodetypes="csccccscccc"
       inkscape:connector-curvature="0"
       id="path3072"
       d="m 13,21 c 0,6 5,10 11,10 6,0 11,-4 11,-10 L 35,2 34,2 34,20 C 34,26 30,30 24,30 18,30 14,26 14,20 L 14,2 13,2 z"
       style="opacity:0.75;fill:#ffffff;fill-opacity:1;stroke:none" />
    <path
       style="opacity:0.25;fill:#b1b1b1;fill-opacity:1;stroke:none"
       d="m 6,12 6,0 0,12 -6,0 0,-1 6,0 0,-10 -6,0 z"
       id="rect3887"
       inkscape:connector-curvature="0"
       sodipodi:nodetypes="ccccccccc" />
    <path
       sodipodi:nodetypes="ccccccccc"
       inkscape:connector-curvature="0"
       id="path3892"
       d="m 6,13 6,0 0,10 -6,0 0,-1 5,0 0,-8 -5,0 z"
       style="opacity:0.5;fill:#ffffff;fill-opacity:1;stroke:none" />
    <path
       style="opacity:0.25;fill:#000000;fill-opacity:1;stroke:none"
       d="m 6,14 5,0 0,8 -5,0 0,-1 4,0 0,-6 -4,0 z"
       id="path3896"
       inkscape:connector-curvature="0"
       sodipodi:nodetypes="ccccccccc" />
    <path
       sodipodi:nodetypes="ccccccccc"
       inkscape:connector-curvature="0"
       id="path3898"
       d="m 42,12 -6,0 0,12 6,0 0,-1 -6,0 0,-10 6,0 z"
       style="opacity:0.25;fill:#b1b1b1;fill-opacity:1;stroke:none" />
    <path
       style="opacity:0.5;fill:#ffffff;fill-opacity:1;stroke:none"
       d="m 42,13 -6,0 0,10 6,0 0,-1 -5,0 0,-8 5,0 z"
       id="path3900"
       inkscape:connector-curvature="0"
       sodipodi:nodetypes="ccccccccc" />
    <path
       sodipodi:nodetypes="ccccccccc"
       inkscape:connector-curvature="0"
       id="path3902"
       d="m 42,14 -5,0 0,8 5,0 0,-1 -4,0 0,-6 4,0 z"
       style="opacity:0.25;fill:#000000;fill-opacity:1;stroke:none" />
  </g>
</svg>
