<?xml version="1.0" encoding="UTF-8" standalone="no"?>
<!-- Created with Inkscape (http://www.inkscape.org/) -->

<svg
   xmlns:dc="http://purl.org/dc/elements/1.1/"
   xmlns:cc="http://creativecommons.org/ns#"
   xmlns:rdf="http://www.w3.org/1999/02/22-rdf-syntax-ns#"
   xmlns:svg="http://www.w3.org/2000/svg"
   xmlns="http://www.w3.org/2000/svg"
   xmlns:xlink="http://www.w3.org/1999/xlink"
   xmlns:sodipodi="http://sodipodi.sourceforge.net/DTD/sodipodi-0.dtd"
   xmlns:inkscape="http://www.inkscape.org/namespaces/inkscape"
   width="48px"
   height="48px"
   id="svg3721"
   version="1.1"
   inkscape:version="0.48.0 r9654"
   sodipodi:docname="folder-inbox.svg">
  <defs
     id="defs3723">
    <filter
       color-interpolation-filters="sRGB"
       inkscape:collect="always"
       id="filter3794">
      <feGaussianBlur
         inkscape:collect="always"
         stdDeviation="1.223301"
         id="feGaussianBlur3796" />
    </filter>
    <linearGradient
       inkscape:collect="always"
       id="linearGradient9555">
      <stop
         style="stop-color:#514641;stop-opacity:1;"
         offset="0"
         id="stop9557" />
      <stop
         style="stop-color:#302925;stop-opacity:1"
         offset="1"
         id="stop9559" />
    </linearGradient>
    <linearGradient
       inkscape:collect="always"
       id="linearGradient9353">
      <stop
         style="stop-color:#ac9d93;stop-opacity:1"
         offset="0"
         id="stop9355" />
      <stop
         style="stop-color:#917c6f;stop-opacity:1"
         offset="1"
         id="stop9357" />
    </linearGradient>
    <linearGradient
       inkscape:collect="always"
       xlink:href="#linearGradient9555"
       id="linearGradient3853"
       gradientUnits="userSpaceOnUse"
       x1="10"
       y1="-24"
       x2="38"
       y2="-46"
       gradientTransform="matrix(0.95238095,0,0,0.95238095,1.047619,-1.1428571)" />
    <filter
       id="filter4397-1-9"
       inkscape:collect="always"
       color-interpolation-filters="sRGB">
      <feGaussianBlur
         id="feGaussianBlur4399-4-2"
         stdDeviation="0.37050002"
         inkscape:collect="always" />
    </filter>
    <linearGradient
       inkscape:collect="always"
       xlink:href="#linearGradient4420-7-4"
       id="linearGradient3544-5"
       gradientUnits="userSpaceOnUse"
       gradientTransform="translate(-1.17642e-6,0.0361629)"
       x1="4.9705882"
       y1="-18.000002"
       x2="37.970592"
       y2="-18.000002" />
    <linearGradient
       id="linearGradient4420-7-4"
       inkscape:collect="always">
      <stop
         id="stop4422-4-0"
         offset="0"
         style="stop-color:#f2f2f2;stop-opacity:1" />
      <stop
         id="stop4424-3-5"
         offset="1"
         style="stop-color:#e6e6e6;stop-opacity:1" />
    </linearGradient>
    <linearGradient
       inkscape:collect="always"
       xlink:href="#linearGradient4428-2-9"
       id="linearGradient3546-6"
       gradientUnits="userSpaceOnUse"
       gradientTransform="matrix(0.99639378,0,0,1,0.0304801,-1.17642e-6)"
       x1="6.96"
       y1="21.470591"
       x2="18.48"
       y2="21.470591" />
    <linearGradient
       id="linearGradient4428-2-9"
       inkscape:collect="always">
      <stop
         id="stop4430-9-2"
         offset="0"
         style="stop-color:#f2f2f2;stop-opacity:1" />
      <stop
         id="stop4432-4-2"
         offset="1"
         style="stop-color:#e6e6e6;stop-opacity:1" />
    </linearGradient>
    <filter
       inkscape:collect="always"
       id="filter4416"
       x="-0.042114287"
       width="1.0842286"
       y="-0.15725011"
       height="1.3145002">
      <feGaussianBlur
         inkscape:collect="always"
         stdDeviation="0.59782435"
         id="feGaussianBlur4418" />
    </filter>
    <filter
       color-interpolation-filters="sRGB"
       inkscape:menu-tooltip="Invert colors"
       inkscape:menu="Color"
       height="1"
       width="1"
       y="0"
       x="0"
       inkscape:label="Invert"
       id="filter9392-8">
      <feColorMatrix
         result="fbSourceGraphic"
         values="1"
         type="saturate"
         id="feColorMatrix9394-2" />
      <feColorMatrix
         values="-1 0 0 0 1 0 -1 0 0 1 0 0 -1 0 1 0 0 0 1 0 "
         in="fbSourceGraphic"
         id="feColorMatrix9396-5" />
    </filter>
    <linearGradient
       id="linearGradient9353-8"
       inkscape:collect="always">
      <stop
         id="stop9355-1"
         offset="0"
         style="stop-color:#ac9d93;stop-opacity:1" />
      <stop
         id="stop9357-9"
         offset="1"
         style="stop-color:#917c6f;stop-opacity:1" />
    </linearGradient>
    <filter
       id="filter9388"
       inkscape:collect="always"
       color-interpolation-filters="sRGB">
      <feGaussianBlur
         id="feGaussianBlur9390"
         stdDeviation="0.48828125"
         inkscape:collect="always" />
    </filter>
    <linearGradient
       id="linearGradient9555-3"
       inkscape:collect="always">
      <stop
         id="stop9557-5"
         offset="0"
         style="stop-color:#514641;stop-opacity:1;" />
      <stop
         id="stop9559-7"
         offset="1"
         style="stop-color:#302925;stop-opacity:1" />
    </linearGradient>
    <filter
       id="filter3794-4"
       inkscape:collect="always"
       color-interpolation-filters="sRGB">
      <feGaussianBlur
         id="feGaussianBlur3796-5"
         stdDeviation="1.223301"
         inkscape:collect="always" />
    </filter>
    <radialGradient
       inkscape:collect="always"
       xlink:href="#linearGradient9353-8"
       id="radialGradient4807"
       gradientUnits="userSpaceOnUse"
       gradientTransform="matrix(-1.0868165,0.45576174,-0.72222219,-1.7222222,-2.73986,112.98)"
       cx="20"
       cy="14.571428"
       fx="20"
       fy="14.571428"
       r="18" />
    <linearGradient
       inkscape:collect="always"
       xlink:href="#linearGradient9555-3"
       id="linearGradient4811"
       gradientUnits="userSpaceOnUse"
       x1="10"
       y1="-24"
       x2="38"
       y2="-46"
       gradientTransform="matrix(0,1,-1,0,-102,76)" />
    <radialGradient
       inkscape:collect="always"
       xlink:href="#linearGradient9353"
       id="radialGradient4816"
       cx="34.351074"
       cy="-22.301998"
       fx="34.351074"
       fy="-22.301998"
       r="5"
       gradientTransform="matrix(-2.8284305,2.8284249,-2.8000001,-2.8000002,58.714026,-131.60503)"
       gradientUnits="userSpaceOnUse" />
    <radialGradient
       inkscape:collect="always"
       xlink:href="#linearGradient9353"
       id="radialGradient4845"
       cx="3.4011691"
       cy="-23.279999"
       fx="3.4011691"
       fy="-23.279999"
       r="2"
       gradientTransform="matrix(4.4999929,5.0000002,-4.7302886,4.2572685,-127.42633,58.103358)"
       gradientUnits="userSpaceOnUse" />
    <linearGradient
       inkscape:collect="always"
       xlink:href="#linearGradient4420-7-4"
       id="linearGradient3091"
       gradientUnits="userSpaceOnUse"
       gradientTransform="translate(-1.17642e-6,0.0361629)"
       x1="4.9705882"
       y1="-18.000002"
       x2="37.970592"
       y2="-18.000002" />
    <linearGradient
       inkscape:collect="always"
       xlink:href="#linearGradient4428-2-9"
       id="linearGradient3093"
       gradientUnits="userSpaceOnUse"
       gradientTransform="matrix(0.99639378,0,0,1,0.0304801,-1.17642e-6)"
       x1="6.96"
       y1="21.470591"
       x2="18.48"
       y2="21.470591" />
    <linearGradient
       inkscape:collect="always"
       xlink:href="#linearGradient4420-7-4"
       id="linearGradient3115"
       gradientUnits="userSpaceOnUse"
       gradientTransform="translate(-1.17642e-6,0.0361629)"
       x1="4.9705882"
       y1="-18.000002"
       x2="37.970592"
       y2="-18.000002" />
    <linearGradient
       inkscape:collect="always"
       xlink:href="#linearGradient4428-2-9"
       id="linearGradient3117"
       gradientUnits="userSpaceOnUse"
       gradientTransform="matrix(0.99639378,0,0,1,0.0304801,-1.17642e-6)"
       x1="6.96"
       y1="21.470591"
       x2="18.48"
       y2="21.470591" />
    <filter
       inkscape:collect="always"
       id="filter3891">
      <feGaussianBlur
         inkscape:collect="always"
         stdDeviation="0.429026"
         id="feGaussianBlur3893" />
    </filter>
  </defs>
  <sodipodi:namedview
     id="base"
     pagecolor="#ffffff"
     bordercolor="#666666"
     borderopacity="1.0"
     inkscape:pageopacity="0.0"
     inkscape:pageshadow="2"
     inkscape:zoom="2.9425954"
     inkscape:cx="58.962696"
     inkscape:cy="-6.1733698"
     inkscape:current-layer="layer1"
     showgrid="true"
     inkscape:grid-bbox="true"
     inkscape:document-units="px"
     inkscape:window-width="1280"
     inkscape:window-height="987"
     inkscape:window-x="-2"
     inkscape:window-y="16"
     inkscape:window-maximized="1">
    <inkscape:grid
       type="xygrid"
       id="grid3828" />
  </sodipodi:namedview>
  <metadata
     id="metadata3726">
    <rdf:RDF>
      <cc:Work
         rdf:about="">
        <dc:format>image/svg+xml</dc:format>
        <dc:type
           rdf:resource="http://purl.org/dc/dcmitype/StillImage" />
        <dc:title />
      </cc:Work>
    </rdf:RDF>
  </metadata>
  <g
     id="layer1"
     inkscape:label="Layer 1"
     inkscape:groupmode="layer">
    <rect
       style="opacity:0.48936169;fill:none;stroke:none"
       id="border"
       width="48"
       height="48"
       x="0"
       y="0" />
    <rect
       ry="5"
       rx="5"
       y="3"
       x="3"
       height="42"
       width="42"
       id="rect3000"
       style="fill:#241f1c;fill-opacity:1;stroke:none;filter:url(#filter3794)"
       transform="matrix(0,1,-1,0,48,0)" />
    <path
       transform="matrix(0,1,-1,0,0,0)"
       style="fill:url(#linearGradient3853);fill-opacity:1;stroke:none"
       d="m 6,-44 32,0 c 2,0 4,2 4,4 l 0,32 c 0,2 -2,4 -4,4 L 6,-4 C 4,-4 2,-6 2,-8 l 0,-32 c 0,-2 2,-4 4,-4 z"
       id="rect2995"
       inkscape:connector-curvature="0"
       sodipodi:nodetypes="sssssssss" />
    <path
       sodipodi:nodetypes="ccssc"
       inkscape:connector-curvature="0"
       id="path4839"
       d="M 6,-44 6,-4 C 4,-4 2,-6 2,-8 l 0,-32 c 0,-2 2,-4 4,-4 z"
       style="fill:url(#radialGradient4845);fill-opacity:1;stroke:none"
       transform="matrix(0,1,-1,0,0,0)" />
    <rect
       y="2"
       x="8"
       height="1"
       width="32"
       id="rect3899"
       style="fill:#ac9d93;fill-opacity:1;stroke:none" />
    <g
       transform="matrix(0,0.92632532,-0.9124399,0,43.645926,-1.4106026)"
       id="g3095">
      <path
         inkscape:connector-curvature="0"
         id="path3097"
         d="m 9.1601729,-31 29.8701301,0 c 1.714762,0 3.095238,1.380476 3.095238,3.095238 l 0,18.8095238 C 42.125541,-7.3804762 40.745065,-6 39.030303,-6 L 9.1601729,-6 c -1.7147618,0 -3.095238,-1.3804762 -3.095238,-3.0952382 l 0,-18.8095238 C 6.0649349,-29.619524 7.4454111,-31 9.1601729,-31 z"
         style="opacity:0.48899997;fill:#000000;fill-opacity:1;stroke:none;filter:url(#filter4397-1-9)"
         transform="matrix(0,0.97243857,-0.96,0,-0.76,-1.9019786)"
         sodipodi:nodetypes="sssssssss" />
      <path
         sodipodi:nodetypes="ssssssssssssssssss"
         inkscape:connector-curvature="0"
         id="path3099"
         d="M 10,4 C 7,4 6,5.7890411 6,8.0071454 L 6,35.025902 c 0,2.003575 1,4.03662 4,4.03662 l 16,0 c 3,0 4,-2.033047 4,-4.03662 L 30,8.0071454 C 30,6.0035727 29.000005,4 26,4 z m -0.036163,1.0308972 16.07,0 C 28,5.0308972 29,6.0326846 29,8.0362573 l 0,26.9896447 c 0,2.003573 -1,3.005359 -3,3.005359 l -16,0 c -2,0 -3,-0.999012 -3,-3.005359 L 7,8.0362573 C 7,6.0326766 8,5.0308972 9.963837,5.0308972 z"
         style="fill:#808080;fill-opacity:1;stroke:none" />
      <path
         sodipodi:nodetypes="sssssssss"
         inkscape:connector-curvature="0"
         id="path3101"
         d="m 8,-29 27,0 c 2,0 3,0.999997 3,3 l 0,16 c 0,2 -1,3 -3,3 L 8,-7 C 5.999992,-7 5.034715,-7.8069884 5.0308972,-9.8069844 L 5.000001,-25.992412 C 4.9961687,-27.999996 5.9999982,-29 8,-29 z"
         style="fill:url(#linearGradient3115);fill-opacity:1;stroke:none"
         transform="matrix(0,1,-1,0,0,0)" />
      <path
         sodipodi:nodetypes="ccsscc"
         inkscape:connector-curvature="0"
         id="path3103"
         d="M 18.443837,21.470589 10,38 C 8,38 7,37 7,35 L 7,8.0308972 c 0,-2.000008 1,-3 3,-3 z"
         style="fill:#e6e6e6;fill-opacity:1;stroke:none" />
      <path
         sodipodi:nodetypes="ccsccc"
         inkscape:connector-curvature="0"
         id="path3105"
         d="m 21.999996,-17.206915 17.066667,6.635768 c 0,1.6589419 -1.09899,2.4884128 -3.296969,2.4884128 l -27.4747478,0 c -2.1979798,0 -3.2286581,-0.7353417 -3.2286581,-2.3942838 z"
         style="opacity:0.75;fill:#000000;fill-opacity:1;stroke:none;filter:url(#filter4416)"
         transform="matrix(0,0.90992647,-1.2055877,0,-1.7444449,1.4522089)" />
      <path
         sodipodi:nodetypes="ccccccccccccc"
         inkscape:connector-curvature="0"
         id="path3107"
         d="m 8,5.9999989 0,1.0000002 15.963837,0 C 26,7 27,8 27,10 l 0,23 c 0,2 -1,3 -3.036163,2.999999 L 8,36 l 0,1 16.963837,-10e-7 c 2,0 3.072326,-0.999998 3.036163,-2.999999 L 28,9 C 28,7 27,6 24.963837,5.9999989 z"
         style="opacity:0.1039604;fill:#808080;fill-opacity:1;stroke:none" />
      <path
         style="fill:url(#linearGradient3117);fill-opacity:1;stroke:none"
         d="M 18.250821,21.501486 10,38 C 8,38 7,37 7,35 L 7,8.1246813 C 7,6.1246796 7.8069844,5.0308972 9.8069844,5.0308972 z"
         id="path3109"
         inkscape:connector-curvature="0"
         sodipodi:nodetypes="ccsscc" />
      <path
         sodipodi:nodetypes="cssccccccccc"
         inkscape:connector-curvature="0"
         id="path3111"
         d="M 9.8069844,5.029052 C 7.8069844,5.029052 7,6.0000009 7,8 l 0,27 c 0,2 1,3 3,3 L 18.443837,21.470589 z M 9,6 17.483837,21.470589 9,37 8,35 8,9 C 8,6 8,6 9,6 z"
         style="fill:#ffffff;fill-opacity:1;stroke:none" />
      <path
         sodipodi:nodetypes="ssssssssscsssssscc"
         inkscape:connector-curvature="0"
         id="path3113"
         d="M 9.8069844,5.029052 C 7.6479157,5.0329234 7,6.0331066 7,8.0331066 L 7,35 c 0,2 1,3.031261 3,3.031261 l 16,0 C 28.000003,38.031261 29,37 29,35 L 29,8.0331066 c 0,-2 -0.999998,-3.036676 -2.995598,-3.0330977 z m 0,1.0331066 L 25,6.0331066 c 2,-0.00382 3,1 3,3 L 28,34 c 0,2 -0.999984,3 -3,3 L 11,37 C 9,37 8,36 8,34 L 8,9.0331066 c 0,-2 -0.1930156,-2.970948 1.8069844,-2.970948 z"
         style="fill:#ffffff;fill-opacity:1;stroke:none" />
    </g>
    <g
       id="g3071"
       transform="matrix(0,0.92632532,-0.9124399,0,43.645926,5.5893974)">
      <path
         sodipodi:nodetypes="sssssssss"
         transform="matrix(0,0.97243857,-0.96,0,-0.76,-1.9019786)"
         style="opacity:0.48899997;fill:#000000;fill-opacity:1;stroke:none;filter:url(#filter4397-1-9)"
         d="m 9.1601729,-31 29.8701301,0 c 1.714762,0 3.095238,1.380476 3.095238,3.095238 l 0,18.8095238 C 42.125541,-7.3804762 40.745065,-6 39.030303,-6 L 9.1601729,-6 c -1.7147618,0 -3.095238,-1.3804762 -3.095238,-3.0952382 l 0,-18.8095238 C 6.0649349,-29.619524 7.4454111,-31 9.1601729,-31 z"
         id="path3073"
         inkscape:connector-curvature="0" />
      <path
         style="fill:#808080;fill-opacity:1;stroke:none"
         d="M 10,4 C 7,4 6,5.7890411 6,8.0071454 L 6,35.025902 c 0,2.003575 1,4.03662 4,4.03662 l 16,0 c 3,0 4,-2.033047 4,-4.03662 L 30,8.0071454 C 30,6.0035727 29.000005,4 26,4 z m -0.036163,1.0308972 16.07,0 C 28,5.0308972 29,6.0326846 29,8.0362573 l 0,26.9896447 c 0,2.003573 -1,3.005359 -3,3.005359 l -16,0 c -2,0 -3,-0.999012 -3,-3.005359 L 7,8.0362573 C 7,6.0326766 8,5.0308972 9.963837,5.0308972 z"
         id="path3075"
         inkscape:connector-curvature="0"
         sodipodi:nodetypes="ssssssssssssssssss" />
      <path
         transform="matrix(0,1,-1,0,0,0)"
         style="fill:url(#linearGradient3091);fill-opacity:1;stroke:none"
         d="m 8,-29 27,0 c 2,0 3,0.999997 3,3 l 0,16 c 0,2 -1,3 -3,3 L 8,-7 C 5.999992,-7 5.034715,-7.8069884 5.0308972,-9.8069844 L 5.000001,-25.992412 C 4.9961687,-27.999996 5.9999982,-29 8,-29 z"
         id="path3077"
         inkscape:connector-curvature="0"
         sodipodi:nodetypes="sssssssss" />
      <path
         style="fill:#e6e6e6;fill-opacity:1;stroke:none"
         d="M 18.443837,21.470589 10,38 C 8,38 7,37 7,35 L 7,8.0308972 c 0,-2.000008 1,-3 3,-3 z"
         id="path3079"
         inkscape:connector-curvature="0"
         sodipodi:nodetypes="ccsscc" />
      <path
         transform="matrix(0,0.90992647,-1.2055877,0,-1.7444449,1.4522089)"
         style="opacity:0.75;fill:#000000;fill-opacity:1;stroke:none;filter:url(#filter4416)"
         d="m 21.999996,-17.206915 17.066667,6.635768 c 0,1.6589419 -1.09899,2.4884128 -3.296969,2.4884128 l -27.4747478,0 c -2.1979798,0 -3.2286581,-0.7353417 -3.2286581,-2.3942838 z"
         id="path3081"
         inkscape:connector-curvature="0"
         sodipodi:nodetypes="ccsccc" />
      <path
         style="opacity:0.1039604;fill:#808080;fill-opacity:1;stroke:none"
         d="m 8,5.9999989 0,1.0000002 15.963837,0 C 26,7 27,8 27,10 l 0,23 c 0,2 -1,3 -3.036163,2.999999 L 8,36 l 0,1 16.963837,-10e-7 c 2,0 3.072326,-0.999998 3.036163,-2.999999 L 28,9 C 28,7 27,6 24.963837,5.9999989 z"
         id="path3083"
         inkscape:connector-curvature="0"
         sodipodi:nodetypes="ccccccccccccc" />
      <path
         sodipodi:nodetypes="ccsscc"
         inkscape:connector-curvature="0"
         id="path3085"
         d="M 18.250821,21.501486 10,38 C 8,38 7,37 7,35 L 7,8.1246813 C 7,6.1246796 7.8069844,5.0308972 9.8069844,5.0308972 z"
         style="fill:url(#linearGradient3093);fill-opacity:1;stroke:none" />
      <path
         style="fill:#ffffff;fill-opacity:1;stroke:none"
         d="M 9.8069844,5.029052 C 7.8069844,5.029052 7,6.0000009 7,8 l 0,27 c 0,2 1,3 3,3 L 18.443837,21.470589 z M 9,6 17.483837,21.470589 9,37 8,35 8,9 C 8,6 8,6 9,6 z"
         id="path3087"
         inkscape:connector-curvature="0"
         sodipodi:nodetypes="cssccccccccc" />
      <path
         style="fill:#ffffff;fill-opacity:1;stroke:none"
         d="M 9.8069844,5.029052 C 7.6479157,5.0329234 7,6.0331066 7,8.0331066 L 7,35 c 0,2 1,3.031261 3,3.031261 l 16,0 C 28.000003,38.031261 29,37 29,35 L 29,8.0331066 c 0,-2 -0.999998,-3.036676 -2.995598,-3.0330977 z m 0,1.0331066 L 25,6.0331066 c 2,-0.00382 3,1 3,3 L 28,34 c 0,2 -0.999984,3 -3,3 L 11,37 C 9,37 8,36 8,34 L 8,9.0331066 c 0,-2 -0.1930156,-2.970948 1.8069844,-2.970948 z"
         id="path3089"
         inkscape:connector-curvature="0"
         sodipodi:nodetypes="ssssssssscsssssscc" />
    </g>
    <g
       transform="matrix(0,0.92632532,-0.9124399,0,43.645926,13.915542)"
       id="g3548">
      <path
         inkscape:connector-curvature="0"
         id="rect3579"
         d="m 9.1601729,-31 29.8701301,0 c 1.714762,0 3.095238,1.380476 3.095238,3.095238 l 0,18.8095238 C 42.125541,-7.3804762 40.745065,-6 39.030303,-6 L 9.1601729,-6 c -1.7147618,0 -3.095238,-1.3804762 -3.095238,-3.0952382 l 0,-18.8095238 C 6.0649349,-29.619524 7.4454111,-31 9.1601729,-31 z"
         style="opacity:0.48899997;fill:#000000;fill-opacity:1;stroke:none;filter:url(#filter4397-1-9)"
         transform="matrix(0,0.97243857,-0.96,0,-0.76,-1.9019786)"
         sodipodi:nodetypes="sssssssss" />
      <path
         sodipodi:nodetypes="ssssssssssssssssss"
         inkscape:connector-curvature="0"
         id="rect4412"
         d="M 10,4 C 7,4 6,5.7890411 6,8.0071454 L 6,35.025902 c 0,2.003575 1,4.03662 4,4.03662 l 16,0 c 3,0 4,-2.033047 4,-4.03662 L 30,8.0071454 C 30,6.0035727 29.000005,4 26,4 z m -0.036163,1.0308972 16.07,0 C 28,5.0308972 29,6.0326846 29,8.0362573 l 0,26.9896447 c 0,2.003573 -1,3.005359 -3,3.005359 l -16,0 c -2,0 -3,-0.999012 -3,-3.005359 L 7,8.0362573 C 7,6.0326766 8,5.0308972 9.963837,5.0308972 z"
         style="fill:#808080;fill-opacity:1;stroke:none" />
      <path
         sodipodi:nodetypes="sssssssss"
         inkscape:connector-curvature="0"
         id="rect3575"
         d="m 8,-29 27,0 c 2,0 3,0.999997 3,3 l 0,16 c 0,2 -1,3 -3,3 L 8,-7 C 5.999992,-7 5.034715,-7.8069884 5.0308972,-9.8069844 L 5.000001,-25.992412 C 4.9961687,-27.999996 5.9999982,-29 8,-29 z"
         style="fill:url(#linearGradient3544-5);fill-opacity:1;stroke:none"
         transform="matrix(0,1,-1,0,0,0)" />
      <path
         sodipodi:nodetypes="ccsscc"
         inkscape:connector-curvature="0"
         id="rect3581"
         d="M 18.443837,21.470589 10,38 C 8,38 7,37 7,35 L 7,8.0308972 c 0,-2.000008 1,-3 3,-3 z"
         style="fill:#e6e6e6;fill-opacity:1;stroke:none" />
      <path
         sodipodi:nodetypes="ccsccc"
         inkscape:connector-curvature="0"
         id="path4363"
         d="m 21.999996,-17.206915 17.066667,6.635768 c 0,1.6589419 -1.09899,2.4884128 -3.296969,2.4884128 l -27.4747478,0 c -2.1979798,0 -3.2286581,-0.7353417 -3.2286581,-2.3942838 z"
         style="opacity:0.75;fill:#000000;fill-opacity:1;stroke:none;filter:url(#filter4416)"
         transform="matrix(0,0.90992647,-1.2055877,0,-1.7444449,1.4522089)" />
      <path
         sodipodi:nodetypes="ccccccccccccc"
         inkscape:connector-curvature="0"
         id="rect4439"
         d="m 8,5.9999989 0,1.0000002 15.963837,0 C 26,7 27,8 27,10 l 0,23 c 0,2 -1,3 -3.036163,2.999999 L 8,36 l 0,1 16.963837,-10e-7 c 2,0 3.072326,-0.999998 3.036163,-2.999999 L 28,9 C 28,7 27,6 24.963837,5.9999989 z"
         style="opacity:0.1039604;fill:#808080;fill-opacity:1;stroke:none" />
      <path
         style="fill:url(#linearGradient3546-6);fill-opacity:1;stroke:none"
         d="M 18.250821,21.501486 10,38 C 8,38 7,37 7,35 L 7,8.1246813 C 7,6.1246796 7.8069844,5.0308972 9.8069844,5.0308972 z"
         id="path3584"
         inkscape:connector-curvature="0"
         sodipodi:nodetypes="ccsscc" />
      <path
         sodipodi:nodetypes="cssccccccccc"
         inkscape:connector-curvature="0"
         id="path4406"
         d="M 9.8069844,5.029052 C 7.8069844,5.029052 7,6.0000009 7,8 l 0,27 c 0,2 1,3 3,3 L 18.443837,21.470589 z M 9,6 17.483837,21.470589 9,37 8,35 8,9 C 8,6 8,6 9,6 z"
         style="fill:#ffffff;fill-opacity:1;stroke:none" />
      <path
         sodipodi:nodetypes="ssssssssscsssssscc"
         inkscape:connector-curvature="0"
         id="rect4401"
         d="M 9.8069844,5.029052 C 7.6479157,5.0329234 7,6.0331066 7,8.0331066 L 7,35 c 0,2 1,3.031261 3,3.031261 l 16,0 C 28.000003,38.031261 29,37 29,35 L 29,8.0331066 c 0,-2 -0.999998,-3.036676 -2.995598,-3.0330977 z m 0,1.0331066 L 25,6.0331066 c 2,-0.00382 3,1 3,3 L 28,34 c 0,2 -0.999984,3 -3,3 L 11,37 C 9,37 8,36 8,34 L 8,9.0331066 c 0,-2 -0.1930156,-2.970948 1.8069844,-2.970948 z"
         style="fill:#ffffff;fill-opacity:1;stroke:none" />
    </g>
    <path
       style="opacity:0.48999999;fill:#241f1c;fill-opacity:1;stroke:none;filter:url(#filter3891)"
       d="M 40,5 43,5 43.004,6.9863782 43,35 5,35 5,5 8,5 8,8 7,8 7,32 41,32 41,8 40,8 z"
       id="path4871"
       inkscape:connector-curvature="0"
       sodipodi:nodetypes="cccccccccccccc" />
    <path
       sodipodi:nodetypes="csssscccccc"
       inkscape:connector-curvature="0"
       id="path4487"
       d="m 44,6 0,32 c 0,2 -2,4 -4,4 L 8,42 C 6,42 4,40 4,38 L 4,6 5.0251604,6 5,34 43,34 43,6 z"
       style="fill:url(#radialGradient4816);fill-opacity:1;stroke:none" />
    <rect
       style="opacity:1;fill:#ac9d93;fill-opacity:1;stroke:none"
       id="rect4905"
       width="38"
       height="1"
       x="5"
       y="34" />
    <rect
       y="-5"
       x="6"
       height="1"
       width="29"
       id="rect3895"
       style="fill:#ac9d93;fill-opacity:1;stroke:none"
       transform="matrix(0,1,-1,0,0,0)" />
    <rect
       transform="matrix(0,1,-1,0,0,0)"
       style="fill:#ac9d93;fill-opacity:1;stroke:none"
       id="rect3897"
       width="29"
       height="1"
       x="6"
       y="-44" />
    <path
       id="path3811"
       d="M 8,1 C 5,1 3,3 3,6 l 0,32 c 0,3 2,5 5,5 l 32,0 c 3,0 5,-2 5,-5 L 45,6 C 45,3 43,1 40,1 z m 0,1 32,0 c 2,0 4,2 4,4 l 0,32 c 0,2 -2,4 -4,4 L 8,42 C 6,42 4,40 4,38 L 4,6 C 4,4 6,2 8,2 z"
       style="fill:#241f1c;fill-opacity:1;stroke:none"
       inkscape:connector-curvature="0"
       sodipodi:nodetypes="ssssccccscccccsssc" />
    <path
       style="fill:#ac9d93;fill-opacity:1;stroke:none"
       d="m 40,2 0,1 c 1,0 3,1 3,3 l 1,0 C 44,4 42,2 40,2 z"
       id="path3901"
       inkscape:connector-curvature="0"
       sodipodi:nodetypes="ccccc" />
    <path
       sodipodi:nodetypes="ccccc"
       inkscape:connector-curvature="0"
       id="path3903"
       d="M 8,2 8,3 C 7,3 5,4 5,6 L 4,6 C 4,4 6,2 8,2 z"
       style="fill:#ac9d93;fill-opacity:1;stroke:none" />
  </g>
</svg>
