<?xml version="1.0" encoding="UTF-8" standalone="no"?>
<!-- Created with Inkscape (http://www.inkscape.org/) -->

<svg
   xmlns:dc="http://purl.org/dc/elements/1.1/"
   xmlns:cc="http://creativecommons.org/ns#"
   xmlns:rdf="http://www.w3.org/1999/02/22-rdf-syntax-ns#"
   xmlns:svg="http://www.w3.org/2000/svg"
   xmlns="http://www.w3.org/2000/svg"
   xmlns:xlink="http://www.w3.org/1999/xlink"
   xmlns:sodipodi="http://sodipodi.sourceforge.net/DTD/sodipodi-0.dtd"
   xmlns:inkscape="http://www.inkscape.org/namespaces/inkscape"
   width="48px"
   height="48px"
   id="svg3721"
   version="1.1"
   inkscape:version="0.48.0 r9654"
   sodipodi:docname="repository.svg">
  <defs
     id="defs3723">
    <linearGradient
       id="linearGradient4164"
       inkscape:collect="always">
      <stop
         id="stop4166"
         offset="0"
         style="stop-color:#b3b3b3;stop-opacity:1" />
      <stop
         id="stop4168"
         offset="1"
         style="stop-color:#b3b3b3;stop-opacity:0" />
    </linearGradient>
    <linearGradient
       inkscape:collect="always"
       id="linearGradient4152">
      <stop
         style="stop-color:#ffffff;stop-opacity:1;"
         offset="0"
         id="stop4154" />
      <stop
         style="stop-color:#ffffff;stop-opacity:0;"
         offset="1"
         id="stop4156" />
    </linearGradient>
    <linearGradient
       inkscape:collect="always"
       id="linearGradient5541">
      <stop
         style="stop-color:#666666;stop-opacity:1;"
         offset="0"
         id="stop5543" />
      <stop
         style="stop-color:#e6e6e6;stop-opacity:1"
         offset="1"
         id="stop5545" />
    </linearGradient>
    <linearGradient
       id="linearGradient5523">
      <stop
         style="stop-color:#e6e6e6;stop-opacity:1"
         offset="0"
         id="stop5525" />
      <stop
         id="stop5527"
         offset="0.5"
         style="stop-color:#cccccc;stop-opacity:1" />
      <stop
         style="stop-color:#b3b3b3;stop-opacity:1"
         offset="1"
         id="stop5529" />
    </linearGradient>
    <linearGradient
       inkscape:collect="always"
       id="linearGradient3017">
      <stop
         style="stop-color:#f2f2f2;stop-opacity:1"
         offset="0"
         id="stop3019" />
      <stop
         style="stop-color:#cccccc;stop-opacity:1"
         offset="1"
         id="stop3021" />
    </linearGradient>
    <filter
       color-interpolation-filters="sRGB"
       inkscape:collect="always"
       id="filter3794">
      <feGaussianBlur
         inkscape:collect="always"
         stdDeviation="1.223301"
         id="feGaussianBlur3796" />
    </filter>
    <linearGradient
       inkscape:collect="always"
       xlink:href="#linearGradient3017"
       id="linearGradient5457"
       gradientUnits="userSpaceOnUse"
       gradientTransform="matrix(0,0.95238095,-0.95238095,0,1.1428557,5.047619)"
       x1="5.2000003"
       y1="-24"
       x2="31.450001"
       y2="-24" />
    <linearGradient
       inkscape:collect="always"
       xlink:href="#linearGradient5523"
       id="linearGradient5509"
       gradientUnits="userSpaceOnUse"
       gradientTransform="matrix(0.95238095,0,0,0.95238095,1.047619,-1.1428571)"
       spreadMethod="reflect"
       x1="38.799999"
       y1="-24"
       x2="38.799999"
       y2="-45" />
    <linearGradient
       inkscape:collect="always"
       xlink:href="#linearGradient5523"
       id="linearGradient5513"
       gradientUnits="userSpaceOnUse"
       gradientTransform="matrix(0.95238095,0,0,0.95238095,1.047619,-1.1428571)"
       spreadMethod="reflect"
       x1="38.799999"
       y1="-24"
       x2="38.799999"
       y2="-45" />
    <linearGradient
       inkscape:collect="always"
       xlink:href="#linearGradient5541"
       id="linearGradient5547"
       x1="7"
       y1="43"
       x2="7"
       y2="34"
       gradientUnits="userSpaceOnUse" />
    <filter
       color-interpolation-filters="sRGB"
       inkscape:collect="always"
       id="filter5939"
       x="-0.13116461"
       width="1.2623292"
       y="-0.29259795"
       height="1.5851959">
      <feGaussianBlur
         inkscape:collect="always"
         stdDeviation="1.5849056"
         id="feGaussianBlur5941" />
    </filter>
    <filter
       color-interpolation-filters="sRGB"
       inkscape:collect="always"
       id="filter5913">
      <feGaussianBlur
         inkscape:collect="always"
         stdDeviation="0.13222288"
         id="feGaussianBlur5915" />
    </filter>
    <filter
       color-interpolation-filters="sRGB"
       inkscape:collect="always"
       id="filter5969"
       x="-0.57735848"
       width="2.154717"
       y="-0.57735848"
       height="2.154717">
      <feGaussianBlur
         inkscape:collect="always"
         stdDeviation="0.96226415"
         id="feGaussianBlur5971" />
    </filter>
    <linearGradient
       inkscape:collect="always"
       xlink:href="#linearGradient4152"
       id="linearGradient4158"
       x1="29"
       y1="21"
       x2="18"
       y2="21"
       gradientUnits="userSpaceOnUse"
       gradientTransform="translate(0,-1)"
       spreadMethod="reflect" />
    <linearGradient
       inkscape:collect="always"
       xlink:href="#linearGradient4164"
       id="linearGradient4162"
       gradientUnits="userSpaceOnUse"
       x1="29"
       y1="21"
       x2="18"
       y2="21"
       spreadMethod="reflect" />
  </defs>
  <sodipodi:namedview
     id="base"
     pagecolor="#ffffff"
     bordercolor="#666666"
     borderopacity="1.0"
     inkscape:pageopacity="0.0"
     inkscape:pageshadow="2"
     inkscape:zoom="2.9425954"
     inkscape:cx="0.030727323"
     inkscape:cy="9.8570288"
     inkscape:current-layer="layer1"
     showgrid="true"
     inkscape:grid-bbox="true"
     inkscape:document-units="px"
     inkscape:window-width="1280"
     inkscape:window-height="987"
     inkscape:window-x="-2"
     inkscape:window-y="16"
     inkscape:window-maximized="1"
     showguides="true"
     inkscape:guide-bbox="true"
     inkscape:snap-global="true">
    <inkscape:grid
       type="xygrid"
       id="grid3828" />
  </sodipodi:namedview>
  <metadata
     id="metadata3726">
    <rdf:RDF>
      <cc:Work
         rdf:about="">
        <dc:format>image/svg+xml</dc:format>
        <dc:type
           rdf:resource="http://purl.org/dc/dcmitype/StillImage" />
        <dc:title />
      </cc:Work>
    </rdf:RDF>
  </metadata>
  <g
     id="layer1"
     inkscape:label="Layer 1"
     inkscape:groupmode="layer">
    <g
       id="g5301">
      <rect
         y="0"
         x="0"
         height="48"
         width="48"
         id="border"
         style="opacity:0.48936169;fill:none;stroke:none" />
      <rect
         transform="matrix(0,1,-1,0,48,0)"
         style="fill:#333333;fill-opacity:1;stroke:none;filter:url(#filter3794)"
         id="rect3000"
         width="42"
         height="42"
         x="3"
         y="3"
         rx="5"
         ry="5" />
      <path
         sodipodi:nodetypes="csssscc"
         inkscape:connector-curvature="0"
         id="rect2995"
         d="m 32,-44 6,0 c 2,0 4,2 4,4 l 0,32 c 0,2 -2,4 -4,4 l -6,0 z"
         style="fill:url(#linearGradient5513);fill-opacity:1.0;stroke:none"
         transform="matrix(0,1,-1,0,0,0)" />
      <path
         transform="scale(-1,1)"
         style="opacity:0.5;fill:#000000;fill-opacity:1;stroke:none"
         d="m -9,38 1,0 0,3 -1,0 z"
         id="rect4240" />
      <path
         sodipodi:nodetypes="ssssccccscccccsssc"
         inkscape:connector-curvature="0"
         style="fill:#333333;fill-opacity:1;stroke:none"
         d="M 8,1 C 5,1 3,3 3,6 l 0,32 c 0,3 2,5 5,5 l 32,0 c 3,0 5,-2 5,-5 L 45,6 C 45,3 43,1 40,1 z m 0,1 32,0 c 2,0 4,2 4,4 l 0,32 c 0,2 -2,4 -4,4 L 8,42 C 6,42 4,40 4,38 L 4,6 C 4,4 6,2 8,2 z"
         id="path3811" />
      <path
         sodipodi:nodetypes="cccssccsscccc"
         inkscape:connector-curvature="0"
         style="fill:#cccccc;fill-opacity:1;stroke:none"
         d="m 43,32 0,6 c 0,2 -2,3 -3,3 L 8,41 C 7,41 5,40 5,38 l 0,-6 -1,0 0,6 c 0,2 2,4 4,4 l 32,0 c 2,0 4,-2 4,-4 l 0,-6 z"
         id="path3062" />
      <path
         transform="scale(-1,1)"
         style="opacity:0.4;fill:#ffffff;fill-opacity:1;stroke:none"
         d="m -14,38 1,0 0,3 -1,0 z"
         id="rect4230" />
      <path
         transform="scale(-1,1)"
         style="opacity:0.5;fill:#000000;fill-opacity:1;stroke:none"
         d="m -13,38 1,0 0,3 -1,0 z"
         id="rect4232" />
      <path
         transform="scale(-1,1)"
         style="opacity:0.4;fill:#ffffff;fill-opacity:1;stroke:none"
         d="m -12,38 1,0 0,3 -1,0 z"
         id="rect4234" />
      <path
         transform="scale(-1,1)"
         style="opacity:0.5;fill:#000000;fill-opacity:1;stroke:none"
         d="m -11,38 1,0 0,3 -1,0 z"
         id="rect4236" />
      <path
         transform="scale(-1,1)"
         style="opacity:0.4;fill:#ffffff;fill-opacity:1;stroke:none"
         d="m -10,38 1,0 0,3 -1,0 z"
         id="rect4238" />
      <path
         transform="scale(-1,1)"
         style="opacity:0.4;fill:#ffffff;fill-opacity:1;stroke:none"
         d="m -16,38 1,0 0,3 -1,0 z"
         id="rect5273" />
      <path
         transform="scale(-1,1)"
         style="opacity:0.5;fill:#000000;fill-opacity:1;stroke:none"
         d="m -15,38 1,0 0,3 -1,0 z"
         id="rect5275" />
      <g
         id="g5408"
         transform="translate(0,-6)">
        <path
           sodipodi:nodetypes="csssscc"
           inkscape:connector-curvature="0"
           id="path5364"
           d="m 32,-44 6,0 c 2,0 4,2 4,4 l 0,32 c 0,2 -2,4 -4,4 l -6,0 z"
           style="fill:url(#linearGradient5509);fill-opacity:1;stroke:none"
           transform="matrix(0,1,-1,0,0,0)" />
        <path
           transform="scale(-1,1)"
           style="opacity:0.5;fill:#000000;fill-opacity:1;stroke:none"
           d="m -9,38 1,0 0,3 -1,0 z"
           id="rect5366" />
        <path
           sodipodi:nodetypes="cccssccsscccc"
           inkscape:connector-curvature="0"
           style="fill:#cccccc;fill-opacity:1;stroke:none"
           d="m 42,32 0,7 c 0,1 -1,2 -2,2 L 8,41 C 7,41 6,40 6,39 l 0,-7 -1,0 0,7 c 0,2 1,3 3,3 l 32,0 c 2,0 3,-1 3,-3 l 0,-7 z"
           id="path5368" />
        <path
           transform="scale(-1,1)"
           style="opacity:0.4;fill:#ffffff;fill-opacity:1;stroke:none"
           d="m -14,38 1,0 0,3 -1,0 z"
           id="rect5370" />
        <path
           transform="scale(-1,1)"
           style="opacity:0.5;fill:#000000;fill-opacity:1;stroke:none"
           d="m -13,38 1,0 0,3 -1,0 z"
           id="rect5372" />
        <path
           transform="scale(-1,1)"
           style="opacity:0.4;fill:#ffffff;fill-opacity:1;stroke:none"
           d="m -12,38 1,0 0,3 -1,0 z"
           id="rect5374" />
        <path
           transform="scale(-1,1)"
           style="opacity:0.4;fill:#ffffff;fill-opacity:1;stroke:none"
           d="m -10,38 1,0 0,3 -1,0 z"
           id="rect5378" />
        <path
           transform="scale(-1,1)"
           style="opacity:0.4;fill:#ffffff;fill-opacity:1;stroke:none"
           d="m -16,38 1,0 0,3 -1,0 z"
           id="rect5404" />
        <path
           transform="scale(-1,1)"
           style="opacity:0.5;fill:#000000;fill-opacity:1;stroke:none"
           d="m -15,38 1,0 0,3 -1,0 z"
           id="rect5406" />
        <path
           sodipodi:nodetypes="cccssccsscccc"
           inkscape:connector-curvature="0"
           style="fill:#e6e6e6;fill-opacity:1;stroke:none"
           d="m 43,32 0,8 c 0,2 -2,3 -3,3 L 8,43 C 7,43 5,42 5,40 l 0,-8 -1,0 0,8 c 0,2 2,4 4,4 l 32,0 c 2,0 4,-2 4,-4 l 0,-8 z"
           id="path5507" />
        <path
           id="path5505"
           d="m 43,33 0,6 c 0,2 -2,3 -3,3 L 8,42 C 7,42 5,41 5,39 l 0,-6 -1,0 0,6 c 0,2 2,4 4,4 l 32,0 c 2,0 4,-2 4,-4 l 0,-6 z"
           style="fill:url(#linearGradient5547);fill-opacity:1;stroke:none"
           inkscape:connector-curvature="0"
           sodipodi:nodetypes="cccssccsscccc" />
        <rect
           y="38"
           x="39"
           height="3"
           width="1"
           id="rect3626"
           style="opacity:0.5;fill:#000000;fill-opacity:1;stroke:none" />
        <rect
           y="38"
           x="34"
           height="3"
           width="1"
           id="rect3628"
           style="opacity:0.4;fill:#ffffff;fill-opacity:1;stroke:none" />
        <rect
           y="38"
           x="35"
           height="3"
           width="1"
           id="rect3630"
           style="opacity:0.5;fill:#000000;fill-opacity:1;stroke:none" />
        <rect
           style="opacity:0.4;fill:#ffffff;fill-opacity:1;stroke:none"
           id="rect3632"
           width="1"
           height="3"
           x="36"
           y="38" />
        <rect
           style="opacity:0.5;fill:#000000;fill-opacity:1;stroke:none"
           id="rect3634"
           width="1"
           height="3"
           x="37"
           y="38" />
        <rect
           y="38"
           x="38"
           height="3"
           width="1"
           id="rect3636"
           style="opacity:0.4;fill:#ffffff;fill-opacity:1;stroke:none" />
        <rect
           style="opacity:0.4;fill:#ffffff;fill-opacity:1;stroke:none"
           id="rect3638"
           width="1"
           height="3"
           x="32"
           y="38" />
        <rect
           style="opacity:0.5;fill:#000000;fill-opacity:1;stroke:none"
           id="rect3640"
           width="1"
           height="3"
           x="33"
           y="38" />
        <path
           transform="scale(-1,1)"
           style="opacity:0.5;fill:#000000;fill-opacity:1;stroke:none"
           d="m -11,38 1,0 0,3 -1,0 z"
           id="rect5376" />
      </g>
      <g
         id="g5448"
         transform="translate(1.4305115e-6,-4)">
        <path
           style="fill:url(#linearGradient5457);fill-opacity:1;stroke:none"
           d="m 43.999999,10 0,21 c 0,2 -2,4 -4,4 L 7.9999974,35 c -2,0 -4.0000001,-2 -4,-4 l 1.2e-6,-21 c 10e-8,-2 2,-4 4,-4 L 39.999999,6 c 2,0 4,2 4,4 z"
           id="path5434"
           inkscape:connector-curvature="0"
           sodipodi:nodetypes="sssssssss" />
        <path
           id="path5436"
           d="M 13.999999,6 7.9999986,6 c -2,0 -4,2 -4,4 l 0,21 c 0,2 2,4 4,4 L 40,35 c 2,0 4,-2 4,-4 l -10e-7,-21 c 0,-2 -2,-4 -4,-4 l -6,0 z m 20,1 6,0 c 1,0 3,1 3,3 L 43,31 c 0,2 -2,3 -3,3 L 7.9999986,34 c -1,0 -3,-1 -3,-3 l 0,-21 c 0,-2 2,-3 3,-3 l 6.0000004,0 z"
           style="opacity:1;fill:#ffffff;fill-opacity:1;stroke:none"
           inkscape:connector-curvature="0"
           sodipodi:nodetypes="csssscccccccccccsssccc" />
        <path
           sodipodi:nodetypes="csssccccccccccccccccsssscc"
           inkscape:connector-curvature="0"
           style="opacity:0.5;fill:#cccccc;fill-opacity:1;stroke:none"
           d="M 26.999999,33 8.9999978,33 c -2,0 -3.0000001,-1 -3,-3 l 8e-7,-19 c 1e-7,-2 1,-3 3,-3 l 4.0000004,0 22,0 4,0 c 2,0 3,1 3,3 l 0,19 c 0,2 -1,3 -3,3 l -1,0 z m 11,1 2,0 c 1,0 3,-1 3,-3 l 0,-21 c 0,-2 -2,-3 -3,-3 l -5,0 -23,0 -4.0000004,0 c -1,0 -3,1 -3,3 l 0,21 c 0,2 2,3 3,3 l 19.0000004,0 z"
           id="path5438" />
      </g>
      <rect
         y="38"
         x="39"
         height="3"
         width="1"
         id="rect3642"
         style="opacity:0.5;fill:#000000;fill-opacity:1;stroke:none" />
      <rect
         y="38"
         x="34"
         height="3"
         width="1"
         id="rect3644"
         style="opacity:0.4;fill:#ffffff;fill-opacity:1;stroke:none" />
      <rect
         y="38"
         x="35"
         height="3"
         width="1"
         id="rect3646"
         style="opacity:0.5;fill:#000000;fill-opacity:1;stroke:none" />
      <rect
         style="opacity:0.4;fill:#ffffff;fill-opacity:1;stroke:none"
         id="rect3648"
         width="1"
         height="3"
         x="36"
         y="38" />
      <rect
         style="opacity:0.5;fill:#000000;fill-opacity:1;stroke:none"
         id="rect3650"
         width="1"
         height="3"
         x="37"
         y="38" />
      <rect
         y="38"
         x="38"
         height="3"
         width="1"
         id="rect3652"
         style="opacity:0.4;fill:#ffffff;fill-opacity:1;stroke:none" />
      <rect
         style="opacity:0.4;fill:#ffffff;fill-opacity:1;stroke:none"
         id="rect3654"
         width="1"
         height="3"
         x="32"
         y="38" />
      <rect
         style="opacity:0.5;fill:#000000;fill-opacity:1;stroke:none"
         id="rect3656"
         width="1"
         height="3"
         x="33"
         y="38" />
    </g>
    <g
       transform="matrix(-1,0,0,1,42.999996,-10)"
       id="g5988">
      <g
         id="g5990"
         transform="matrix(-1,0,0,1,45.999998,4)">
        <path
           style="opacity:0.60096154;fill:#424242;fill-opacity:1;stroke:none;filter:url(#filter5939)"
           d="m 24.999999,15 c -1.99144,-0.184842 -4.969648,1.093167 -5.413403,3.830237 -0.701653,-0.813462 -1.687706,-1.343749 -2.809487,-1.343749 -2.119309,0 -3.77711,1.267057 -3.77711,3.513512 0,0.244455 -0.03899,0.767416 2e-6,1 -0.365933,-0.09206 -0.584597,0 -1,0 -1.816551,0 -3.0000004,1 -3.0000004,2 0,1.190046 0,3 3.0000004,3 l 20.122364,0 c 5,0 5.877634,-2 5.877634,-4 0,-4 -3,-5 -5,-5 0,0 -2.000002,0 -3,1 -0.440704,-2.863964 -3.391185,-3.850672 -5,-4 z"
           id="path5992"
           inkscape:connector-curvature="0"
           sodipodi:nodetypes="scsscssccsscs" />
        <path
           sodipodi:nodetypes="scsscssccsscs"
           inkscape:connector-curvature="0"
           id="path5994"
           d="m 24.937499,15.84375 c -2.470678,0 -4.532757,1.801097 -4.9375,4.15625 -1,-1 -1.976837,-1 -3,-1 -2,0 -3,1 -3.0625,3.34375 -0.0056,0.21027 0.02694,0.42487 0.0625,0.625 -0.333764,-0.07921 -0.683616,-0.125 -1.0625,-0.125 -1.656854,0 -3.0000014,0.819758 -3.0000014,1.84375 0,1.023992 1.4056474,1.3125 3.0625014,1.3125 l 19,0 c 3,0 5,-1 5,-3 0,-3 -1.790861,-4 -4,-4 -1.218608,0 -2.266333,1.140521 -3,2 -0.29823,-2.476574 -2.505528,-5.15625 -5.0625,-5.15625 z"
           style="fill:#f2f2f2;fill-opacity:1;stroke:none;filter:url(#filter5913)" />
      </g>
      <path
         sodipodi:type="arc"
         style="fill:#ffffff;fill-opacity:1;stroke:none;filter:url(#filter5969)"
         id="path5996"
         sodipodi:cx="22"
         sodipodi:cy="20"
         sodipodi:rx="2"
         sodipodi:ry="2"
         d="m 24,20 c 0,1.104569 -0.895431,2 -2,2 -1.104569,0 -2,-0.895431 -2,-2 0,-1.104569 0.895431,-2 2,-2 1.104569,0 2,0.895431 2,2 z"
         transform="translate(-10.000001,5)" />
      <path
         transform="translate(-1.0000014,2)"
         d="m 24,20 c 0,1.104569 -0.895431,2 -2,2 -1.104569,0 -2,-0.895431 -2,-2 0,-1.104569 0.895431,-2 2,-2 1.104569,0 2,0.895431 2,2 z"
         sodipodi:ry="2"
         sodipodi:rx="2"
         sodipodi:cy="20"
         sodipodi:cx="22"
         id="path5998"
         style="opacity:0.75;fill:#ffffff;fill-opacity:1;stroke:none;filter:url(#filter5969)"
         sodipodi:type="arc" />
      <path
         sodipodi:type="arc"
         style="fill:#ffffff;fill-opacity:1;stroke:none;filter:url(#filter5969)"
         id="path6000"
         sodipodi:cx="22"
         sodipodi:cy="20"
         sodipodi:rx="2"
         sodipodi:ry="2"
         d="m 24,20 c 0,1.104569 -0.895431,2 -2,2 -1.104569,0 -2,-0.895431 -2,-2 0,-1.104569 0.895431,-2 2,-2 1.104569,0 2,0.895431 2,2 z"
         transform="translate(6.9999986,6)" />
      <path
         transform="translate(0.99999854,4)"
         d="m 24,20 c 0,1.104569 -0.895431,2 -2,2 -1.104569,0 -2,-0.895431 -2,-2 0,-1.104569 0.895431,-2 2,-2 1.104569,0 2,0.895431 2,2 z"
         sodipodi:ry="2"
         sodipodi:rx="2"
         sodipodi:cy="20"
         sodipodi:cx="22"
         id="path6002"
         style="opacity:0.75;fill:#ffffff;fill-opacity:1;stroke:none;filter:url(#filter5969)"
         sodipodi:type="arc" />
    </g>
    <g
       id="g5979"
       transform="translate(5.0000014,-8)">
      <g
         transform="matrix(-1,0,0,1,45.999998,4)"
         id="g5921">
        <path
           sodipodi:nodetypes="scsscssccsscs"
           inkscape:connector-curvature="0"
           id="path5923"
           d="m 24.999999,15 c -1.99144,-0.184842 -4.969648,1.093167 -5.413403,3.830237 -0.701653,-0.813462 -1.687706,-1.343749 -2.809487,-1.343749 -2.119309,0 -3.77711,1.267057 -3.77711,3.513512 0,0.244455 -0.03899,0.767416 2e-6,1 -0.365933,-0.09206 -0.584597,0 -1,0 -1.816551,0 -3.0000004,1 -3.0000004,2 0,1.190046 0,3 3.0000004,3 l 20.122364,0 c 5,0 5.877634,-2 5.877634,-4 0,-4 -3,-5 -5,-5 0,0 -2.000002,0 -3,1 -0.440704,-2.863964 -3.391185,-3.850672 -5,-4 z"
           style="opacity:0.60096154;fill:#424242;fill-opacity:1;stroke:none;filter:url(#filter5939)" />
        <path
           style="fill:#f2f2f2;fill-opacity:1;stroke:none;filter:url(#filter5913)"
           d="m 24.937499,15.84375 c -2.470678,0 -4.532757,1.801097 -4.9375,4.15625 -1,-1 -1.976837,-1 -3,-1 -2,0 -3,1 -3.0625,3.34375 -0.0056,0.21027 0.02694,0.42487 0.0625,0.625 -0.333764,-0.07921 -0.683616,-0.125 -1.0625,-0.125 -1.656854,0 -3.0000014,0.819758 -3.0000014,1.84375 0,1.023992 1.4056474,1.3125 3.0625014,1.3125 l 19,0 c 3,0 5,-1 5,-3 0,-3 -1.790861,-4 -4,-4 -1.218608,0 -2.266333,1.140521 -3,2 -0.29823,-2.476574 -2.505528,-5.15625 -5.0625,-5.15625 z"
           id="path5925"
           inkscape:connector-curvature="0"
           sodipodi:nodetypes="scsscssccsscs" />
      </g>
      <path
         transform="translate(-10.000001,5)"
         d="m 24,20 c 0,1.104569 -0.895431,2 -2,2 -1.104569,0 -2,-0.895431 -2,-2 0,-1.104569 0.895431,-2 2,-2 1.104569,0 2,0.895431 2,2 z"
         sodipodi:ry="2"
         sodipodi:rx="2"
         sodipodi:cy="20"
         sodipodi:cx="22"
         id="path5943"
         style="fill:#ffffff;fill-opacity:1;stroke:none;filter:url(#filter5969)"
         sodipodi:type="arc" />
      <path
         sodipodi:type="arc"
         style="opacity:0.75;fill:#ffffff;fill-opacity:1;stroke:none;filter:url(#filter5969)"
         id="path5973"
         sodipodi:cx="22"
         sodipodi:cy="20"
         sodipodi:rx="2"
         sodipodi:ry="2"
         d="m 24,20 c 0,1.104569 -0.895431,2 -2,2 -1.104569,0 -2,-0.895431 -2,-2 0,-1.104569 0.895431,-2 2,-2 1.104569,0 2,0.895431 2,2 z"
         transform="translate(-1.0000014,2)" />
      <path
         transform="translate(6.9999986,6)"
         d="m 24,20 c 0,1.104569 -0.895431,2 -2,2 -1.104569,0 -2,-0.895431 -2,-2 0,-1.104569 0.895431,-2 2,-2 1.104569,0 2,0.895431 2,2 z"
         sodipodi:ry="2"
         sodipodi:rx="2"
         sodipodi:cy="20"
         sodipodi:cx="22"
         id="path5975"
         style="fill:#ffffff;fill-opacity:1;stroke:none;filter:url(#filter5969)"
         sodipodi:type="arc" />
      <path
         sodipodi:type="arc"
         style="opacity:0.75;fill:#ffffff;fill-opacity:1;stroke:none;filter:url(#filter5969)"
         id="path5977"
         sodipodi:cx="22"
         sodipodi:cy="20"
         sodipodi:rx="2"
         sodipodi:ry="2"
         d="m 24,20 c 0,1.104569 -0.895431,2 -2,2 -1.104569,0 -2,-0.895431 -2,-2 0,-1.104569 0.895431,-2 2,-2 1.104569,0 2,0.895431 2,2 z"
         transform="translate(0.99999854,4)" />
    </g>
    <rect
       style="opacity:0.50000000000000000;fill:url(#linearGradient4158);fill-opacity:1.0;stroke:none"
       id="rect4150"
       width="21"
       height="1"
       x="18"
       y="20" />
    <rect
       y="21"
       x="18"
       height="1"
       width="21"
       id="rect4160"
       style="opacity:0.50000000000000000;fill:url(#linearGradient4162);fill-opacity:1.0;stroke:none" />
  </g>
</svg>
