<?xml version="1.0" encoding="UTF-8" standalone="no"?>
<!-- Created with Inkscape (http://www.inkscape.org/) -->

<svg
   xmlns:dc="http://purl.org/dc/elements/1.1/"
   xmlns:cc="http://creativecommons.org/ns#"
   xmlns:rdf="http://www.w3.org/1999/02/22-rdf-syntax-ns#"
   xmlns:svg="http://www.w3.org/2000/svg"
   xmlns="http://www.w3.org/2000/svg"
   xmlns:xlink="http://www.w3.org/1999/xlink"
   xmlns:sodipodi="http://sodipodi.sourceforge.net/DTD/sodipodi-0.dtd"
   xmlns:inkscape="http://www.inkscape.org/namespaces/inkscape"
   width="48px"
   height="48px"
   id="svg3721"
   version="1.1"
   inkscape:version="0.48.0 r9654"
   sodipodi:docname="choqok.svg"
   inkscape:export-filename="/home/islington/Projects/Current/Indigo/48x48/apps/choqok.png"
   inkscape:export-xdpi="90"
   inkscape:export-ydpi="90">
  <defs
     id="defs3723">
    <linearGradient
       id="linearGradient3836"
       inkscape:collect="always">
      <stop
         id="stop3838"
         offset="0"
         style="stop-color:#d4aa00;stop-opacity:1" />
      <stop
         id="stop3840"
         offset="1"
         style="stop-color:#ffcc00;stop-opacity:1" />
    </linearGradient>
    <linearGradient
       id="linearGradient3820"
       inkscape:collect="always">
      <stop
         id="stop3822"
         offset="0"
         style="stop-color:#d4aa00;stop-opacity:0.5" />
      <stop
         id="stop3824"
         offset="1"
         style="stop-color:#806600;stop-opacity:1" />
    </linearGradient>
    <linearGradient
       id="linearGradient3814"
       inkscape:collect="always">
      <stop
         id="stop3816"
         offset="0"
         style="stop-color:#d4aa00;stop-opacity:1" />
      <stop
         id="stop3818"
         offset="1"
         style="stop-color:#ffcc00;stop-opacity:1" />
    </linearGradient>
    <linearGradient
       inkscape:collect="always"
       id="linearGradient3040">
      <stop
         style="stop-color:#d4aa00;stop-opacity:1"
         offset="0"
         id="stop3042" />
      <stop
         style="stop-color:#806600;stop-opacity:1"
         offset="1"
         id="stop3044" />
    </linearGradient>
    <linearGradient
       inkscape:collect="always"
       id="linearGradient3049">
      <stop
         style="stop-color:#d4aa00;stop-opacity:1"
         offset="0"
         id="stop3051" />
      <stop
         style="stop-color:#ffdd55;stop-opacity:1"
         offset="1"
         id="stop3053" />
    </linearGradient>
    <linearGradient
       id="linearGradient3020"
       inkscape:collect="always">
      <stop
         id="stop3022"
         offset="0"
         style="stop-color:#a3df01;stop-opacity:1" />
      <stop
         id="stop3024"
         offset="1"
         style="stop-color:#077d03;stop-opacity:1" />
    </linearGradient>
    <filter
       color-interpolation-filters="sRGB"
       inkscape:collect="always"
       id="filter3794">
      <feGaussianBlur
         inkscape:collect="always"
         stdDeviation="1.223301"
         id="feGaussianBlur3796" />
    </filter>
    <linearGradient
       inkscape:collect="always"
       xlink:href="#linearGradient9555"
       id="linearGradient9561"
       x1="10"
       y1="-24"
       x2="38"
       y2="-46"
       gradientUnits="userSpaceOnUse" />
    <linearGradient
       inkscape:collect="always"
       id="linearGradient9555">
      <stop
         style="stop-color:#514641;stop-opacity:1;"
         offset="0"
         id="stop9557" />
      <stop
         style="stop-color:#302925;stop-opacity:1"
         offset="1"
         id="stop9559" />
    </linearGradient>
    <radialGradient
       inkscape:collect="always"
       xlink:href="#linearGradient9353"
       id="radialGradient9359"
       cx="20"
       cy="14.571428"
       fx="20"
       fy="14.571428"
       r="18"
       gradientTransform="matrix(-1.0868165,0.45576174,-0.72222219,-1.7222222,52.26014,26.980003)"
       gradientUnits="userSpaceOnUse" />
    <linearGradient
       inkscape:collect="always"
       id="linearGradient9353">
      <stop
         style="stop-color:#ac9d93;stop-opacity:1"
         offset="0"
         id="stop9355" />
      <stop
         style="stop-color:#917c6f;stop-opacity:1"
         offset="1"
         id="stop9357" />
    </linearGradient>
    <clipPath
       clipPathUnits="userSpaceOnUse"
       id="clipPath9366">
      <path
         style="fill:#f2f2f2;fill-opacity:1;stroke:none"
         d="M 33,28 33,45 8,45 C 5.23,45 3,42.77 3,40 L 3,8 C 3,5.23 5.23,3 8,3 l 31,0 0,15 c 0,4 -6,6 -6,10 z"
         id="path9368"
         inkscape:connector-curvature="0"
         sodipodi:nodetypes="cccsssccc" />
    </clipPath>
    <filter
       id="filter9392"
       inkscape:label="Invert"
       x="0"
       y="0"
       width="1"
       height="1"
       inkscape:menu="Color"
       inkscape:menu-tooltip="Invert colors"
       color-interpolation-filters="sRGB">
      <feColorMatrix
         id="feColorMatrix9394"
         type="saturate"
         values="1"
         result="fbSourceGraphic" />
      <feColorMatrix
         id="feColorMatrix9396"
         in="fbSourceGraphic"
         values="-1 0 0 0 1 0 -1 0 0 1 0 0 -1 0 1 0 0 0 1 0 " />
    </filter>
    <linearGradient
       inkscape:collect="always"
       xlink:href="#linearGradient9555"
       id="linearGradient3840"
       gradientUnits="userSpaceOnUse"
       x1="10"
       y1="-24"
       x2="38"
       y2="-46" />
    <radialGradient
       inkscape:collect="always"
       xlink:href="#linearGradient9353"
       id="radialGradient3842"
       gradientUnits="userSpaceOnUse"
       gradientTransform="matrix(-1.0868165,0.45576174,-0.72222219,-1.7222222,52.26014,26.980003)"
       cx="20"
       cy="14.571428"
       fx="20"
       fy="14.571428"
       r="18" />
    <radialGradient
       inkscape:collect="always"
       xlink:href="#linearGradient9353"
       id="radialGradient3849"
       gradientUnits="userSpaceOnUse"
       gradientTransform="matrix(-1.0868165,0.45576174,-0.72222219,-1.7222222,52.26014,26.980003)"
       cx="20"
       cy="14.571428"
       fx="20"
       fy="14.571428"
       r="18" />
    <linearGradient
       inkscape:collect="always"
       xlink:href="#linearGradient3020"
       id="linearGradient3853"
       gradientUnits="userSpaceOnUse"
       x1="10"
       y1="-24"
       x2="38"
       y2="-46"
       gradientTransform="matrix(0.95238095,0,0,0.95238095,1.047619,-1.1428571)" />
    <linearGradient
       inkscape:collect="always"
       xlink:href="#linearGradient3814"
       id="linearGradient3055"
       x1="13"
       y1="31"
       x2="24"
       y2="28"
       gradientUnits="userSpaceOnUse"
       spreadMethod="reflect"
       gradientTransform="matrix(0.65340911,0,0,0.65340911,8.3135995,7.1704539)" />
    <linearGradient
       inkscape:collect="always"
       xlink:href="#linearGradient3836"
       id="linearGradient3835"
       x1="32"
       y1="32"
       x2="24"
       y2="33"
       gradientUnits="userSpaceOnUse"
       spreadMethod="reflect"
       gradientTransform="matrix(0.65340911,0,0,0.65340911,8.3135995,7.8238631)" />
    <linearGradient
       inkscape:collect="always"
       xlink:href="#linearGradient3049"
       id="linearGradient3868"
       gradientUnits="userSpaceOnUse"
       spreadMethod="reflect"
       x1="14"
       y1="30"
       x2="24"
       y2="28" />
    <linearGradient
       inkscape:collect="always"
       xlink:href="#linearGradient3049"
       id="linearGradient3872"
       gradientUnits="userSpaceOnUse"
       spreadMethod="reflect"
       x1="12"
       y1="31"
       x2="24"
       y2="28" />
    <linearGradient
       inkscape:collect="always"
       xlink:href="#linearGradient3040"
       id="linearGradient3881"
       gradientUnits="userSpaceOnUse"
       spreadMethod="reflect"
       x1="26"
       y1="29"
       x2="29"
       y2="27"
       gradientTransform="matrix(0.65340911,0,0,0.65340911,8.3135995,7.1704539)" />
    <linearGradient
       inkscape:collect="always"
       xlink:href="#linearGradient3820"
       id="linearGradient3891"
       gradientUnits="userSpaceOnUse"
       spreadMethod="reflect"
       x1="26"
       y1="30"
       x2="29"
       y2="28"
       gradientTransform="matrix(-0.65340911,0,0,0.65340911,39.677237,7.1704539)" />
    <filter
       inkscape:collect="always"
       id="filter3961">
      <feGaussianBlur
         inkscape:collect="always"
         stdDeviation="0.25420328"
         id="feGaussianBlur3963" />
    </filter>
  </defs>
  <sodipodi:namedview
     id="base"
     pagecolor="#ffffff"
     bordercolor="#666666"
     borderopacity="1.0"
     inkscape:pageopacity="0.0"
     inkscape:pageshadow="2"
     inkscape:zoom="16.604167"
     inkscape:cx="16.605845"
     inkscape:cy="29.463924"
     inkscape:current-layer="layer1"
     showgrid="true"
     inkscape:grid-bbox="true"
     inkscape:document-units="px"
     inkscape:window-width="1280"
     inkscape:window-height="984"
     inkscape:window-x="-2"
     inkscape:window-y="19"
     inkscape:window-maximized="1"
     inkscape:snap-global="true"
     showguides="true"
     inkscape:guide-bbox="true">
    <inkscape:grid
       type="xygrid"
       id="grid3828"
       empspacing="2"
       visible="true"
       enabled="true"
       snapvisiblegridlinesonly="true" />
  </sodipodi:namedview>
  <metadata
     id="metadata3726">
    <rdf:RDF>
      <cc:Work
         rdf:about="">
        <dc:format>image/svg+xml</dc:format>
        <dc:type
           rdf:resource="http://purl.org/dc/dcmitype/StillImage" />
        <dc:title />
      </cc:Work>
    </rdf:RDF>
  </metadata>
  <g
     id="layer1"
     inkscape:label="Layer 1"
     inkscape:groupmode="layer">
    <rect
       style="opacity:0.48936169;fill:none;stroke:none"
       id="border"
       width="48"
       height="48"
       x="0"
       y="0" />
    <rect
       ry="5"
       rx="5"
       y="3"
       x="3"
       height="42"
       width="42"
       id="rect3000"
       style="fill:#333333;fill-opacity:1;stroke:none;filter:url(#filter3794)"
       transform="matrix(0,1,-1,0,48,0)" />
    <path
       style="fill:url(#linearGradient3853);fill-opacity:1;stroke:none"
       d="m 6,-44 32,0 c 2,0 4,2 4,4 l 0,32 c 0,2 -2,4 -4,4 L 6,-4 C 4,-4 2,-6 2,-8 l 0,-32 c 0,-2 2,-4 4,-4 z"
       id="rect2995"
       inkscape:connector-curvature="0"
       sodipodi:nodetypes="sssssssss"
       transform="matrix(0,1,-1,0,0,0)" />
    <path
       style="opacity:0.98514847;fill:#222b00;fill-opacity:1;stroke:none;filter:url(#filter3961)"
       d="m 20.132965,22.390413 -6.181819,6.427768 c -1.468308,1.526725 0.69255,2.553232 0.772727,2.553232 l 0.772727,0 -0.772727,-0.23505 c 0,0.725718 1.082184,1.451434 2.318182,1.451434 L 24,35.271855 30.951146,32.587797 c 0.642872,0 2.318181,-0.725716 2.318181,-1.451434 0,0 0.0018,-0.0026 0,-0.232255 0,0 2.230128,-0.546096 0.772728,-2.085927 l -6.181819,-6.531454 c -0.424828,-0.448857 -2.313915,-1.370521 -3.85937,-1.370521 -1.545454,0 -3.095175,0.701481 -3.867901,1.474207 z"
       id="path3861"
       inkscape:connector-curvature="0"
       sodipodi:nodetypes="csscccccccsscc"
       transform="matrix(0.85687257,0,0,0.89843752,3.4343162,1.2080958)" />
    <path
       style="fill:#2b2200;fill-opacity:1;stroke:none"
       d="m 20.728373,24.8125 -4.573865,3.920455 c 0,0.653408 0.538674,1.164699 1.845492,1.164699 L 23.995418,32 30,29.897654 c 1.306818,0 1.836328,-0.511291 1.836328,-1.164699 L 27.262464,24.8125 z"
       id="path3837"
       inkscape:connector-curvature="0"
       sodipodi:nodetypes="cccccccc" />
    <path
       sodipodi:nodetypes="cccccccc"
       inkscape:connector-curvature="0"
       id="path3047"
       d="m 21.381781,25.465909 -4.573863,3.267046 c 0,0.653408 0.653409,0.653408 1.306818,0.653408 l 5.880682,1.960228 5.880682,-1.960228 c 0.653409,0 1.306818,0 1.306818,-0.653408 l -4.573864,-3.267046 z"
       style="fill:url(#linearGradient3835);fill-opacity:1;stroke:none" />
    <path
       sodipodi:nodetypes="cccsc"
       inkscape:connector-curvature="0"
       id="path3873"
       d="m 23.322972,31.126437 c 0,-3.666388 0.677028,-1.97081 0.677028,-1.97081 0,0 0.677028,-1.705875 0.677028,1.97081 -0.360461,0.115587 -0.655981,0.223901 -0.679585,0.221927 -0.02887,-0.0024 -0.368953,-0.124406 -0.674471,-0.221927 z"
       style="opacity:0.98514847;fill:#e5ff80;fill-opacity:1;stroke:none" />
    <path
       style="fill:#d4aa00;fill-opacity:1;stroke:none"
       d="m 21.381781,25.465909 -4.573863,3.267046 c 0,0.653408 0.653409,0.653408 1.306818,0.653408 l 5.880682,1.960228 5.880682,-1.960228 c 0.653409,0 1.306818,0 1.306818,-0.653408 l -4.573864,-3.267046 z m 0,0.653409 5.227273,0 3.920455,2.613637 c -0.653409,0 0,0 -0.653409,0 l -5.880682,1.960227 -5.227273,-1.960227 c -0.653409,0 -0.653409,0 -1.306818,0 z"
       id="path3830"
       inkscape:connector-curvature="0"
       sodipodi:nodetypes="cccccccccccccccc" />
    <path
       sodipodi:nodetypes="cccccccsc"
       inkscape:connector-curvature="0"
       id="path3825"
       d="m 21.381781,21.545455 -5.227273,5.880681 c -1.306817,1.306819 0.585614,1.306819 0.65341,1.306819 L 24,28.897654 31.182918,28.732955 c 0,0 1.960227,0 0.65341,-1.306819 L 26.609054,21.545455 C 25.954952,20.891352 24.653409,22 24,22 23.346591,22 22.034497,20.892739 21.381781,21.545455 z"
       style="fill:#2b2200;fill-opacity:1;stroke:none" />
    <path
       style="fill:url(#linearGradient3055);fill-opacity:1;stroke:none"
       d="m 21.381781,22.198863 -4.573863,5.227273 c -0.65341,0.653409 0.653409,0.653409 0.721205,0.653409 l 13.000386,0 c 0,0 1.306819,0 0.653409,-0.653409 L 26.609054,22.198863 C 25.954951,21.544759 25.306819,22 24,22 c -1.306818,0 -1.965505,-0.453851 -2.618219,0.198863 z"
       id="path3045"
       inkscape:connector-curvature="0"
       sodipodi:nodetypes="ccccccsc" />
    <path
       style="fill:#d4aa00;fill-opacity:1;stroke:none"
       d="m 21.381781,22.198863 -4.573863,5.227273 c -0.608498,0.695426 0.647213,0.6466 0.714666,0.653409 L 24,28 l 6.529509,0.07954 c 0,0 1.261907,0.04201 0.653409,-0.653409 L 26.609054,22.198858 C 25.999909,21.502692 25.306819,22 24,22 22.693182,22 22.035191,21.54545 21.381781,22.198863 z M 24,22 c 1.306819,0 2.016857,0.141634 2.609054,0.852272 l 3.267046,3.920455 c 0.591568,0.709883 0,0.653409 0,0.653409 L 24,27.897654 18.114736,27.426136 c -0.06758,-0.0054 -0.591569,0.05648 0,-0.653409 l 3.267045,-3.920455 C 22.035191,22.198863 22.693182,22 24,22 z"
       id="path3870"
       inkscape:connector-curvature="0"
       sodipodi:nodetypes="cssccsscccssccsscc" />
    <path
       sodipodi:type="arc"
       style="opacity:1;fill:#554400;fill-opacity:1;stroke:none"
       id="path3875"
       sodipodi:cx="21.5"
       sodipodi:cy="25"
       sodipodi:rx="1.5"
       sodipodi:ry="1"
       d="m 23,25 a 1.5,1 0 1 1 -3,0 1.5,1 0 1 1 3,0 z"
       transform="matrix(0,0.65340911,-0.65340911,0,38.697123,9.4573858)" />
    <path
       d="m 23,25 a 1.5,1 0 1 1 -3,0 1.5,1 0 1 1 3,0 z"
       sodipodi:ry="1"
       sodipodi:rx="1.5"
       sodipodi:cy="25"
       sodipodi:cx="21.5"
       id="path3877"
       style="opacity:1;fill:#554400;fill-opacity:1;stroke:none"
       sodipodi:type="arc"
       transform="matrix(0,0.65340911,-0.65340911,0,41.964169,9.4573858)" />
    <path
       sodipodi:nodetypes="ccccc"
       inkscape:connector-curvature="0"
       id="path3879"
       d="m 27.262464,28.079545 3.267045,0 c 0,0 1.306819,0 0.653409,-0.653409 l -4.573864,-5.227273 c -2.613636,0.653409 -1.960227,4.573864 0.65341,5.880682 z"
       style="opacity:0.5;fill:url(#linearGradient3881);fill-opacity:1;stroke:none" />
    <path
       style="opacity:0.5;fill:url(#linearGradient3891);fill-opacity:1;stroke:none"
       d="m 20.728373,28.079545 -3.267046,0 c 0,0 -1.306819,0 -0.653409,-0.653409 l 4.573863,-5.227273 c 2.613637,0.653409 1.960228,4.573864 -0.653408,5.880682 z"
       id="path3889"
       inkscape:connector-curvature="0"
       sodipodi:nodetypes="ccccc" />
    <path
       style="opacity:0.98514847;fill:#e5ff80;fill-opacity:1;stroke:none"
       d="m 23.101562,22.041925 c 0,8.959213 0.898438,5.220859 0.898438,5.220859 0,0 0.898438,3.763516 0.898438,-5.220859 C 24,21.966641 24,21.966641 23.101562,22.041925 z"
       id="path3965"
       inkscape:connector-curvature="0"
       sodipodi:nodetypes="cccc" />
    <path
       d="m 18,16 a 4,4 0 1 1 -8,0 4,4 0 1 1 8,0 z"
       sodipodi:ry="4"
       sodipodi:rx="4"
       sodipodi:cy="16"
       sodipodi:cx="14"
       id="path3857"
       style="fill:#445500;fill-opacity:1;stroke:none"
       sodipodi:type="arc"
       transform="matrix(0.89843752,0,0,1.1230469,20.40625,-1.460938)" />
    <path
       transform="matrix(0.89843752,0,0,0.89843752,20.40625,2.2187498)"
       sodipodi:type="arc"
       style="fill:#222b00;fill-opacity:1;stroke:none"
       id="path3845"
       sodipodi:cx="14"
       sodipodi:cy="16"
       sodipodi:rx="4"
       sodipodi:ry="4"
       d="m 18,16 a 4,4 0 1 1 -8,0 4,4 0 1 1 8,0 z" />
    <path
       d="m 18,16 a 4,4 0 1 1 -8,0 4,4 0 1 1 8,0 z"
       sodipodi:ry="4"
       sodipodi:rx="4"
       sodipodi:cy="16"
       sodipodi:cx="14"
       id="path3841"
       style="fill:#222b00;fill-opacity:1;stroke:none"
       sodipodi:type="arc"
       transform="matrix(0.67382805,0,0,0.67382805,23.550783,5.8125013)" />
    <path
       transform="matrix(0.89843752,0,0,1.1230469,2.4374994,-1.460938)"
       sodipodi:type="arc"
       style="fill:#445500;fill-opacity:1;stroke:none"
       id="path3859"
       sodipodi:cx="14"
       sodipodi:cy="16"
       sodipodi:rx="4"
       sodipodi:ry="4"
       d="m 18,16 a 4,4 0 1 1 -8,0 4,4 0 1 1 8,0 z" />
    <path
       d="m 18,16 a 4,4 0 1 1 -8,0 4,4 0 1 1 8,0 z"
       sodipodi:ry="4"
       sodipodi:rx="4"
       sodipodi:cy="16"
       sodipodi:cx="14"
       id="path3849"
       style="fill:#222b00;fill-opacity:1;stroke:none"
       sodipodi:type="arc"
       transform="matrix(0.89843752,0,0,0.89843752,2.4374994,2.2187498)" />
    <path
       transform="matrix(0.67382805,0,0,0.67382805,5.582032,5.8125013)"
       sodipodi:type="arc"
       style="fill:#222b00;fill-opacity:1;stroke:none"
       id="path3851"
       sodipodi:cx="14"
       sodipodi:cy="16"
       sodipodi:rx="4"
       sodipodi:ry="4"
       d="m 18,16 a 4,4 0 1 1 -8,0 4,4 0 1 1 8,0 z" />
    <path
       transform="matrix(0.42542892,0,0,-0.42542892,27.059621,24.806862)"
       sodipodi:type="arc"
       style="fill:#eeffaa;fill-opacity:1;stroke:none"
       id="path3975"
       sodipodi:cx="14"
       sodipodi:cy="16"
       sodipodi:rx="2.3505695"
       sodipodi:ry="2.3505695"
       d="m 16.350569,16 a 2.3505695,2.3505695 0 1 1 -4.701138,0 2.3505695,2.3505695 0 1 1 4.701138,0 z" />
    <path
       style="fill:#aad400;fill-opacity:1;stroke:none"
       d="M 8,2 C 6,2 4,4 4,6 l 0,32 c 0,2 2,4 4,4 l 32,0 c 2,0 4,-2 4,-4 L 44,6 C 44,4 42,2 40,2 z m 2,1 28,0 c 3,0 5,1 5,5 l 0,28 c 0,4 -2,5 -5,5 L 10,41 C 7,41 5,40 5,36 L 5,8 C 5,4 7,3 10,3 z"
       id="rect3072"
       inkscape:connector-curvature="0"
       sodipodi:nodetypes="ssssssssssssssssss" />
    <path
       id="path3811"
       d="M 8,1 C 5,1 3,3 3,6 l 0,32 c 0,3 2,5 5,5 l 32,0 c 3,0 5,-2 5,-5 L 45,6 C 45,3 43,1 40,1 z m 0,1 32,0 c 2,0 4,2 4,4 l 0,32 c 0,2 -2,4 -4,4 L 8,42 C 6,42 4,40 4,38 L 4,6 C 4,4 6,2 8,2 z"
       style="fill:#445500;fill-opacity:1;stroke:none"
       inkscape:connector-curvature="0"
       sodipodi:nodetypes="ssssccccscccccsssc" />
    <g
       id="g3069"
       transform="translate(-12.375,-13.787005)">
      <path
         sodipodi:nodetypes="ccccccccccccccccc"
         inkscape:connector-curvature="0"
         id="path3927"
         d="m 33.375,21.787005 0.507813,-0.609375 0.898437,-0.898438 0.898438,-0.898437 0.695312,-0.59375 0,-0.898437 -1,-0.101563 2,-1 -2,-1 3,0 0.898438,1.796875 -1.796875,0.898437 1.898437,2.304688 -3.695312,-0.507813 0,1.796875 L 32.375,21.787005 z"
         style="opacity:0.75;fill:#e5ff80;fill-opacity:1;stroke:none" />
      <path
         style="fill:#445500;fill-opacity:1;stroke:none"
         d="m 33.882813,21.17763 1.796875,0 0,-0.898438 3.695312,0.507813 -1.898437,-2.304688 1.796875,-0.898437 -0.943607,-1.826988 0.898438,0 2.146731,2.030113 -2,1 2,3 -5,-1 1,3 -5,-2 z"
         id="path3925"
         inkscape:connector-curvature="0"
         sodipodi:nodetypes="ccccccccccccccc" />
    </g>
    <path
       d="m 16.350569,16 a 2.3505695,2.3505695 0 1 1 -4.701138,0 2.3505695,2.3505695 0 1 1 4.701138,0 z"
       sodipodi:ry="2.3505695"
       sodipodi:rx="2.3505695"
       sodipodi:cy="16"
       sodipodi:cx="14"
       id="path3091"
       style="fill:#eef4d7;fill-opacity:1;stroke:none;opacity:0"
       sodipodi:type="arc"
       transform="matrix(0.21546279,0,0,-0.21546279,29.958155,18.505767)" />
    <path
       transform="matrix(0.21546279,0,0,-0.21546279,12.010853,18.505767)"
       sodipodi:type="arc"
       style="fill:#eef4d7;fill-opacity:1;stroke:none;opacity:0"
       id="path3093"
       sodipodi:cx="14"
       sodipodi:cy="16"
       sodipodi:rx="2.3505695"
       sodipodi:ry="2.3505695"
       d="m 16.350569,16 a 2.3505695,2.3505695 0 1 1 -4.701138,0 2.3505695,2.3505695 0 1 1 4.701138,0 z" />
    <path
       style="fill:#222b00;fill-opacity:1;stroke:none"
       d="m 26.978309,15.979418 c 4.450692,5.019097 6.154606,3.711155 13.097198,1.850893 -2.525961,0.986874 -5.77484,3.059524 -8.67824,2.325327 -1.964862,-0.496864 -2.38847,-0.06963 -4.418958,-4.17622 z"
       id="path3097"
       inkscape:connector-curvature="0"
       sodipodi:nodetypes="ccac" />
    <g
       transform="matrix(-0.99989685,-0.01436269,-0.01436269,0.99989685,48.388138,-1.7202484)"
       id="g3852"
       inkscape:transform-center-x="3.0493908"
       inkscape:transform-center-y="2.5470701">
      <path
         style="fill:#445500;fill-opacity:1;stroke:none"
         d="m 34.132915,34.447469 -1.39531,-1.431537 1.285127,2.519613 0,0 6.015731,0.900544 -2.145216,-5.033027 3.354382,-1.933889 -4.275538,-0.257981 0,-2 -1,2 1.80474,1.234487 -1.568428,1.593748 2.236312,2.828234 z"
         id="path3854"
         inkscape:connector-curvature="0"
         sodipodi:nodetypes="cccccccccccccc" />
      <path
         sodipodi:nodetypes="cccccccccccccc"
         inkscape:connector-curvature="0"
         id="path3856"
         d="m 32.737605,33.015932 1.39531,1.431537 4.3118,0.420192 -1.758758,-2.224278 1.256996,-1.374946 -0.714973,-0.268109 0.548851,-0.554649 -1.80474,-1.234487 1,-2 -3,2 2.853555,0.925865 -1.853555,1.074135 0.92769,1.77942 z"
         style="opacity:0.75;fill:#e5ff80;fill-opacity:1;stroke:none" />
    </g>
    <path
       sodipodi:nodetypes="ccac"
       inkscape:connector-curvature="0"
       id="path3860"
       d="m 21,16 c -4.450692,5.019098 -6.154606,3.711155 -13.0971976,1.850894 2.5259596,0.986874 5.7748396,3.059524 8.6782396,2.325327 C 18.545904,19.679356 18.969512,20.106591 21,16 z"
       style="fill:#222b00;fill-opacity:1;stroke:none" />
    <path
       style="opacity:0.5;fill:#e5ff80;fill-opacity:1;stroke:none"
       d="M 29,16 C 32.363377,10.390297 35.254963,11.653554 41.097198,14.149107 38.571238,13.162232 36.699194,9.5268916 34,10 c -2.564324,0.449469 -4,1 -5,6 z"
       id="path3876"
       inkscape:connector-curvature="0"
       sodipodi:nodetypes="ccac" />
    <path
       sodipodi:nodetypes="ccac"
       inkscape:connector-curvature="0"
       id="path3878"
       d="M 29,16 C 33.450692,10.980903 34.154606,12.288845 41.097198,14.149107 38.571237,13.162233 35.269637,10.905954 32.418958,11.82378 30.706455,12.37515 30,13 29,16 z"
       style="fill:#222b00;fill-opacity:1;stroke:none" />
    <path
       sodipodi:nodetypes="ccac"
       inkscape:connector-curvature="0"
       id="path3880"
       d="m 19,16 c -3.363377,-5.609703 -6.157765,-4.495553 -12,-2 2.52596,-0.986875 5.118455,-4.7652359 8,-4 2.323176,0.616953 4,3 4,6 z"
       style="opacity:0.5;fill:#e5ff80;fill-opacity:1;stroke:none" />
    <path
       style="fill:#222b00;fill-opacity:1;stroke:none"
       d="M 19,16 C 15,11 13.942592,12.139738 7,14 9.525961,13.013126 12.778279,10.900568 15.581042,11.82378 17.289805,12.386636 19,14 19,16 z"
       id="path3882"
       inkscape:connector-curvature="0"
       sodipodi:nodetypes="ccac" />
    <g
       inkscape:transform-center-y="0.00051424953"
       inkscape:transform-center-x="4.6705241"
       id="g3884"
       transform="matrix(-0.74393047,-0.66825703,-0.66825703,0.74393047,58.448875,28.595165)">
      <path
         sodipodi:nodetypes="cccccccccccccc"
         inkscape:connector-curvature="0"
         id="path3886"
         d="m 34.132915,34.447469 -1.39531,-1.431537 1.285127,2.519613 0,0 6.015731,0.900544 -2.145216,-5.033027 3.354382,-1.933889 -4.275538,-0.257981 0,-2 -1,2 1.80474,1.234487 -1.568428,1.593748 2.236312,2.828234 z"
         style="fill:#445500;fill-opacity:1;stroke:none" />
      <path
         style="opacity:0.75;fill:#e5ff80;fill-opacity:1;stroke:none"
         d="m 32.737605,33.015932 1.39531,1.431537 4.3118,0.420192 -2.236312,-2.828234 1.568428,-1.593748 -1.80474,-1.234487 1,-2 -3,2 2.853555,0.925865 -1.853555,1.074135 0.799969,1.466278 z"
         id="path3888"
         inkscape:connector-curvature="0"
         sodipodi:nodetypes="cccccccccccc" />
    </g>
    <g
       id="g3902"
       transform="translate(-0.17677669,0)"
       style="opacity:1">
      <g
         transform="matrix(0.99989685,-0.01436269,0.01436269,0.99989685,-0.25623143,-1.7202484)"
         id="g3890"
         inkscape:transform-center-x="-3.0493907"
         inkscape:transform-center-y="2.5470701">
        <path
           style="fill:#445500;fill-opacity:1;stroke:none"
           d="m 34.132915,34.447469 -1.39531,-1.431537 1.285127,2.519613 0,0 6.015731,0.900544 -2.145216,-5.033027 3.354382,-1.933889 -4.275538,-0.257981 0,-2 -1,2 1.80474,1.234487 -1.568428,1.593748 2.236312,2.828234 z"
           id="path3892"
           inkscape:connector-curvature="0"
           sodipodi:nodetypes="cccccccccccccc" />
        <path
           sodipodi:nodetypes="cccccccccccccc"
           inkscape:connector-curvature="0"
           id="path3894"
           d="m 32.737605,33.015932 1.39531,1.431537 4.3118,0.420192 -1.758758,-2.224278 1.256996,-1.374946 -0.714973,-0.268109 0.548851,-0.554649 -1.80474,-1.234487 1,-2 -3,2 2.853555,0.925865 -1.853555,1.074135 0.92769,1.77942 z"
           style="opacity:0.5;fill:#e5ff80;fill-opacity:1;stroke:none" />
      </g>
      <g
         inkscape:transform-center-y="0.00051424953"
         inkscape:transform-center-x="-4.670524"
         id="g3896"
         transform="matrix(0.74393047,-0.66825703,0.66825703,0.74393047,-10.316968,28.595165)">
        <path
           sodipodi:nodetypes="cccccccccccccc"
           inkscape:connector-curvature="0"
           id="path3898"
           d="m 34.132915,34.447469 -1.39531,-1.431537 1.285127,2.519613 0,0 6.015731,0.900544 -2.145216,-5.033027 3.354382,-1.933889 -4.275538,-0.257981 0,-2 -1,2 1.80474,1.234487 -1.568428,1.593748 2.236312,2.828234 z"
           style="fill:#445500;fill-opacity:1;stroke:none" />
        <path
           style="opacity:0.5;fill:#e5ff80;fill-opacity:1;stroke:none"
           d="m 32.737605,33.015932 1.39531,1.431537 4.3118,0.420192 -2.236312,-2.828234 1.568428,-1.593748 -1.80474,-1.234487 1,-2 -3,2 2.853555,0.925865 -1.853555,1.074135 0.799969,1.466278 z"
           id="path3900"
           inkscape:connector-curvature="0"
           sodipodi:nodetypes="cccccccccccc" />
      </g>
    </g>
    <path
       sodipodi:nodetypes="ccccccccc"
       inkscape:connector-curvature="0"
       id="path3912"
       d="m 22,26 -1,2 c 1,-1.666667 1,-7 3,-7 2,0 2,5.333333 3,7 l -1,-2 -1,-3 -1,-1 -1,1 z"
       style="opacity:0.25;fill:#222b00;fill-opacity:1;stroke:none" />
    <path
       d="m 16.350569,16 a 2.3505695,2.3505695 0 1 1 -4.701138,0 2.3505695,2.3505695 0 1 1 4.701138,0 z"
       sodipodi:ry="2.3505695"
       sodipodi:rx="2.3505695"
       sodipodi:cy="16"
       sodipodi:cx="14"
       id="path3916"
       style="fill:#eeffaa;fill-opacity:1;stroke:none"
       sodipodi:type="arc"
       transform="matrix(0.42542892,0,0,-0.42542892,9.0596213,24.806862)" />
  </g>
</svg>
