<?xml version="1.0" encoding="UTF-8" standalone="no"?>
<!-- Created with Inkscape (http://www.inkscape.org/) -->

<svg
   xmlns:dc="http://purl.org/dc/elements/1.1/"
   xmlns:cc="http://creativecommons.org/ns#"
   xmlns:rdf="http://www.w3.org/1999/02/22-rdf-syntax-ns#"
   xmlns:svg="http://www.w3.org/2000/svg"
   xmlns="http://www.w3.org/2000/svg"
   xmlns:xlink="http://www.w3.org/1999/xlink"
   xmlns:sodipodi="http://sodipodi.sourceforge.net/DTD/sodipodi-0.dtd"
   xmlns:inkscape="http://www.inkscape.org/namespaces/inkscape"
   width="48px"
   height="48px"
   id="svg3721"
   version="1.1"
   inkscape:version="0.48.0 r9654"
   sodipodi:docname="dolphin.svg"
   inkscape:export-filename="/home/islington/Projects/Current/Indigo/48x48/apps/dolphin.png"
   inkscape:export-xdpi="90"
   inkscape:export-ydpi="90">
  <defs
     id="defs3723">
    <linearGradient
       inkscape:collect="always"
       id="linearGradient3915">
      <stop
         style="stop-color:#e6e6e6;stop-opacity:1"
         offset="0"
         id="stop3917" />
      <stop
         style="stop-color:#b3b3b3;stop-opacity:1"
         offset="1"
         id="stop3919" />
    </linearGradient>
    <linearGradient
       id="linearGradient4002">
      <stop
         style="stop-color:#cccccc;stop-opacity:1"
         offset="0"
         id="stop4004" />
      <stop
         style="stop-color:#e6e6e6;stop-opacity:1"
         offset="1"
         id="stop4006" />
    </linearGradient>
    <linearGradient
       id="linearGradient3927">
      <stop
         id="stop3929"
         offset="0"
         style="stop-color:#e6e6e6;stop-opacity:1" />
      <stop
         id="stop3931"
         offset="1"
         style="stop-color:#eaeaea;stop-opacity:1;" />
    </linearGradient>
    <filter
       color-interpolation-filters="sRGB"
       inkscape:collect="always"
       id="filter3794">
      <feGaussianBlur
         inkscape:collect="always"
         stdDeviation="1.223301"
         id="feGaussianBlur3796" />
    </filter>
    <linearGradient
       inkscape:collect="always"
       xlink:href="#linearGradient9555"
       id="linearGradient9561"
       x1="10"
       y1="-24"
       x2="38"
       y2="-46"
       gradientUnits="userSpaceOnUse" />
    <linearGradient
       inkscape:collect="always"
       id="linearGradient9555">
      <stop
         style="stop-color:#514641;stop-opacity:1;"
         offset="0"
         id="stop9557" />
      <stop
         style="stop-color:#302925;stop-opacity:1"
         offset="1"
         id="stop9559" />
    </linearGradient>
    <radialGradient
       inkscape:collect="always"
       xlink:href="#linearGradient9353"
       id="radialGradient9359"
       cx="20"
       cy="14.571428"
       fx="20"
       fy="14.571428"
       r="18"
       gradientTransform="matrix(-1.0868165,0.45576174,-0.72222219,-1.7222222,52.26014,26.980003)"
       gradientUnits="userSpaceOnUse" />
    <linearGradient
       inkscape:collect="always"
       id="linearGradient9353">
      <stop
         style="stop-color:#ac9d93;stop-opacity:1"
         offset="0"
         id="stop9355" />
      <stop
         style="stop-color:#917c6f;stop-opacity:1"
         offset="1"
         id="stop9357" />
    </linearGradient>
    <clipPath
       clipPathUnits="userSpaceOnUse"
       id="clipPath9366">
      <path
         style="fill:#f2f2f2;fill-opacity:1;stroke:none"
         d="M 33,28 33,45 8,45 C 5.23,45 3,42.77 3,40 L 3,8 C 3,5.23 5.23,3 8,3 l 31,0 0,15 c 0,4 -6,6 -6,10 z"
         id="path9368"
         inkscape:connector-curvature="0"
         sodipodi:nodetypes="cccsssccc" />
    </clipPath>
    <filter
       id="filter9392"
       inkscape:label="Invert"
       x="0"
       y="0"
       width="1"
       height="1"
       inkscape:menu="Color"
       inkscape:menu-tooltip="Invert colors"
       color-interpolation-filters="sRGB">
      <feColorMatrix
         id="feColorMatrix9394"
         type="saturate"
         values="1"
         result="fbSourceGraphic" />
      <feColorMatrix
         id="feColorMatrix9396"
         in="fbSourceGraphic"
         values="-1 0 0 0 1 0 -1 0 0 1 0 0 -1 0 1 0 0 0 1 0 " />
    </filter>
    <linearGradient
       inkscape:collect="always"
       xlink:href="#linearGradient9555"
       id="linearGradient3840"
       gradientUnits="userSpaceOnUse"
       x1="10"
       y1="-24"
       x2="38"
       y2="-46" />
    <radialGradient
       inkscape:collect="always"
       xlink:href="#linearGradient9353"
       id="radialGradient3842"
       gradientUnits="userSpaceOnUse"
       gradientTransform="matrix(-1.0868165,0.45576174,-0.72222219,-1.7222222,52.26014,26.980003)"
       cx="20"
       cy="14.571428"
       fx="20"
       fy="14.571428"
       r="18" />
    <radialGradient
       inkscape:collect="always"
       xlink:href="#linearGradient9353"
       id="radialGradient3849"
       gradientUnits="userSpaceOnUse"
       gradientTransform="matrix(-1.0868165,0.45576174,-0.72222219,-1.7222222,52.26014,26.980003)"
       cx="20"
       cy="14.571428"
       fx="20"
       fy="14.571428"
       r="18" />
    <linearGradient
       inkscape:collect="always"
       xlink:href="#linearGradient3864"
       id="linearGradient3853"
       gradientUnits="userSpaceOnUse"
       x1="10"
       y1="-24"
       x2="38"
       y2="-46"
       gradientTransform="matrix(0.95238095,0,0,0.95238095,1.047619,-1.1428571)" />
    <filter
       color-interpolation-filters="sRGB"
       inkscape:menu-tooltip="Invert colors"
       inkscape:menu="Color"
       height="1"
       width="1"
       y="0"
       x="0"
       inkscape:label="Invert"
       id="filter9392-9">
      <feColorMatrix
         result="fbSourceGraphic"
         values="1"
         type="saturate"
         id="feColorMatrix9394-0" />
      <feColorMatrix
         values="-1 0 0 0 1 0 -1 0 0 1 0 0 -1 0 1 0 0 0 1 0 "
         in="fbSourceGraphic"
         id="feColorMatrix9396-9" />
    </filter>
    <clipPath
       id="clipPath9366-9"
       clipPathUnits="userSpaceOnUse">
      <path
         sodipodi:nodetypes="cccsssccc"
         inkscape:connector-curvature="0"
         id="path9368-4"
         d="M 33,28 33,45 8,45 C 5.23,45 3,42.77 3,40 L 3,8 C 3,5.23 5.23,3 8,3 l 31,0 0,15 c 0,4 -6,6 -6,10 z"
         style="fill:#f2f2f2;fill-opacity:1;stroke:none" />
    </clipPath>
    <linearGradient
       inkscape:collect="always"
       id="linearGradient3864">
      <stop
         style="stop-color:#e6e6e6;stop-opacity:1"
         offset="0"
         id="stop3866" />
      <stop
         style="stop-color:#cccccc;stop-opacity:1"
         offset="1"
         id="stop3868" />
    </linearGradient>
    <linearGradient
       inkscape:collect="always"
       xlink:href="#linearGradient3915"
       id="linearGradient3808"
       x1="24"
       y1="8"
       x2="24"
       y2="19"
       gradientUnits="userSpaceOnUse" />
    <linearGradient
       inkscape:collect="always"
       xlink:href="#linearGradient3915"
       id="linearGradient3824"
       x1="24"
       y1="25"
       x2="24"
       y2="40"
       gradientUnits="userSpaceOnUse" />
  </defs>
  <sodipodi:namedview
     id="base"
     pagecolor="#ffffff"
     bordercolor="#666666"
     borderopacity="1.0"
     inkscape:pageopacity="0.0"
     inkscape:pageshadow="2"
     inkscape:zoom="8.3020833"
     inkscape:cx="-31.947841"
     inkscape:cy="25.917084"
     inkscape:current-layer="layer1"
     showgrid="true"
     inkscape:grid-bbox="true"
     inkscape:document-units="px"
     inkscape:window-width="1280"
     inkscape:window-height="984"
     inkscape:window-x="-2"
     inkscape:window-y="19"
     inkscape:window-maximized="1"
     showguides="true"
     inkscape:guide-bbox="true">
    <inkscape:grid
       type="xygrid"
       id="grid3828" />
  </sodipodi:namedview>
  <metadata
     id="metadata3726">
    <rdf:RDF>
      <cc:Work
         rdf:about="">
        <dc:format>image/svg+xml</dc:format>
        <dc:type
           rdf:resource="http://purl.org/dc/dcmitype/StillImage" />
        <dc:title />
      </cc:Work>
    </rdf:RDF>
  </metadata>
  <g
     id="layer1"
     inkscape:label="Layer 1"
     inkscape:groupmode="layer">
    <rect
       style="opacity:0.48936169;fill:none;stroke:none"
       id="border"
       width="48"
       height="48"
       x="0"
       y="0" />
    <rect
       ry="5"
       rx="5"
       y="3"
       x="3"
       height="42"
       width="42"
       id="rect3000"
       style="fill:#333333;fill-opacity:1;stroke:none;filter:url(#filter3794)"
       transform="matrix(0,1,-1,0,48,0)" />
    <path
       transform="matrix(0,1,-1,0,0,0)"
       style="fill:url(#linearGradient3853);fill-opacity:1;stroke:none"
       d="m 6,-44 32,0 c 2,0 4,2 4,4 l 0,32 c 0,2 -2,4 -4,4 L 6,-4 C 4,-4 2,-6 2,-8 l 0,-32 c 0,-2 2,-4 4,-4 z"
       id="rect2995"
       inkscape:connector-curvature="0"
       sodipodi:nodetypes="sssssssss" />
    <path
       id="path3811"
       d="M 8,1 C 5.23,1 3,3.23 3,6 l 0,32 c 0,2.77 2.23,5 5,5 l 32,0 c 3,0 5,-2.443132 5,-5 L 45,6 C 45,3.5076062 43.089526,1 40,1 z m 0,1 32,0 c 2,0 4,2 4,4 l 0,32 c 0,2 -2,4 -4,4 L 8,42 C 6,42 4,40 4,38 L 4,6 C 4,4 6,2 8,2 z"
       style="fill:#333333;fill-opacity:1;stroke:none"
       inkscape:connector-curvature="0"
       sodipodi:nodetypes="ssssccccscccccsssc" />
    <path
       style="fill:#666666;fill-opacity:1;stroke:none"
       d="M 10,4 C 8.4303334,4 7,5.54575 7,7 l 0,8.375 C 7,16.82925 8.2740834,18 9.84375,18 l 28.3125,0 C 39.725917,18 41,16.82925 41,15.375 l 0,-8.75 C 41,5 40,4 38,4 l -8,0 c 0,2 0,2 -3,2 L 21,6 C 18,6 18,6 18,4 z m 30,3 0,7.75 C 40,15.9965 38.821083,17 37.34375,17 l -26.6875,0 C 9.1789168,17 8,15.9965 8,14.75 L 8,7 C 8,6 9,5 10,5 l 6,0 c 1,0 1,2 1,3 0,1 1,2 3,2 l 8,0 c 2,0 3,-1 3,-2 0,-1 0,-3 1,-3 l 6,0 c 1,0 2,1 2,2 z"
       id="rect3933"
       inkscape:connector-curvature="0"
       sodipodi:nodetypes="ssssssssccccscsssscccccccccc" />
    <path
       style="fill:#666666;fill-opacity:1;stroke:none"
       d="M 9.84375,21 C 8.2740834,21 7,21.996905 7,23.25 l 0,14.5 C 7,39.003095 8.2740834,40 9.84375,40 l 28.3125,0 C 39.725917,40 41,39.003095 41,37.75 l 0,-14.5 C 41,21.996905 39.725917,21 38.15625,21 L 30,21 c 0,3 0,3 -3,3 l -6,0 c -3,0 -3,0 -3,-3 z m 0.8125,1 L 16,22 c 1,0 1,0 1,3 0,1 1,2 2,2 l 10,0 c 1,0 2,-1 2,-2 0,-3 0,-3 1,-3 l 5.34375,0 C 38.821083,22 40,22.91006 40,24.03125 l 0,12.9375 C 40,38.08994 38.821083,39 37.34375,39 l -26.6875,0 C 9.1789168,39 8,38.08994 8,36.96875 L 8,24.03125 C 8,22.91006 9.1789168,22 10.65625,22 z"
       id="rect3963"
       inkscape:connector-curvature="0"
       sodipodi:nodetypes="ssssssssccccssccccccssssssss" />
    <path
       sodipodi:nodetypes="csssscccccccccc"
       inkscape:connector-curvature="0"
       id="path3032"
       d="m 40,7 0,7.75 C 40,15.9965 38.821083,17 37.34375,17 l -26.6875,0 C 9.1789168,17 8,15.9965 8,14.75 L 8,7 C 8,6 9,5 10,5 l 7,0 c 0,0 0,2 0,3 0,1 1,2 3,2 l 8,0 c 2,0 3,-1 3,-2 0,-1 0,-3 0,-3 l 7,0 c 1,0 2,1 2,2 z"
       style="fill:url(#linearGradient3808);fill-opacity:1;stroke:none" />
    <path
       sodipodi:nodetypes="sccccccssssssss"
       inkscape:connector-curvature="0"
       id="path3816"
       d="M 10.65625,22 16,22 c 1,0 1,0 1,3 0,1 1,2 2,2 l 10,0 c 1,0 2,-1 2,-2 0,-3 0,-3 1,-3 l 5.34375,0 C 38.821083,22 40,22.91006 40,24.03125 l 0,12.9375 C 40,38.08994 38.821083,39 37.34375,39 l -26.6875,0 C 9.1789168,39 8,38.08994 8,36.96875 L 8,24.03125 C 8,22.91006 9.1789168,22 10.65625,22 z"
       style="fill:url(#linearGradient3824);fill-opacity:1;stroke:none" />
    <path
       sodipodi:nodetypes="ssssssssccccscssssccccccsccc"
       inkscape:connector-curvature="0"
       id="path3039"
       d="M 10,3 C 8,3 6,4 6,7 l 0,9 c 0,1.575437 1.3221675,3 2.9884068,3 L 39.042815,19 C 40.709054,19 42,17.575437 42,16 L 42,7 C 42,5 40,3 38,3 l -8,0 c -2,0 0,3 -3,3 L 21,6 C 18,6 20,3 18,3 z m 31,4 0,8.479167 C 41,16.829542 39.568225,18 38,18 L 10,18 C 8,18 6.9921125,17 7,15 L 7.0312213,7.0833333 C 7,6 8,4 10,4 l 8,0 c 0,1 0,-0.083333 0,1 0,1 0,2 1,2 l 10,0 c 0.783442,0 1,-0.7718868 1,-2 0,-1 0,-0.5668845 0,-1 l 8,0 c 2,0 3,2 3,3 z"
       style="fill:#f9f9f9;fill-opacity:1;stroke:none" />
    <path
       style="fill:#f9f9f9;fill-opacity:1;stroke:none"
       d="m 10,20 c -2,0 -4,1 -4,4 l 0,14 c 0,1.575437 1.3221675,3 2.9884068,3 L 39.042815,41 C 40.709054,41 42,39.575437 42,38 l 0,-14 c 0,-2 -2,-4 -4,-4 l -8,0 c -2,0 0,3 -3,3 l -6,0 c -3,0 -1,-3 -3,-3 z m 31,4 0,13.479167 C 41,38.829542 39.568225,40 38,40 L 10,40 C 8,40 6.9951658,39.00001 7,37 L 7.031221,24.083333 C 7,23 8,21 10,21 l 8,0 c 0,1 0,0.91667 0,2 0,1 1,1 2,1 l 8,0 c 1,0 1.981383,5.95e-4 1.990503,-0.979473 C 30,22 30,21.423536 30,21 l 8,0 c 2,0 3,2 3,3 z"
       id="path3030"
       inkscape:connector-curvature="0"
       sodipodi:nodetypes="ssssssssccccscssssccccccsccc" />
    <rect
       style="fill:#f9f9f9;fill-opacity:1;stroke:none"
       id="rect3826"
       width="12"
       height="1"
       x="18"
       y="20" />
    <rect
       y="21"
       x="18"
       height="1"
       width="12"
       id="rect3828"
       style="fill:#666666;fill-opacity:1;stroke:none" />
    <rect
       y="3"
       x="18"
       height="1"
       width="12"
       id="rect3830"
       style="fill:#f9f9f9;fill-opacity:1;stroke:none" />
    <rect
       style="fill:#666666;fill-opacity:1;stroke:none"
       id="rect3832"
       width="12"
       height="1"
       x="18"
       y="4" />
  </g>
</svg>
