<?xml version="1.0" encoding="UTF-8" standalone="no"?>
<!-- Created with Inkscape (http://www.inkscape.org/) -->

<svg
   xmlns:dc="http://purl.org/dc/elements/1.1/"
   xmlns:cc="http://creativecommons.org/ns#"
   xmlns:rdf="http://www.w3.org/1999/02/22-rdf-syntax-ns#"
   xmlns:svg="http://www.w3.org/2000/svg"
   xmlns="http://www.w3.org/2000/svg"
   xmlns:xlink="http://www.w3.org/1999/xlink"
   xmlns:sodipodi="http://sodipodi.sourceforge.net/DTD/sodipodi-0.dtd"
   xmlns:inkscape="http://www.inkscape.org/namespaces/inkscape"
   width="48px"
   height="48px"
   id="svg3721"
   version="1.1"
   inkscape:version="0.48.0 r9654"
   sodipodi:docname="presentation.svg">
  <defs
     id="defs3723">
    <linearGradient
       inkscape:collect="always"
       id="linearGradient3809">
      <stop
         style="stop-color:#6f7c91;stop-opacity:1"
         offset="0"
         id="stop3811" />
      <stop
         style="stop-color:#dbe2e3;stop-opacity:1"
         offset="1"
         id="stop3813" />
    </linearGradient>
    <linearGradient
       id="linearGradient3007"
       inkscape:collect="always">
      <stop
         id="stop3009"
         offset="0"
         style="stop-color:#4d4d4d;stop-opacity:1" />
      <stop
         id="stop3011"
         offset="1"
         style="stop-color:#333333;stop-opacity:1" />
    </linearGradient>
    <filter
       color-interpolation-filters="sRGB"
       inkscape:collect="always"
       id="filter3794">
      <feGaussianBlur
         inkscape:collect="always"
         stdDeviation="1.223301"
         id="feGaussianBlur3796" />
    </filter>
    <linearGradient
       inkscape:collect="always"
       xlink:href="#linearGradient9555"
       id="linearGradient9561"
       x1="10"
       y1="-24"
       x2="38"
       y2="-46"
       gradientUnits="userSpaceOnUse" />
    <linearGradient
       inkscape:collect="always"
       id="linearGradient9555">
      <stop
         style="stop-color:#514641;stop-opacity:1;"
         offset="0"
         id="stop9557" />
      <stop
         style="stop-color:#302925;stop-opacity:1"
         offset="1"
         id="stop9559" />
    </linearGradient>
    <radialGradient
       inkscape:collect="always"
       xlink:href="#linearGradient9353"
       id="radialGradient9359"
       cx="20"
       cy="14.571428"
       fx="20"
       fy="14.571428"
       r="18"
       gradientTransform="matrix(-1.0868165,0.45576174,-0.72222219,-1.7222222,52.26014,26.980003)"
       gradientUnits="userSpaceOnUse" />
    <linearGradient
       inkscape:collect="always"
       id="linearGradient9353">
      <stop
         style="stop-color:#ac9d93;stop-opacity:1"
         offset="0"
         id="stop9355" />
      <stop
         style="stop-color:#917c6f;stop-opacity:1"
         offset="1"
         id="stop9357" />
    </linearGradient>
    <clipPath
       clipPathUnits="userSpaceOnUse"
       id="clipPath9366">
      <path
         style="fill:#f2f2f2;fill-opacity:1;stroke:none"
         d="M 33,28 33,45 8,45 C 5.23,45 3,42.77 3,40 L 3,8 C 3,5.23 5.23,3 8,3 l 31,0 0,15 c 0,4 -6,6 -6,10 z"
         id="path9368"
         inkscape:connector-curvature="0"
         sodipodi:nodetypes="cccsssccc" />
    </clipPath>
    <filter
       id="filter9392"
       inkscape:label="Invert"
       x="0"
       y="0"
       width="1"
       height="1"
       inkscape:menu="Color"
       inkscape:menu-tooltip="Invert colors"
       color-interpolation-filters="sRGB">
      <feColorMatrix
         id="feColorMatrix9394"
         type="saturate"
         values="1"
         result="fbSourceGraphic" />
      <feColorMatrix
         id="feColorMatrix9396"
         in="fbSourceGraphic"
         values="-1 0 0 0 1 0 -1 0 0 1 0 0 -1 0 1 0 0 0 1 0 " />
    </filter>
    <linearGradient
       inkscape:collect="always"
       xlink:href="#linearGradient9555"
       id="linearGradient3840"
       gradientUnits="userSpaceOnUse"
       x1="10"
       y1="-24"
       x2="38"
       y2="-46" />
    <radialGradient
       inkscape:collect="always"
       xlink:href="#linearGradient9353"
       id="radialGradient3842"
       gradientUnits="userSpaceOnUse"
       gradientTransform="matrix(-1.0868165,0.45576174,-0.72222219,-1.7222222,52.26014,26.980003)"
       cx="20"
       cy="14.571428"
       fx="20"
       fy="14.571428"
       r="18" />
    <radialGradient
       inkscape:collect="always"
       xlink:href="#linearGradient9353"
       id="radialGradient3849"
       gradientUnits="userSpaceOnUse"
       gradientTransform="matrix(-1.0868165,0.45576174,-0.72222219,-1.7222222,52.26014,26.980003)"
       cx="20"
       cy="14.571428"
       fx="20"
       fy="14.571428"
       r="18" />
    <linearGradient
       inkscape:collect="always"
       xlink:href="#linearGradient3007"
       id="linearGradient3853"
       gradientUnits="userSpaceOnUse"
       x1="10"
       y1="-24"
       x2="43"
       y2="-24"
       gradientTransform="matrix(0.95238095,0,0,0.95238095,1.047619,-1.1428571)" />
    <linearGradient
       inkscape:collect="always"
       xlink:href="#linearGradient3809"
       id="linearGradient3826"
       gradientUnits="userSpaceOnUse"
       x1="25"
       y1="36"
       x2="25"
       y2="7"
       gradientTransform="matrix(1,0,0,1.2413793,0,-4.6896552)" />
  </defs>
  <sodipodi:namedview
     id="base"
     pagecolor="#ffffff"
     bordercolor="#666666"
     borderopacity="1.0"
     inkscape:pageopacity="0.0"
     inkscape:pageshadow="2"
     inkscape:zoom="11.766257"
     inkscape:cx="22.816829"
     inkscape:cy="29.236101"
     inkscape:current-layer="layer1"
     showgrid="true"
     inkscape:grid-bbox="true"
     inkscape:document-units="px"
     inkscape:window-width="1280"
     inkscape:window-height="984"
     inkscape:window-x="-3"
     inkscape:window-y="19"
     inkscape:window-maximized="1">
    <inkscape:grid
       type="xygrid"
       id="grid3828" />
  </sodipodi:namedview>
  <metadata
     id="metadata3726">
    <rdf:RDF>
      <cc:Work
         rdf:about="">
        <dc:format>image/svg+xml</dc:format>
        <dc:type
           rdf:resource="http://purl.org/dc/dcmitype/StillImage" />
        <dc:title></dc:title>
      </cc:Work>
    </rdf:RDF>
  </metadata>
  <g
     id="layer1"
     inkscape:label="Layer 1"
     inkscape:groupmode="layer">
    <rect
       style="opacity:0.48936169;fill:none;stroke:none"
       id="border"
       width="48"
       height="48"
       x="0"
       y="0" />
    <rect
       ry="5"
       rx="5"
       y="3"
       x="3"
       height="42"
       width="42"
       id="rect3000"
       style="fill:#333333;fill-opacity:1;stroke:none;filter:url(#filter3794)"
       transform="matrix(0,1,-1,0,48,0)" />
    <path
       transform="matrix(0,1,-1,0,0,0)"
       style="fill:url(#linearGradient3853);fill-opacity:1;stroke:none"
       d="m 6,-44 32,0 c 2,0 4,2 4,4 l 0,32 c 0,2 -2,4 -4,4 L 6,-4 C 4,-4 2,-6 2,-8 l 0,-32 c 0,-2 2,-4 4,-4 z"
       id="rect2995"
       inkscape:connector-curvature="0"
       sodipodi:nodetypes="sssssssss" />
    <path
       id="path3811"
       d="M 8,1 C 5,1 3,3 3,6 l 0,32 c 0,3 2,5 5,5 l 32,0 c 3,0 5,-2 5,-5 L 45,6 C 45,3 43,1 40,1 z m 0,1 32,0 c 2,0 4,2 4,4 l 0,32 c 0,2 -2,4 -4,4 L 8,42 C 6,42 4,40 4,38 L 4,6 C 4,4 6,2 8,2 z"
       style="fill:#333333;fill-opacity:1;stroke:none"
       inkscape:connector-curvature="0"
       sodipodi:nodetypes="ssssccccscccccsssc" />
    <path
       style="fill:#666666;fill-opacity:1;stroke:none"
       d="M 8,2 C 6,2 4,4 4,6 l 0,32 c 0,2 2,4 4,4 l 32,0 c 2,0 4,-2 4,-4 L 44,6 C 44,4 42,2 40,2 z m 0,1 32,0 c 2,0 3,2 3,3 l 0,32 c 0,1 -1,3 -3,3 L 8,41 C 6,41 5,39 5,38 L 5,6 C 5,5 6,3 8,3 z"
       id="path3013"
       inkscape:connector-curvature="0"
       sodipodi:nodetypes="ssssssssssssssssss" />
    <rect
       style="fill:url(#linearGradient3826);fill-opacity:1;stroke:none"
       id="rect3039"
       width="36"
       height="36"
       x="6"
       y="4"
       rx="3"
       ry="4" />
    <path
       style="fill:#ffffff;fill-opacity:1;stroke:none"
       d="m 35,40 4,0 c 1.662,0 3,-1.338 3,-3 L 42,7 C 42,5.338 40.662,4 39,4 L 9,4 C 7.338,4 6,5.338 6,7 l 0,30 c 0,1.662 1.338,3 3,3 l 4,0 0,-1 -4,0 C 8,39 7,38 7,37 L 7,7 C 7,6 8,5 9,5 l 30,0 c 1,0 2,1 2,2 l 0,30 c 0,1 -1,2 -2,2 l -4,0 z"
       id="rect3817"
       inkscape:connector-curvature="0"
       sodipodi:nodetypes="cssssssssccsssssssscc" />
    <text
       xml:space="preserve"
       style="font-size:3.98958540000000017px;font-style:normal;font-variant:normal;font-weight:normal;font-stretch:normal;line-height:125%;letter-spacing:0px;word-spacing:0px;fill:#333333;fill-opacity:1;stroke:none;font-family:Univers;-inkscape-font-specification:Univers"
       x="10.026105"
       y="10.971359"
       id="text3838"
       sodipodi:linespacing="125%"
       transform="scale(0.9973963,1.0026105)"><tspan
         sodipodi:role="line"
         id="tspan3840"
         x="10.026105"
         y="10.971359"
         style="font-size:6px;font-weight:normal;letter-spacing:0px;fill:#333333;fill-opacity:1;-inkscape-font-specification:Univers"
         dx="0 0 0 0 0 0 0.25496638">Summary</tspan></text>
    <path
       style="opacity:0.25000000000000000;fill:#4d4d4d;fill-opacity:1;stroke:none"
       d="m 8,13 0,22 32,0 0,-22 z m 1,1 30,0 0,20 -30,0 z"
       id="rect3854"
       inkscape:connector-curvature="0"
       sodipodi:nodetypes="cccccccccc" />
    <rect
       style="opacity:0.75;fill:#333333;fill-opacity:1;stroke:none"
       id="rect3842"
       width="2"
       height="2"
       x="11"
       y="18" />
    <rect
       y="23"
       x="13"
       height="2"
       width="2"
       id="rect3852"
       style="opacity:0.5;fill:#333333;fill-opacity:1;stroke:none" />
    <rect
       y="19"
       x="14"
       height="1"
       width="23"
       id="rect3862"
       style="opacity:0.50000000000000000;fill:#4d4d4d;fill-opacity:1;stroke:none" />
    <rect
       style="opacity:0.50000000000000000;fill:#4d4d4d;fill-opacity:1;stroke:none"
       id="rect3864"
       width="20"
       height="1"
       x="17"
       y="24" />
    <path
       style="opacity:0.50000000000000000;fill:#333333;fill-opacity:1;stroke:none"
       d="m 14,33 20,0 c 0.554,0 1,0.446 1,1 l 0,6 -22,0 0,-6 c 0,-0.554 0.446,-1 1,-1 z"
       id="rect3866"
       inkscape:connector-curvature="0"
       sodipodi:nodetypes="sssccss" />
    <path
       style="opacity:0.75;fill:#ffffff;fill-opacity:1;stroke:none"
       d="m 15,37 4,-2 0,4 z"
       id="path3832"
       inkscape:connector-curvature="0" />
    <path
       inkscape:connector-curvature="0"
       id="path3834"
       d="m 33,37 -4,-2 0,4 z"
       style="opacity:0.75;fill:#ffffff;fill-opacity:1;stroke:none" />
    <rect
       y="28"
       x="11"
       height="2"
       width="2"
       id="rect3872"
       style="opacity:0.75;fill:#333333;fill-opacity:1;stroke:none" />
    <rect
       style="opacity:0.50000000000000000;fill:#4d4d4d;fill-opacity:1;stroke:none"
       id="rect3874"
       width="23"
       height="1"
       x="14"
       y="29" />
  </g>
</svg>
