<?xml version="1.0" encoding="UTF-8" standalone="no"?>
<!-- Created with Inkscape (http://www.inkscape.org/) -->

<svg
   xmlns:dc="http://purl.org/dc/elements/1.1/"
   xmlns:cc="http://creativecommons.org/ns#"
   xmlns:rdf="http://www.w3.org/1999/02/22-rdf-syntax-ns#"
   xmlns:svg="http://www.w3.org/2000/svg"
   xmlns="http://www.w3.org/2000/svg"
   xmlns:xlink="http://www.w3.org/1999/xlink"
   xmlns:sodipodi="http://sodipodi.sourceforge.net/DTD/sodipodi-0.dtd"
   xmlns:inkscape="http://www.inkscape.org/namespaces/inkscape"
   width="48px"
   height="48px"
   id="svg3767"
   version="1.1"
   inkscape:version="0.48.0 r9654"
   sodipodi:docname="systemmonitor.svg"
   inkscape:export-filename="/home/islington/Projects/Current/Indigo/48x48/apps/systemmonitor.png"
   inkscape:export-xdpi="90"
   inkscape:export-ydpi="90">
  <defs
     id="defs3769">
    <linearGradient
       inkscape:collect="always"
       id="linearGradient11133">
      <stop
         style="stop-color:#2ca02c;stop-opacity:1"
         offset="0"
         id="stop11135" />
      <stop
         style="stop-color:#2ca02c;stop-opacity:0.25"
         offset="1"
         id="stop11137" />
    </linearGradient>
    <linearGradient
       id="linearGradient3864"
       inkscape:collect="always">
      <stop
         id="stop3866"
         offset="0"
         style="stop-color:#e6e6e6;stop-opacity:1" />
      <stop
         id="stop3868"
         offset="1"
         style="stop-color:#999999;stop-opacity:1" />
    </linearGradient>
    <filter
       color-interpolation-filters="sRGB"
       inkscape:collect="always"
       id="filter3794">
      <feGaussianBlur
         inkscape:collect="always"
         stdDeviation="1.223301"
         id="feGaussianBlur3796" />
    </filter>
    <clipPath
       clipPathUnits="userSpaceOnUse"
       id="clipPath9366">
      <path
         style="fill:#f2f2f2;fill-opacity:1;stroke:none"
         d="M 33,28 33,45 8,45 C 5.23,45 3,42.77 3,40 L 3,8 C 3,5.23 5.23,3 8,3 l 31,0 0,15 c 0,4 -6,6 -6,10 z"
         id="path9368"
         inkscape:connector-curvature="0"
         sodipodi:nodetypes="cccsssccc" />
    </clipPath>
    <filter
       id="filter9392"
       inkscape:label="Invert"
       x="0"
       y="0"
       width="1"
       height="1"
       inkscape:menu="Color"
       inkscape:menu-tooltip="Invert colors"
       color-interpolation-filters="sRGB">
      <feColorMatrix
         id="feColorMatrix9394"
         type="saturate"
         values="1"
         result="fbSourceGraphic" />
      <feColorMatrix
         id="feColorMatrix9396"
         in="fbSourceGraphic"
         values="-1 0 0 0 1 0 -1 0 0 1 0 0 -1 0 1 0 0 0 1 0 " />
    </filter>
    <linearGradient
       inkscape:collect="always"
       xlink:href="#linearGradient3864"
       id="linearGradient3861"
       gradientUnits="userSpaceOnUse"
       x1="10"
       y1="-24"
       x2="38"
       y2="-46"
       gradientTransform="matrix(0.95238095,0,0,0.95238095,1.047619,-1.1428571)" />
    <linearGradient
       inkscape:collect="always"
       xlink:href="#linearGradient11133"
       id="linearGradient11156"
       gradientUnits="userSpaceOnUse"
       gradientTransform="translate(0,2)"
       x1="16"
       y1="13"
       x2="16"
       y2="26" />
  </defs>
  <sodipodi:namedview
     id="base"
     pagecolor="#ffffff"
     bordercolor="#666666"
     borderopacity="1.0"
     inkscape:pageopacity="0.0"
     inkscape:pageshadow="2"
     inkscape:zoom="11.313709"
     inkscape:cx="18.515708"
     inkscape:cy="24.531746"
     inkscape:current-layer="layer1"
     showgrid="true"
     inkscape:grid-bbox="true"
     inkscape:document-units="px"
     inkscape:window-width="1280"
     inkscape:window-height="984"
     inkscape:window-x="-2"
     inkscape:window-y="19"
     inkscape:window-maximized="1">
    <inkscape:grid
       type="xygrid"
       id="grid3775" />
  </sodipodi:namedview>
  <metadata
     id="metadata3772">
    <rdf:RDF>
      <cc:Work
         rdf:about="">
        <dc:format>image/svg+xml</dc:format>
        <dc:type
           rdf:resource="http://purl.org/dc/dcmitype/StillImage" />
        <dc:title></dc:title>
      </cc:Work>
    </rdf:RDF>
  </metadata>
  <g
     id="layer1"
     inkscape:label="Layer 1"
     inkscape:groupmode="layer">
    <rect
       style="opacity:0.48936169;fill:none;stroke:none"
       id="border"
       width="48"
       height="48"
       x="0"
       y="0" />
    <rect
       ry="5"
       rx="5"
       y="3"
       x="3"
       height="42"
       width="42"
       id="rect3000"
       style="fill:#333333;fill-opacity:1;stroke:none;filter:url(#filter3794)"
       transform="matrix(0,1,-1,0,48,0)" />
    <path
       transform="matrix(0,1,-1,0,0,0)"
       style="fill:url(#linearGradient3861);fill-opacity:1;stroke:none"
       d="m 6,-44 32,0 c 2,0 4,2 4,4 l 0,32 c 0,2 -2,4 -4,4 L 6,-4 C 4,-4 2,-6 2,-8 l 0,-32 c 0,-2 2,-4 4,-4 z"
       id="rect2995"
       inkscape:connector-curvature="0"
       sodipodi:nodetypes="sssssssss" />
    <path
       id="path3811"
       d="M 8,1 C 5,1 3,3 3,6 l 0,32 c 0,3 2,5 5,5 l 32,0 c 3,0 5,-2 5,-5 L 45,6 C 45,3 43,1 40,1 z m 0,1 32,0 c 2,0 4,2 4,4 l 0,32 c 0,2 -2,4 -4,4 L 8,42 C 6,42 4,40 4,38 L 4,6 C 4,4 6,2 8,2 z"
       style="fill:#333333;fill-opacity:1;stroke:none"
       inkscape:connector-curvature="0"
       sodipodi:nodetypes="ssssccccscccccsssc" />
    <path
       style="fill:#f2f2f2;fill-opacity:1;stroke:none"
       d="M 10,3 C 7,3 5,5 5,8 l 0,26 c 0,3 2,5 5,5 l 28,0 c 3,0 5,-2 5,-5 L 43,8 C 43,5 41,3 38,3 z m 0,1 28,0 c 3,0 4,2 4,4 l 0,26 c 0,2 -1,4 -4,4 L 10,38 C 7,38 6,36 6,34 L 6,8 C 6,6 7,4 10,4 z"
       id="path3884"
       inkscape:connector-curvature="0"
       sodipodi:nodetypes="ssssssssssssssssss" />
    <path
       style="fill:#1a1a1a;fill-opacity:1;stroke:none"
       d="m 42,8 0,26 c 0,2 -1,4 -4,4 L 10,38 C 7,38 6,36 6,34 L 6,8 C 6,6 7,4 10,4 l 28,0 c 3,0 4,2 4,4 z"
       id="path3886"
       inkscape:connector-curvature="0"
       sodipodi:nodetypes="sssssssss" />
    <g
       id="g11111"
       style="opacity:0.5">
      <rect
         y="5"
         x="8"
         height="32"
         width="1"
         id="rect11018"
         style="opacity:0.12500000000000000;fill:#e6e6e6;fill-opacity:1;stroke:none" />
      <rect
         style="opacity:0.12500000000000000;fill:#e6e6e6;fill-opacity:1;stroke:none"
         id="rect11020"
         width="1"
         height="32"
         x="18"
         y="5" />
      <rect
         style="opacity:0.12500000000000000;fill:#e6e6e6;fill-opacity:1;stroke:none"
         id="rect11022"
         width="1"
         height="32"
         x="23"
         y="5" />
      <rect
         y="5"
         x="28"
         height="32"
         width="1"
         id="rect11024"
         style="opacity:0.12500000000000000;fill:#e6e6e6;fill-opacity:1;stroke:none" />
      <rect
         style="opacity:0.12500000000000000;fill:#e6e6e6;fill-opacity:1;stroke:none"
         id="rect11026"
         width="1"
         height="32"
         x="33"
         y="5" />
      <rect
         y="5"
         x="38"
         height="32"
         width="1"
         id="rect11030"
         style="opacity:0.12500000000000000;fill:#e6e6e6;fill-opacity:1;stroke:none" />
      <rect
         y="5"
         x="13"
         height="32"
         width="1"
         id="rect11036"
         style="opacity:0.12500000000000000;fill:#e6e6e6;fill-opacity:1;stroke:none" />
      <rect
         transform="matrix(0,1,-1,0,0,0)"
         style="opacity:0.12500000000000000;fill:#e6e6e6;fill-opacity:1;stroke:none"
         id="rect11049"
         width="1"
         height="34"
         x="5"
         y="-41" />
      <rect
         transform="matrix(0,1,-1,0,0,0)"
         y="-41"
         x="15"
         height="34"
         width="1"
         id="rect11051"
         style="opacity:0.12500000000000000;fill:#e6e6e6;fill-opacity:1;stroke:none" />
      <rect
         transform="matrix(0,1,-1,0,0,0)"
         y="-41"
         x="20"
         height="34"
         width="1"
         id="rect11053"
         style="opacity:0.12500000000000000;fill:#e6e6e6;fill-opacity:1;stroke:none" />
      <rect
         transform="matrix(0,1,-1,0,0,0)"
         style="opacity:0.12500000000000000;fill:#e6e6e6;fill-opacity:1;stroke:none"
         id="rect11055"
         width="1"
         height="34"
         x="25"
         y="-41" />
      <rect
         transform="matrix(0,1,-1,0,0,0)"
         y="-41"
         x="30"
         height="34"
         width="1"
         id="rect11057"
         style="opacity:0.12500000000000000;fill:#e6e6e6;fill-opacity:1;stroke:none" />
      <rect
         transform="matrix(0,1,-1,0,0,0)"
         style="opacity:0.12500000000000000;fill:#e6e6e6;fill-opacity:1;stroke:none"
         id="rect11059"
         width="1"
         height="34"
         x="35"
         y="-41" />
      <rect
         transform="matrix(0,1,-1,0,0,0)"
         style="opacity:0.12500000000000000;fill:#e6e6e6;fill-opacity:1;stroke:none"
         id="rect11061"
         width="1"
         height="34"
         x="10"
         y="-41" />
    </g>
    <path
       style="fill:#333333;fill-opacity:1;stroke:none"
       d="M 10,4 C 7,4 6,6 6,8 l 0,26 c 0,2 1,4 4,4 l 28,0 c 3,0 4,-2 4,-4 L 42,8 C 42,6 41,4 38,4 z m 0,1 28,0 c 2.491759,0 3,1.2237047 3,3 l 0,26 c 0,2 -1,3 -3,3 L 10,37 C 8,37 7,36 7,34 L 7,8 C 7,6 8,5 10,5 z"
       id="path3892"
       inkscape:connector-curvature="0"
       sodipodi:nodetypes="ssssssssssssssssss" />
    <g
       id="g11151"
       transform="translate(0,9)">
      <path
         style="opacity:0.75;fill:url(#linearGradient11156);fill-opacity:1;stroke:none"
         d="m 9,28 5,-11 3,3 6,-18 4,11 0,2 2,4 1,2 1,1 1,-2 3,-9 4,17"
         id="path11143"
         inkscape:connector-curvature="0"
         sodipodi:nodetypes="cccccccccccc" />
      <path
         sodipodi:nodetypes="cccccccccccccccccccccccc"
         inkscape:connector-curvature="0"
         id="path11145"
         d="m 9,28 5,-11 3,3 6,-20 4,13 0,2 2,4 1,2 1,1 1,-2 3,-9 4,17 -1,0 -3,-14 -3,10 -3,-2 -3,-6 0,-2 -3,-11 -5,18 -1,1 -3,-3 -4,9 z"
         style="fill:#2ca02c;fill-opacity:1;stroke:none" />
      <path
         style="fill:#008000;fill-opacity:1;stroke:none"
         d="m 10,28 4,-9 3,3 6,-19 3,11 0,2 3,6 3,2 3,-10 3,14 -1,0 -2,-11 -2,8 -1,1 -4,-3 -3,-6 0,-2 -2,-9 -5,17 -1,1 -3,-3 -3,7 z"
         id="path11147"
         inkscape:connector-curvature="0"
         sodipodi:nodetypes="ccccccccccccccccccccccc" />
    </g>
  </g>
</svg>
