<?xml version="1.0" encoding="UTF-8" standalone="no"?>
<!-- Created with Inkscape (http://www.inkscape.org/) -->

<svg
   xmlns:dc="http://purl.org/dc/elements/1.1/"
   xmlns:cc="http://creativecommons.org/ns#"
   xmlns:rdf="http://www.w3.org/1999/02/22-rdf-syntax-ns#"
   xmlns:svg="http://www.w3.org/2000/svg"
   xmlns="http://www.w3.org/2000/svg"
   xmlns:xlink="http://www.w3.org/1999/xlink"
   xmlns:sodipodi="http://sodipodi.sourceforge.net/DTD/sodipodi-0.dtd"
   xmlns:inkscape="http://www.inkscape.org/namespaces/inkscape"
   width="48px"
   height="48px"
   id="svg3721"
   version="1.1"
   inkscape:version="0.48.0 r9654"
   sodipodi:docname="writer.svg">
  <defs
     id="defs3723">
    <linearGradient
       inkscape:collect="always"
       id="linearGradient3929">
      <stop
         style="stop-color:#cccccc;stop-opacity:1"
         offset="0"
         id="stop3931" />
      <stop
         style="stop-color:#f9f9f9;stop-opacity:1"
         offset="1"
         id="stop3933" />
    </linearGradient>
    <linearGradient
       inkscape:collect="always"
       id="linearGradient3847">
      <stop
         style="stop-color:#374845;stop-opacity:1"
         offset="0"
         id="stop3849" />
      <stop
         style="stop-color:#1c2422;stop-opacity:1"
         offset="1"
         id="stop3851" />
    </linearGradient>
    <linearGradient
       inkscape:collect="always"
       id="linearGradient3950">
      <stop
         style="stop-color:#808080;stop-opacity:1;"
         offset="0"
         id="stop3952" />
      <stop
         style="stop-color:#808080;stop-opacity:0;"
         offset="1"
         id="stop3954" />
    </linearGradient>
    <linearGradient
       id="linearGradient3882"
       inkscape:collect="always">
      <stop
         id="stop3884"
         offset="0"
         style="stop-color:#1a1a1a;stop-opacity:1" />
      <stop
         id="stop3886"
         offset="1"
         style="stop-color:#4d4d4d;stop-opacity:1" />
    </linearGradient>
    <linearGradient
       id="linearGradient3007"
       inkscape:collect="always">
      <stop
         id="stop3009"
         offset="0"
         style="stop-color:#f2f2f2;stop-opacity:1" />
      <stop
         id="stop3011"
         offset="1"
         style="stop-color:#e6e6e6;stop-opacity:1" />
    </linearGradient>
    <filter
       color-interpolation-filters="sRGB"
       inkscape:collect="always"
       id="filter3794">
      <feGaussianBlur
         inkscape:collect="always"
         stdDeviation="1.223301"
         id="feGaussianBlur3796" />
    </filter>
    <linearGradient
       inkscape:collect="always"
       xlink:href="#linearGradient9555"
       id="linearGradient9561"
       x1="10"
       y1="-24"
       x2="38"
       y2="-46"
       gradientUnits="userSpaceOnUse" />
    <linearGradient
       inkscape:collect="always"
       id="linearGradient9555">
      <stop
         style="stop-color:#514641;stop-opacity:1;"
         offset="0"
         id="stop9557" />
      <stop
         style="stop-color:#302925;stop-opacity:1"
         offset="1"
         id="stop9559" />
    </linearGradient>
    <radialGradient
       inkscape:collect="always"
       xlink:href="#linearGradient9353"
       id="radialGradient9359"
       cx="20"
       cy="14.571428"
       fx="20"
       fy="14.571428"
       r="18"
       gradientTransform="matrix(-1.0868165,0.45576174,-0.72222219,-1.7222222,52.26014,26.980003)"
       gradientUnits="userSpaceOnUse" />
    <linearGradient
       inkscape:collect="always"
       id="linearGradient9353">
      <stop
         style="stop-color:#ac9d93;stop-opacity:1"
         offset="0"
         id="stop9355" />
      <stop
         style="stop-color:#917c6f;stop-opacity:1"
         offset="1"
         id="stop9357" />
    </linearGradient>
    <clipPath
       clipPathUnits="userSpaceOnUse"
       id="clipPath9366">
      <path
         style="fill:#f2f2f2;fill-opacity:1;stroke:none"
         d="M 33,28 33,45 8,45 C 5.23,45 3,42.77 3,40 L 3,8 C 3,5.23 5.23,3 8,3 l 31,0 0,15 c 0,4 -6,6 -6,10 z"
         id="path9368"
         inkscape:connector-curvature="0"
         sodipodi:nodetypes="cccsssccc" />
    </clipPath>
    <filter
       id="filter9392"
       inkscape:label="Invert"
       x="0"
       y="0"
       width="1"
       height="1"
       inkscape:menu="Color"
       inkscape:menu-tooltip="Invert colors"
       color-interpolation-filters="sRGB">
      <feColorMatrix
         id="feColorMatrix9394"
         type="saturate"
         values="1"
         result="fbSourceGraphic" />
      <feColorMatrix
         id="feColorMatrix9396"
         in="fbSourceGraphic"
         values="-1 0 0 0 1 0 -1 0 0 1 0 0 -1 0 1 0 0 0 1 0 " />
    </filter>
    <linearGradient
       inkscape:collect="always"
       xlink:href="#linearGradient9555"
       id="linearGradient3840"
       gradientUnits="userSpaceOnUse"
       x1="10"
       y1="-24"
       x2="38"
       y2="-46" />
    <radialGradient
       inkscape:collect="always"
       xlink:href="#linearGradient9353"
       id="radialGradient3842"
       gradientUnits="userSpaceOnUse"
       gradientTransform="matrix(-1.0868165,0.45576174,-0.72222219,-1.7222222,52.26014,26.980003)"
       cx="20"
       cy="14.571428"
       fx="20"
       fy="14.571428"
       r="18" />
    <radialGradient
       inkscape:collect="always"
       xlink:href="#linearGradient9353"
       id="radialGradient3849"
       gradientUnits="userSpaceOnUse"
       gradientTransform="matrix(-1.0868165,0.45576174,-0.72222219,-1.7222222,52.26014,26.980003)"
       cx="20"
       cy="14.571428"
       fx="20"
       fy="14.571428"
       r="18" />
    <linearGradient
       inkscape:collect="always"
       xlink:href="#linearGradient3007"
       id="linearGradient3853"
       gradientUnits="userSpaceOnUse"
       x1="9.3999996"
       y1="-24"
       x2="43"
       y2="-24"
       gradientTransform="matrix(0.95238095,0,0,0.95238095,1.047619,-1.1428571)" />
    <linearGradient
       inkscape:collect="always"
       xlink:href="#linearGradient3882"
       id="linearGradient3096"
       x1="40"
       y1="9"
       x2="38.523178"
       y2="9"
       gradientUnits="userSpaceOnUse"
       spreadMethod="reflect"
       gradientTransform="matrix(1,0,0,0.41666667,21,10.333333)" />
    <linearGradient
       inkscape:collect="always"
       xlink:href="#linearGradient3882"
       id="linearGradient3872"
       x1="40"
       y1="25"
       x2="38.523178"
       y2="25"
       gradientUnits="userSpaceOnUse"
       spreadMethod="reflect"
       gradientTransform="matrix(1,0,0,1.0952381,21,-0.5238095)" />
    <linearGradient
       inkscape:collect="always"
       xlink:href="#linearGradient3007"
       id="linearGradient3880"
       x1="36"
       y1="10.5"
       x2="37"
       y2="10.5"
       gradientUnits="userSpaceOnUse"
       gradientTransform="translate(-1,1)" />
    <filter
       inkscape:collect="always"
       id="filter3926"
       x="-0.84521739"
       width="2.6904348"
       y="-0.076837945"
       height="1.1536759">
      <feGaussianBlur
         inkscape:collect="always"
         stdDeviation="1.0565217"
         id="feGaussianBlur3928" />
    </filter>
    <linearGradient
       inkscape:collect="always"
       xlink:href="#linearGradient3882"
       id="linearGradient3940"
       x1="40"
       y1="10"
       x2="38.523178"
       y2="10"
       gradientUnits="userSpaceOnUse"
       spreadMethod="reflect"
       gradientTransform="translate(21,1)" />
    <filter
       inkscape:collect="always"
       id="filter3946"
       x="-0.20347826"
       width="1.4069565"
       y="-0.016956522"
       height="1.033913">
      <feGaussianBlur
         inkscape:collect="always"
         stdDeviation="0.084782609"
         id="feGaussianBlur3948" />
    </filter>
    <radialGradient
       inkscape:collect="always"
       xlink:href="#linearGradient3950"
       id="radialGradient3956"
       cx="38.500001"
       cy="11.499999"
       fx="38.500001"
       fy="11.499999"
       r="0.50000072"
       gradientTransform="translate(0,-2.7418095e-6)"
       gradientUnits="userSpaceOnUse" />
    <linearGradient
       inkscape:collect="always"
       xlink:href="#linearGradient3882"
       id="linearGradient3960"
       gradientUnits="userSpaceOnUse"
       spreadMethod="reflect"
       x1="40"
       y1="25"
       x2="38.523178"
       y2="25"
       gradientTransform="matrix(1,0,0,0.28571429,21,-22.571429)" />
    <filter
       inkscape:collect="always"
       id="filter3841"
       x="-0.13043478"
       width="1.2608696"
       y="-0.13043478"
       height="1.2608696">
      <feGaussianBlur
         inkscape:collect="always"
         stdDeviation="0.16304348"
         id="feGaussianBlur3843" />
    </filter>
    <linearGradient
       inkscape:collect="always"
       xlink:href="#linearGradient3847"
       id="linearGradient3854"
       x1="34"
       y1="6"
       x2="36"
       y2="8"
       gradientUnits="userSpaceOnUse"
       spreadMethod="reflect" />
    <linearGradient
       inkscape:collect="always"
       xlink:href="#linearGradient3929"
       id="linearGradient3935"
       x1="37"
       y1="7"
       x2="36"
       y2="6"
       gradientUnits="userSpaceOnUse" />
    <filter
       inkscape:collect="always"
       id="filter3941">
      <feGaussianBlur
         inkscape:collect="always"
         stdDeviation="0.92934783"
         id="feGaussianBlur3943" />
    </filter>
  </defs>
  <sodipodi:namedview
     id="base"
     pagecolor="#ffffff"
     bordercolor="#666666"
     borderopacity="1.0"
     inkscape:pageopacity="0.0"
     inkscape:pageshadow="2"
     inkscape:zoom="8.3333333"
     inkscape:cx="18.476364"
     inkscape:cy="22.623732"
     inkscape:current-layer="layer1"
     showgrid="true"
     inkscape:grid-bbox="true"
     inkscape:document-units="px"
     inkscape:window-width="1280"
     inkscape:window-height="984"
     inkscape:window-x="-3"
     inkscape:window-y="19"
     inkscape:window-maximized="1"
     showguides="true"
     inkscape:guide-bbox="true"
     inkscape:snap-global="true"
     inkscape:snap-bbox="true">
    <inkscape:grid
       type="xygrid"
       id="grid3828" />
  </sodipodi:namedview>
  <metadata
     id="metadata3726">
    <rdf:RDF>
      <cc:Work
         rdf:about="">
        <dc:format>image/svg+xml</dc:format>
        <dc:type
           rdf:resource="http://purl.org/dc/dcmitype/StillImage" />
        <dc:title />
      </cc:Work>
    </rdf:RDF>
  </metadata>
  <g
     id="layer1"
     inkscape:label="Layer 1"
     inkscape:groupmode="layer">
    <rect
       style="opacity:0.48936169;fill:none;stroke:none"
       id="border"
       width="48"
       height="48"
       x="0"
       y="0" />
    <rect
       ry="5"
       rx="5"
       y="3"
       x="3"
       height="42"
       width="42"
       id="rect3000"
       style="fill:#333333;fill-opacity:1;stroke:none;filter:url(#filter3794)"
       transform="matrix(0,1,-1,0,48,0)" />
    <path
       transform="matrix(0,1,-1,0,0,0)"
       style="fill:url(#linearGradient3853);fill-opacity:1;stroke:none"
       d="m 6,-44 32,0 c 2,0 4,2 4,4 l 0,32 c 0,2 -2,4 -4,4 L 6,-4 C 4,-4 2,-6 2,-8 l 0,-32 c 0,-2 2,-4 4,-4 z"
       id="rect2995"
       inkscape:connector-curvature="0"
       sodipodi:nodetypes="sssssssss" />
    <path
       id="path3811"
       d="M 8,1 C 5,1 3,3 3,6 l 0,32 c 0,3 2,5 5,5 l 32,0 c 3,0 5,-2 5,-5 L 45,6 C 45,3 43,1 40,1 z m 0,1 32,0 c 2,0 4,2 4,4 l 0,32 c 0,2 -2,4 -4,4 L 8,42 C 6,42 4,40 4,38 L 4,6 C 4,4 6,2 8,2 z"
       style="fill:#808080;fill-opacity:1;stroke:none"
       inkscape:connector-curvature="0"
       sodipodi:nodetypes="ssssccccscccccsssc" />
    <path
       style="fill:#ffffff;fill-opacity:1;stroke:none"
       d="M 8 2 C 6 2 4 4 4 6 L 4 38 C 4 40 6 42 8 42 L 40 42 C 42 42 44 40 44 38 L 44 6 C 44 4 42 2 40 2 L 8 2 z M 9 3 L 39 3 C 41 3 43 5 43 7 L 43 37 C 43 39 41 41 39 41 L 9 41 C 7 41 5 39 5 37 L 5 7 C 5 5 7 3 9 3 z "
       id="path3013" />
    <rect
       style="opacity:0.75000000000000000;fill:#ff5555;fill-opacity:1;stroke:none"
       id="rect3020"
       width="1"
       height="38"
       x="10"
       y="3" />
    <g
       id="g3984"
       style="opacity:0.35"
       transform="matrix(1.0555556,0,0,1,-1.3333333,0)">
      <rect
         style="fill:#002255;fill-opacity:1;stroke:none"
         id="rect3024"
         width="36"
         height="1"
         x="6"
         y="9" />
      <rect
         y="13"
         x="6"
         height="1"
         width="36"
         id="rect3026"
         style="fill:#002255;fill-opacity:1;stroke:none" />
      <rect
         style="fill:#002255;fill-opacity:1;stroke:none"
         id="rect3037"
         width="36"
         height="1"
         x="6"
         y="17" />
      <rect
         y="21"
         x="6"
         height="1"
         width="36"
         id="rect3039"
         style="fill:#002255;fill-opacity:1;stroke:none" />
      <rect
         style="fill:#002255;fill-opacity:1;stroke:none"
         id="rect3041"
         width="36"
         height="1"
         x="6"
         y="25" />
      <rect
         y="29"
         x="6"
         height="1"
         width="36"
         id="rect3049"
         style="fill:#002255;fill-opacity:1;stroke:none" />
      <rect
         style="fill:#002255;fill-opacity:1;stroke:none"
         id="rect3051"
         width="36"
         height="1"
         x="6"
         y="33" />
      <rect
         y="37"
         x="6"
         height="1"
         width="36"
         id="rect3053"
         style="fill:#002255;fill-opacity:1;stroke:none" />
    </g>
    <path
       d="m 9,13.5 a 1.5,1.5 0 1 1 -3,0 1.5,1.5 0 1 1 3,0 z"
       sodipodi:ry="1.5"
       sodipodi:rx="1.5"
       sodipodi:cy="13.5"
       sodipodi:cx="7.5"
       id="path3059"
       style="fill:#ffffff;fill-opacity:1;stroke:none;filter:url(#filter3841)"
       sodipodi:type="arc"
       transform="translate(-0.5,1)" />
    <path
       sodipodi:type="arc"
       style="fill:#333333;fill-opacity:1;stroke:none"
       id="path3055"
       sodipodi:cx="7.5"
       sodipodi:cy="13.5"
       sodipodi:rx="1.5"
       sodipodi:ry="1.5"
       d="m 9,13.5 a 1.5,1.5 0 1 1 -3,0 1.5,1.5 0 1 1 3,0 z"
       transform="translate(-0.5,0.5)" />
    <use
       x="0"
       y="0"
       xlink:href="#path3059"
       id="use3061"
       transform="translate(0,20)"
       width="48"
       height="48" />
    <use
       x="0"
       y="0"
       xlink:href="#path3055"
       id="use3063"
       transform="translate(0,20)"
       width="48"
       height="48" />
    <path
       style="opacity:0.75000000000000000;fill:#000000;fill-opacity:1;stroke:none;filter:url(#filter3941)"
       d="m 37,4 -22,21 -3,5 -1,2 2,-1 6,-3 21,-21 z"
       id="path3894"
       inkscape:connector-curvature="0"
       sodipodi:nodetypes="cccccccc" />
    <g
       id="g3081">
      <path
         sodipodi:nodetypes="ccccccc"
         inkscape:connector-curvature="0"
         id="path3845"
         d="m 36,3 3,3 -21,21 -5,3 -1,-1 3,-5 z"
         style="fill:url(#linearGradient3854);fill-opacity:1;stroke:none" />
      <path
         sodipodi:nodetypes="ccccc"
         inkscape:connector-curvature="0"
         id="path3856"
         d="m 16,23 -1,1 3,3 1,-1 z"
         style="fill:#cccccc;fill-opacity:1;stroke:none;opacity:1" />
      <path
         sodipodi:nodetypes="ccccc"
         inkscape:connector-curvature="0"
         id="path3890"
         d="m 38,6 -1,-1 -8,8 1,1 z"
         style="fill:url(#linearGradient3935);fill-opacity:1;stroke:none" />
      <path
         sodipodi:nodetypes="cccc"
         inkscape:connector-curvature="0"
         id="path3892"
         d="m 12,29 1,1 -2,1 z"
         style="fill:#000000;fill-opacity:1;stroke:none" />
      <path
         sodipodi:nodetypes="ccccccc"
         inkscape:connector-curvature="0"
         id="path3927"
         d="m 36,3 0,1 -21,21 -3,5 0,-1 3,-5 z"
         style="fill:#1a1a1a;fill-opacity:1;stroke:none" />
      <path
         sodipodi:nodetypes="ccccccc"
         inkscape:connector-curvature="0"
         id="path3937"
         d="m 40,6 -1,0 -21,21 -5,3 1,0 5,-3 z"
         style="fill:#000000;fill-opacity:1;stroke:none" />
      <path
         sodipodi:nodetypes="ccccc"
         inkscape:connector-curvature="0"
         id="path3939"
         d="m 36,3 0,1 3,3 1,-1 -4,-3"
         style="fill:#1a1a1a;fill-opacity:1;stroke:none" />
      <path
         sodipodi:nodetypes="ccccc"
         style="fill:#1a1a1a;fill-opacity:1;stroke:none"
         d="m 27,12 -1,1 3,3 1,-1 z"
         id="path3917"
         inkscape:connector-curvature="0" />
    </g>
  </g>
</svg>
